<svg width="16" height="16" viewBox="0 0 16 16" fill="none" xmlns="http://www.w3.org/2000/svg">
<path d="M1 4.40465H4.0006L7.22555 7.62223H4.06676L1 4.40465Z" fill="#9F1307"/>
<path d="M1 11.4602H4.0006L7.22555 8.24261H4.06676L1 11.4602Z" fill="#9F1307"/>
<path d="M4.44344 12.023V15L7.69881 11.7647V8.77925L4.44344 12.023Z" fill="#9F1307"/>
<path d="M4.44344 3.97702V1L7.69881 4.23531V7.22075L4.44344 3.97702Z" fill="#9F1307"/>
<path d="M11.5161 12.023V15L8.26072 11.7647L8.26072 8.77925L11.5161 12.023Z" fill="#9F1307"/>
<path d="M11.5161 3.97702V1L8.26072 4.23531L8.26072 7.22075L11.5161 3.97702Z" fill="#9F1307"/>
<path d="M15 4.40465H11.9994L8.77445 7.62223H11.9332L15 4.40465Z" fill="#9F1307"/>
<path d="M15 11.4602H11.9994L8.77445 8.24261H11.9332L15 11.4602Z" fill="#9F1307"/>
</svg>
