<svg class="circle-calendar" width="824" height="869" viewBox="0 0 824 869" fill="none" xmlns="http://www.w3.org/2000/svg" xmlns:xlink="http://www.w3.org/1999/xlink">
<g clip-path="url(#clip0_459:2691)">

<path d="M823.395 435.272C823.395 662.438 639.184 846.592 411.948 846.592C184.711 846.592 0.5 662.438 0.5 435.272C0.5 208.106 184.711 23.951 411.948 23.951C639.184 23.951 823.395 208.106 823.395 435.272Z" fill="url(#pattern0)"/>
<path d="M823.395 435.272C823.395 662.438 639.184 846.592 411.948 846.592C184.711 846.592 0.5 662.438 0.5 435.272C0.5 208.106 184.711 23.951 411.948 23.951C639.184 23.951 823.395 208.106 823.395 435.272Z" fill="black" fill-opacity="0.6"/>
<path d="M823.395 435.272C823.395 662.438 639.184 846.592 411.948 846.592C184.711 846.592 0.5 662.438 0.5 435.272C0.5 208.106 184.711 23.951 411.948 23.951C639.184 23.951 823.395 208.106 823.395 435.272Z" fill="url(#pattern1)" fill-opacity="0.08"/>
<path d="M823.395 435.272C823.395 662.438 639.184 846.592 411.948 846.592C184.711 846.592 0.5 662.438 0.5 435.272C0.5 208.106 184.711 23.951 411.948 23.951C639.184 23.951 823.395 208.106 823.395 435.272Z" fill="#9F1307"/>
<path d="M823.395 435.272C823.395 662.438 639.184 846.592 411.948 846.592C184.711 846.592 0.5 662.438 0.5 435.272C0.5 208.106 184.711 23.951 411.948 23.951C639.184 23.951 823.395 208.106 823.395 435.272Z" fill="url(#pattern2)" fill-opacity="0.1"/>
<path d="M823.395 435.272C823.395 662.438 639.184 846.592 411.948 846.592C184.711 846.592 0.5 662.438 0.5 435.272C0.5 208.106 184.711 23.951 411.948 23.951C639.184 23.951 823.395 208.106 823.395 435.272Z" stroke="white"/>

<path d="M762.427 435.272C762.427 628.776 605.512 785.643 411.947 785.643C218.383 785.643 61.468 628.776 61.468 435.272C61.468 241.767 218.383 84.9005 411.947 84.9005C605.512 84.9005 762.427 241.767 762.427 435.272Z" fill="url(#pattern3)"/>
<path d="M762.427 435.272C762.427 628.776 605.512 785.643 411.947 785.643C218.383 785.643 61.468 628.776 61.468 435.272C61.468 241.767 218.383 84.9005 411.947 84.9005C605.512 84.9005 762.427 241.767 762.427 435.272Z" fill="black" fill-opacity="0.6"/>
<path d="M762.427 435.272C762.427 628.776 605.512 785.643 411.947 785.643C218.383 785.643 61.468 628.776 61.468 435.272C61.468 241.767 218.383 84.9005 411.947 84.9005C605.512 84.9005 762.427 241.767 762.427 435.272Z" fill="url(#pattern4)" fill-opacity="0.08"/>
<path d="M762.427 435.272C762.427 628.776 605.512 785.643 411.947 785.643C218.383 785.643 61.468 628.776 61.468 435.272C61.468 241.767 218.383 84.9005 411.947 84.9005C605.512 84.9005 762.427 241.767 762.427 435.272Z" fill="#9F1307"/>
<path d="M762.427 435.272C762.427 628.776 605.512 785.643 411.947 785.643C218.383 785.643 61.468 628.776 61.468 435.272C61.468 241.767 218.383 84.9005 411.947 84.9005C605.512 84.9005 762.427 241.767 762.427 435.272Z" fill="url(#pattern5)" fill-opacity="0.1"/>
<path d="M762.427 435.272C762.427 628.776 605.512 785.643 411.947 785.643C218.383 785.643 61.468 628.776 61.468 435.272C61.468 241.767 218.383 84.9005 411.947 84.9005C605.512 84.9005 762.427 241.767 762.427 435.272Z" stroke="white"/>

<path d="M749.245 435.272C749.245 621.498 598.232 772.465 411.947 772.465C225.663 772.465 74.6504 621.498 74.6504 435.272C74.6504 249.045 225.663 98.0787 411.947 98.0787C598.232 98.0787 749.245 249.045 749.245 435.272Z" fill="url(#pattern6)"/>
<path d="M749.245 435.272C749.245 621.498 598.232 772.465 411.947 772.465C225.663 772.465 74.6504 621.498 74.6504 435.272C74.6504 249.045 225.663 98.0787 411.947 98.0787C598.232 98.0787 749.245 249.045 749.245 435.272Z" fill="black" fill-opacity="0.6"/>
<path d="M749.245 435.272C749.245 621.498 598.232 772.465 411.947 772.465C225.663 772.465 74.6504 621.498 74.6504 435.272C74.6504 249.045 225.663 98.0787 411.947 98.0787C598.232 98.0787 749.245 249.045 749.245 435.272Z" fill="url(#pattern7)" fill-opacity="0.08"/>
<path d="M749.245 435.272C749.245 621.498 598.232 772.465 411.947 772.465C225.663 772.465 74.6504 621.498 74.6504 435.272C74.6504 249.045 225.663 98.0787 411.947 98.0787C598.232 98.0787 749.245 249.045 749.245 435.272Z" fill="#9F1307"/>
<path d="M749.245 435.272C749.245 621.498 598.232 772.465 411.947 772.465C225.663 772.465 74.6504 621.498 74.6504 435.272C74.6504 249.045 225.663 98.0787 411.947 98.0787C598.232 98.0787 749.245 249.045 749.245 435.272Z" fill="url(#pattern8)" fill-opacity="0.1"/>
<path d="M749.245 435.272C749.245 621.498 598.232 772.465 411.947 772.465C225.663 772.465 74.6504 621.498 74.6504 435.272C74.6504 249.045 225.663 98.0787 411.947 98.0787C598.232 98.0787 749.245 249.045 749.245 435.272Z" stroke="white"/>

<path d="M688.276 435.272C688.276 587.837 564.56 711.515 411.948 711.515C259.335 711.515 135.619 587.837 135.619 435.272C135.619 282.707 259.335 159.028 411.948 159.028C564.56 159.028 688.276 282.707 688.276 435.272Z" fill="url(#pattern9)"/>
<path d="M688.276 435.272C688.276 587.837 564.56 711.515 411.948 711.515C259.335 711.515 135.619 587.837 135.619 435.272C135.619 282.707 259.335 159.028 411.948 159.028C564.56 159.028 688.276 282.707 688.276 435.272Z" fill="black" fill-opacity="0.6"/>
<path d="M688.276 435.272C688.276 587.837 564.56 711.515 411.948 711.515C259.335 711.515 135.619 587.837 135.619 435.272C135.619 282.707 259.335 159.028 411.948 159.028C564.56 159.028 688.276 282.707 688.276 435.272Z" fill="url(#pattern10)" fill-opacity="0.08"/>
<path d="M688.276 435.272C688.276 587.837 564.56 711.515 411.948 711.515C259.335 711.515 135.619 587.837 135.619 435.272C135.619 282.707 259.335 159.028 411.948 159.028C564.56 159.028 688.276 282.707 688.276 435.272Z" fill="#9F1307"/>
<path d="M688.276 435.272C688.276 587.837 564.56 711.515 411.948 711.515C259.335 711.515 135.619 587.837 135.619 435.272C135.619 282.707 259.335 159.028 411.948 159.028C564.56 159.028 688.276 282.707 688.276 435.272Z" fill="url(#pattern11)" fill-opacity="0.1"/>
<path d="M688.276 435.272C688.276 587.837 564.56 711.515 411.948 711.515C259.335 711.515 135.619 587.837 135.619 435.272C135.619 282.707 259.335 159.028 411.948 159.028C564.56 159.028 688.276 282.707 688.276 435.272Z" stroke="white"/>

<path d="M675.094 435.272C675.094 580.559 557.28 698.337 411.948 698.337C266.616 698.337 148.801 580.559 148.801 435.272C148.801 289.985 266.616 172.206 411.948 172.206C557.28 172.206 675.094 289.985 675.094 435.272Z" fill="url(#pattern12)"/>
<path d="M675.094 435.272C675.094 580.559 557.28 698.337 411.948 698.337C266.616 698.337 148.801 580.559 148.801 435.272C148.801 289.985 266.616 172.206 411.948 172.206C557.28 172.206 675.094 289.985 675.094 435.272Z" fill="black" fill-opacity="0.6"/>
<path d="M675.094 435.272C675.094 580.559 557.28 698.337 411.948 698.337C266.616 698.337 148.801 580.559 148.801 435.272C148.801 289.985 266.616 172.206 411.948 172.206C557.28 172.206 675.094 289.985 675.094 435.272Z" fill="url(#pattern13)" fill-opacity="0.08"/>
<path d="M675.094 435.272C675.094 580.559 557.28 698.337 411.948 698.337C266.616 698.337 148.801 580.559 148.801 435.272C148.801 289.985 266.616 172.206 411.948 172.206C557.28 172.206 675.094 289.985 675.094 435.272Z" fill="#9F1307"/>
<path d="M675.094 435.272C675.094 580.559 557.28 698.337 411.948 698.337C266.616 698.337 148.801 580.559 148.801 435.272C148.801 289.985 266.616 172.206 411.948 172.206C557.28 172.206 675.094 289.985 675.094 435.272Z" fill="url(#pattern14)" fill-opacity="0.1"/>
<path d="M675.094 435.272C675.094 580.559 557.28 698.337 411.948 698.337C266.616 698.337 148.801 580.559 148.801 435.272C148.801 289.985 266.616 172.206 411.948 172.206C557.28 172.206 675.094 289.985 675.094 435.272Z" stroke="white"/>

<path d="M614.126 435.272C614.126 546.897 523.608 637.388 411.948 637.388C300.287 637.388 209.769 546.897 209.769 435.272C209.769 323.646 300.287 233.156 411.948 233.156C523.608 233.156 614.126 323.646 614.126 435.272Z" fill="url(#pattern15)"/>
<path d="M614.126 435.272C614.126 546.897 523.608 637.388 411.948 637.388C300.287 637.388 209.769 546.897 209.769 435.272C209.769 323.646 300.287 233.156 411.948 233.156C523.608 233.156 614.126 323.646 614.126 435.272Z" fill="black" fill-opacity="0.6"/>
<path d="M614.126 435.272C614.126 546.897 523.608 637.388 411.948 637.388C300.287 637.388 209.769 546.897 209.769 435.272C209.769 323.646 300.287 233.156 411.948 233.156C523.608 233.156 614.126 323.646 614.126 435.272Z" fill="url(#pattern16)" fill-opacity="0.08"/>
<path d="M614.126 435.272C614.126 546.897 523.608 637.388 411.948 637.388C300.287 637.388 209.769 546.897 209.769 435.272C209.769 323.646 300.287 233.156 411.948 233.156C523.608 233.156 614.126 323.646 614.126 435.272Z" fill="#9F1307"/>
<path d="M614.126 435.272C614.126 546.897 523.608 637.388 411.948 637.388C300.287 637.388 209.769 546.897 209.769 435.272C209.769 323.646 300.287 233.156 411.948 233.156C523.608 233.156 614.126 323.646 614.126 435.272Z" fill="url(#pattern17)" fill-opacity="0.1"/>
<path d="M614.126 435.272C614.126 546.897 523.608 637.388 411.948 637.388C300.287 637.388 209.769 546.897 209.769 435.272C209.769 323.646 300.287 233.156 411.948 233.156C523.608 233.156 614.126 323.646 614.126 435.272Z" stroke="white"/>

<path d="M600.944 435.272C600.944 539.619 516.327 624.209 411.948 624.209C307.568 624.209 222.952 539.619 222.952 435.272C222.952 330.925 307.568 246.334 411.948 246.334C516.327 246.334 600.944 330.925 600.944 435.272Z" fill="url(#pattern18)"/>
<path d="M600.944 435.272C600.944 539.619 516.327 624.209 411.948 624.209C307.568 624.209 222.952 539.619 222.952 435.272C222.952 330.925 307.568 246.334 411.948 246.334C516.327 246.334 600.944 330.925 600.944 435.272Z" fill="black" fill-opacity="0.6"/>
<path d="M600.944 435.272C600.944 539.619 516.327 624.209 411.948 624.209C307.568 624.209 222.952 539.619 222.952 435.272C222.952 330.925 307.568 246.334 411.948 246.334C516.327 246.334 600.944 330.925 600.944 435.272Z" fill="url(#pattern19)" fill-opacity="0.08"/>
<path d="M600.944 435.272C600.944 539.619 516.327 624.209 411.948 624.209C307.568 624.209 222.952 539.619 222.952 435.272C222.952 330.925 307.568 246.334 411.948 246.334C516.327 246.334 600.944 330.925 600.944 435.272Z" fill="#9F1307"/>
<path d="M600.944 435.272C600.944 539.619 516.327 624.209 411.948 624.209C307.568 624.209 222.952 539.619 222.952 435.272C222.952 330.925 307.568 246.334 411.948 246.334C516.327 246.334 600.944 330.925 600.944 435.272Z" fill="url(#pattern20)" fill-opacity="0.1"/>
<path d="M600.944 435.272C600.944 539.619 516.327 624.209 411.948 624.209C307.568 624.209 222.952 539.619 222.952 435.272C222.952 330.925 307.568 246.334 411.948 246.334C516.327 246.334 600.944 330.925 600.944 435.272Z" stroke="white"/>



<!-- THIRD CIRCLE -->
<g class="third-circle">
    <path d="M288.748 257.301L288.586 257.061L289.821 249.77C290.416 246.334 290.776 243.518 289.212 241.117C287.79 238.929 285.564 238.179 283.391 239.567C281.682 240.663 281.021 242.395 281.382 244.541L281.142 244.703C279.601 241.456 280.313 238.253 283.181 236.399C286.096 234.527 289.27 235.224 290.984 237.875C292.536 240.286 291.979 243.19 291.382 246.144L289.984 253.035L295.303 249.601C296.612 248.748 297.417 247.552 297.172 245.983L297.412 245.821L298.67 250.896L288.748 257.301Z" fill="white"/>
    <path d="M303.925 247.671C307.739 243.504 308.256 239.037 304.879 232.848C302.583 228.662 300.432 226.948 298.523 227.994C296.899 228.884 296.542 231.253 298.415 234.671C300.162 237.842 302.381 239.061 304.017 238.162C304.674 237.804 305.153 237.4 305.541 236.742L305.707 237.04C305.35 237.896 304.704 238.507 303.712 239.06C300.589 240.765 297.062 240.055 295.107 236.477C293.152 232.899 294.653 229.38 298.198 227.434C301.519 225.618 305.592 226.357 308.266 231.225C311.323 236.809 310.502 243.423 304.062 247.93L303.925 247.671Z" fill="white"/>
    <path d="M396.075 215.853L396.364 215.835C397.282 217.094 399.056 218.127 401.235 218.046C403.551 217.96 405.537 216.432 405.429 213.691C405.326 211.087 403.394 209.105 400.325 209.237C400.152 209.247 399.956 209.255 399.722 209.292L399.7 208.945C402.655 208.214 404.024 206.246 403.947 204.288C403.867 202.352 402.512 201.021 400.517 201.105C398.521 201.188 397.16 202.423 396.522 204.078L396.233 204.095C396.598 200.994 398.657 198.766 401.886 198.633C404.884 198.515 407.049 200.299 407.145 202.707C407.228 204.701 405.887 206.546 403.866 207.577C406.415 208.142 408.797 210.185 408.937 213.447C409.077 217.052 406.36 219.397 402.463 219.554C399.812 219.65 397.185 218.479 396.075 215.853Z" fill="white"/>
    <path d="M412.298 208.737C412.529 202.409 416.08 198.402 420.542 198.563C424.959 198.718 428.233 202.969 428.001 209.296C427.769 215.624 424.218 219.631 419.792 219.463C415.317 219.311 412.066 215.064 412.298 208.737ZM424.224 209.159C424.439 203.208 422.9 199.274 420.502 199.199C418.071 199.109 416.255 202.928 416.052 208.87C415.837 214.822 417.377 218.756 419.807 218.846C422.192 218.931 424.009 215.111 424.224 209.159Z" fill="white"/>
    <path d="M504.978 235.748L505.236 235.875C505.426 237.425 506.482 239.184 508.414 240.158C510.474 241.195 512.956 240.823 514.197 238.368C515.361 236.052 514.624 233.385 511.899 232.005C511.738 231.926 511.567 231.834 511.348 231.758L511.503 231.459C514.446 232.249 516.586 231.189 517.468 229.43C518.334 227.704 517.792 225.877 516.022 224.982C514.239 224.097 512.438 224.517 511.093 225.639L510.835 225.512C512.66 222.977 515.53 222.028 518.429 223.477C521.112 224.828 522.131 227.442 521.059 229.587C520.161 231.379 518.104 232.336 515.831 232.266C517.787 233.988 518.886 236.945 517.424 239.851C515.802 243.079 512.297 243.804 508.809 242.057C506.435 240.874 504.695 238.585 504.978 235.748Z" fill="white"/>
    <path d="M518.678 246.885L518.751 246.769C519.642 246.375 520.568 245.55 521.217 244.412L527.17 234.144C527.831 232.997 527.613 232.234 526.913 231.817C526.584 231.624 526.153 231.508 525.677 231.466L525.96 230.989L532.304 231.395L532.655 231.592L524.227 246.14C523.569 247.265 523.3 248.478 523.409 249.443L523.336 249.56L518.678 246.885Z" fill="white"/>
    <path d="M590.155 305.587L590.317 305.827C589.729 307.282 589.806 309.32 591.03 311.114C592.341 313.023 594.686 313.904 596.952 312.346C599.102 310.874 599.743 308.189 598.01 305.672C597.916 305.522 597.8 305.369 597.641 305.187L597.932 304.986C600.122 307.095 602.514 307.214 604.133 306.106C605.726 305.017 606.141 303.149 605.012 301.505C603.883 299.862 602.106 299.356 600.372 299.704L600.21 299.464C603.042 298.12 606.016 298.686 607.843 301.353C609.546 303.831 609.179 306.611 607.182 307.965C605.537 309.093 603.254 308.931 601.312 307.784C602.183 310.229 601.734 313.353 599.04 315.197C596.055 317.242 592.644 316.181 590.422 312.968C588.945 310.761 588.541 307.922 590.155 305.587Z" fill="white"/>
    <path d="M595.268 319.392L595.518 319.242L602.779 320.748C606.2 321.478 609.005 321.929 611.464 320.465C613.699 319.131 614.539 316.92 613.223 314.713C612.187 312.979 610.475 312.241 608.317 312.508L608.168 312.259C611.469 310.841 614.646 311.676 616.391 314.606C618.163 317.597 617.344 320.74 614.626 322.34C612.167 323.804 609.277 323.135 606.334 322.424L599.497 320.759L602.734 326.207C603.536 327.554 604.705 328.401 606.279 328.214L606.429 328.464L601.306 329.53L595.268 319.392Z" fill="white"/>
    <path d="M630.561 404.523L630.592 404.802C629.4 405.808 628.496 407.644 628.728 409.807C628.978 412.098 630.636 413.986 633.372 413.683C635.957 413.394 637.798 411.33 637.467 408.294C637.456 408.121 637.426 407.922 637.376 407.698L637.713 407.663C638.639 410.551 640.694 411.794 642.65 411.579C644.57 411.371 645.811 409.925 645.599 407.948C645.387 405.971 644.048 404.689 642.364 404.173L642.333 403.893C645.455 404.044 647.823 405.937 648.175 409.158C648.503 412.136 646.863 414.411 644.476 414.67C642.498 414.881 640.552 413.676 639.382 411.741C638.997 414.312 637.127 416.842 633.867 417.199C630.27 417.591 627.75 415.048 627.326 411.174C627.036 408.511 628.021 405.826 630.561 404.523Z" fill="white"/>
    <path d="M632.165 419.339L632.183 419.628C630.923 420.544 629.9 422.33 629.985 424.484C630.083 426.789 631.613 428.774 634.357 428.666C636.953 428.551 638.936 426.621 638.804 423.555C638.793 423.382 638.785 423.186 638.749 422.952L639.096 422.93C639.828 425.883 641.788 427.239 643.761 427.153C645.698 427.073 647.03 425.719 646.946 423.726C646.862 421.732 645.626 420.372 643.979 419.746L643.961 419.457C647.078 419.814 649.309 421.871 649.443 425.097C649.571 428.105 647.776 430.255 645.376 430.363C643.381 430.447 641.533 429.106 640.489 427.096C639.936 429.633 637.889 432.035 634.624 432.175C631.003 432.323 628.665 429.621 628.508 425.726C628.375 423.084 629.547 420.46 632.165 419.339Z" fill="white"/>
    <path d="M617.034 517.592L616.917 517.862C615.376 518.145 613.683 519.289 612.815 521.279C611.884 523.398 612.399 525.851 614.919 526.962C617.311 528.01 619.931 527.13 621.163 524.319C621.229 524.168 621.311 523.984 621.377 523.752L621.703 523.889C621.079 526.863 622.24 528.946 624.049 529.731C625.824 530.5 627.62 529.863 628.418 528.047C629.206 526.218 628.69 524.452 627.49 523.165L627.607 522.895C630.244 524.583 631.351 527.392 630.063 530.368C628.863 533.114 626.305 534.29 624.098 533.324C622.267 532.536 621.19 530.51 621.13 528.256C619.511 530.293 616.62 531.56 613.632 530.259C610.319 528.822 609.393 525.35 610.958 521.782C611.996 519.3 614.185 517.455 617.034 517.592Z" fill="white"/>
    <path d="M604.675 535.73L604.804 535.793C605.224 536.664 606.101 537.551 607.259 538.144L608.736 538.919L612.507 531.699L613.868 532.4L621.307 547.564L620.561 548.998L609.181 543.058L607.6 546.074L605.917 544.286L607.114 541.986L605.636 541.212C604.492 540.609 603.259 540.395 602.299 540.539L602.17 540.476L604.675 535.73ZM613.879 534.086L610.79 540.001L618.917 544.237L613.879 534.086Z" fill="white"/>
    <path d="M553.741 604.801L553.511 604.976C552.029 604.487 549.983 604.69 548.276 606.027C546.453 607.451 545.736 609.851 547.438 612.008C549.051 614.05 551.773 614.524 554.175 612.64C554.316 612.533 554.469 612.416 554.641 612.245L554.855 612.526C552.888 614.848 552.929 617.236 554.141 618.777C555.343 620.304 557.219 620.594 558.786 619.364C560.352 618.134 560.736 616.33 560.281 614.618L560.512 614.443C562.043 617.173 561.68 620.171 559.135 622.184C556.772 624.039 553.965 623.851 552.491 621.966C551.259 620.4 551.26 618.12 552.282 616.094C549.894 617.121 546.753 616.864 544.727 614.308C542.488 611.47 543.33 607.987 546.399 605.576C548.494 603.925 551.292 603.333 553.741 604.801Z" fill="white"/>
    <path d="M542.032 613.128L541.792 613.29C540.346 612.875 538.478 613.205 536.933 614.277C534.479 615.959 534.17 618.472 535.614 620.583C537.574 623.451 541.262 623.656 545.935 621.257L547.832 630.143L541.167 634.7L540.495 631.721L546.529 627.582L545.954 624.651C541.784 626.809 536.129 627.493 533.202 623.221C530.963 619.96 531.841 616.127 535.396 613.69C537.911 611.982 540.348 612.108 542.032 613.128Z" fill="white"/>
    <path d="M451.496 652.716L451.203 652.757C450.158 651.594 448.275 650.765 446.134 651.08C443.841 651.409 442.033 653.145 442.421 655.856C442.804 658.429 444.927 660.185 447.958 659.739C448.122 659.715 448.321 659.685 448.558 659.626L448.615 659.966C445.755 661.008 444.599 663.096 444.885 665.037C445.173 666.956 446.653 668.131 448.631 667.84C450.609 667.548 451.84 666.169 452.279 664.464L452.571 664.424C452.534 667.558 450.724 669.981 447.53 670.451C444.556 670.893 442.223 669.338 441.87 666.964C441.577 664.987 442.718 663.012 444.619 661.77C442.033 661.475 439.431 659.699 438.954 656.472C438.432 652.895 440.874 650.294 444.737 649.721C447.379 649.348 450.104 650.224 451.496 652.716Z" fill="white"/>
    <path d="M436.156 659.162C436.634 665.495 433.152 671.184 425.432 672.629L425.414 672.341C430.613 670.128 432.927 666.272 432.396 659.234C432.034 654.487 430.787 652.025 428.609 652.186C426.733 652.32 425.461 654.335 425.756 658.225C426.033 661.826 427.544 663.866 429.388 663.716C430.13 663.657 430.737 663.499 431.396 663.039L431.417 663.385C430.711 664.022 429.893 664.301 428.769 664.388C425.223 664.661 422.31 662.556 422.004 658.493C421.698 654.429 424.516 651.846 428.56 651.538C432.335 651.273 435.728 653.638 436.156 659.162Z" fill="white"/>
    <path d="M344.024 645.448L343.75 645.353C343.371 643.846 342.113 642.22 340.067 641.494C337.88 640.715 335.461 641.382 334.536 643.96C333.652 646.406 334.704 648.955 337.59 649.99C337.755 650.047 337.951 650.12 338.173 650.173L338.06 650.501C335.045 650.067 333.045 651.364 332.379 653.222C331.729 655.046 332.489 656.788 334.358 657.467C336.239 658.136 337.977 657.502 339.174 656.21L339.447 656.305C337.939 659.044 335.205 660.333 332.155 659.241C329.323 658.224 327.996 655.763 328.81 653.491C329.479 651.612 331.432 650.411 333.674 650.201C331.524 648.728 330.082 645.93 331.177 642.86C332.399 639.452 335.788 638.31 339.461 639.635C341.964 640.538 343.964 642.61 344.024 645.448Z" fill="white"/>
    <path d="M329.488 636.237L314.595 648.655L321.776 651.754C323.098 652.323 324.393 652.248 325.633 651.225L325.904 651.342L322.632 655.319L312.019 650.733L312.155 650.408L325.817 634.648L329.488 636.237Z" fill="white"/>
    <path d="M249.664 584.922L249.476 584.702C249.9 583.19 249.591 581.165 248.185 579.53C246.67 577.777 244.242 577.159 242.162 578.961C240.187 580.662 239.838 583.388 241.836 585.723C241.956 585.853 242.073 586.007 242.257 586.17L241.985 586.396C239.579 584.533 237.195 584.689 235.703 585.963C234.236 587.219 234.023 589.115 235.331 590.622C236.639 592.13 238.454 592.446 240.144 591.908L240.332 592.129C237.666 593.77 234.646 593.542 232.538 591.089C230.579 588.805 230.65 586.008 232.469 584.446C233.978 583.139 236.272 583.05 238.335 583.985C237.198 581.641 237.316 578.506 239.786 576.368C242.538 574.016 246.036 574.688 248.591 577.649C250.304 579.636 251.026 582.415 249.664 584.922Z" fill="white"/>
    <path d="M229.817 562.52C232.469 560.567 235.917 561.599 238.395 564.962C241.219 568.807 240.591 571.987 238.374 573.61C236.298 575.125 233.762 574.55 231.281 573.147C231.463 576.357 230.792 577.995 229.212 579.155C226.65 581.04 223.506 580.039 221.457 577.238C219.407 574.438 219.5 571.403 221.63 569.826C223.543 568.414 225.715 569.225 227.628 570.414C227.248 566.387 227.866 563.961 229.817 562.52ZM226.335 577.548C228.03 576.301 228.087 574.281 227.719 571.091C225.933 570.653 224.681 570.918 223.395 571.854C221.559 573.208 220.737 575.204 222.06 577.023C223.243 578.605 225.084 578.478 226.335 577.548ZM232.603 564.458C230.678 565.88 230.792 568.153 231.2 572.059C231.191 572.206 231.241 572.351 231.232 572.498C233.183 572.993 234.977 572.619 236.467 571.528C238.889 569.75 239.216 567.182 237.834 565.286C236.557 563.554 234.439 563.105 232.603 564.458Z" fill="white"/>
    <path d="M198.136 489.672L198.083 489.39C199.165 488.266 199.876 486.334 199.418 484.221C198.925 481.954 197.078 480.27 194.395 480.855C191.854 481.414 190.242 483.646 190.888 486.644C190.922 486.821 190.965 487.01 191.05 487.228L190.706 487.307C189.48 484.528 187.3 483.52 185.384 483.946C183.494 484.353 182.408 485.924 182.842 487.874C183.276 489.823 184.726 490.961 186.461 491.277L186.514 491.559C183.382 491.74 180.829 490.108 180.136 486.943C179.494 484.003 180.892 481.569 183.232 481.063C185.183 480.63 187.237 481.632 188.608 483.435C188.723 480.827 190.318 478.122 193.509 477.434C197.042 476.667 199.818 478.936 200.652 482.739C201.206 485.324 200.517 488.106 198.136 489.672Z" fill="white"/>
    <path d="M197.99 471.652C195.431 466.617 191.422 464.558 184.439 465.565C179.712 466.25 177.353 467.658 177.656 469.808C177.922 471.643 180.012 472.799 183.884 472.238C187.464 471.718 189.385 470.078 189.122 468.22C189.018 467.473 188.821 466.896 188.319 466.289L188.66 466.232C189.342 466.864 189.688 467.69 189.846 468.8C190.351 472.329 188.459 475.36 184.423 475.944C180.387 476.528 177.605 473.88 177.039 469.873C176.507 466.122 178.618 462.583 184.115 461.797C190.408 460.891 196.317 463.988 198.285 471.589L197.99 471.652Z" fill="white"/>
    <path d="M205.593 369.313L205.461 369.273C204.903 368.486 203.889 367.764 202.649 367.354L201.045 366.837L198.531 374.595L197.069 374.132L187.183 360.422L187.681 358.874L199.907 362.821L200.956 359.584L202.91 361.065L202.113 363.546L203.717 364.062C204.947 364.459 206.207 364.47 207.121 364.16L207.253 364.2L205.593 369.313ZM196.778 372.477L198.826 366.122L190.104 363.306L196.778 372.477Z" fill="white"/>
    <path d="M199.248 356.303C193.396 353.889 190.864 349.156 192.56 345.045C194.253 340.956 199.375 339.386 205.228 341.799C211.08 344.212 213.611 348.946 211.918 353.035C210.235 357.136 205.1 358.716 199.248 356.303ZM203.804 345.26C198.3 342.986 194.08 343.063 193.16 345.275C192.223 347.519 195.17 350.545 200.687 352.81C206.192 355.084 210.411 355.006 211.348 352.762C212.256 350.56 209.308 347.534 203.804 345.26Z" fill="white"/>
</g>



<!-- SECOND CIRCLE -->
<g class="second-circle">
    <path d="M687.455 298.26C693.253 295.536 698.515 296.864 700.425 300.956C702.334 305.011 700.019 309.915 694.206 312.647C688.394 315.378 683.147 314.042 681.238 309.987C679.328 305.895 681.642 300.992 687.455 298.26ZM692.604 309.202C698.061 306.634 700.881 303.423 699.849 301.225C698.801 298.998 694.528 299.128 689.071 301.696C683.615 304.265 680.795 307.476 681.835 309.688C682.874 311.901 687.148 311.771 692.604 309.202Z" fill="white"/>
    <path d="M686.571 321.026L686.707 320.968C687.665 321.212 688.912 321.108 690.139 320.603L701.255 316.023C702.496 315.511 702.802 314.761 702.488 314.004C702.347 313.655 702.068 313.29 701.717 312.965L702.23 312.75L707.082 316.996L707.239 317.374L691.484 323.857C690.271 324.353 689.306 325.158 688.795 326.005L688.659 326.063L686.571 321.026Z" fill="white"/>
    <path d="M719.766 443.065C726.165 443.398 730.151 447.067 729.919 451.562C729.68 456.043 725.318 459.264 718.919 458.931C712.52 458.598 708.534 454.929 708.759 450.456C709.005 445.953 713.367 442.732 719.766 443.065ZM719.133 455.136C725.153 455.458 729.163 453.965 729.292 451.542C729.42 449.083 725.593 447.189 719.573 446.867C713.553 446.544 709.544 448.037 709.416 450.496C709.287 452.919 713.113 454.813 719.133 455.136Z" fill="white"/>
    <path d="M708.566 459.795L708.858 459.817L713.812 465.44C716.148 468.099 718.12 470.178 721.003 470.495C723.622 470.774 725.648 469.502 725.921 466.905C726.135 464.863 725.196 463.228 723.28 462.143L723.302 461.851C726.822 462.704 728.908 465.317 728.522 468.742C728.14 472.24 725.562 474.289 722.401 473.942C719.518 473.625 717.594 471.332 715.63 468.969L711.104 463.477L710.418 469.851C710.24 471.425 710.687 472.815 712.073 473.62L712.051 473.913L707.261 471.666L708.566 459.795Z" fill="white"/>
    <path d="M674.081 595.976C679.435 599.49 681.041 604.667 678.577 608.442C676.133 612.187 670.74 612.78 665.372 609.273C660.005 605.767 658.412 600.583 660.856 596.838C663.321 593.062 668.714 592.47 674.081 595.976ZM667.458 606.085C672.502 609.381 676.701 610.114 678.035 608.076C679.375 606.015 677.032 602.447 671.988 599.151C666.943 595.854 662.745 595.121 661.382 597.176C660.07 599.22 662.413 602.788 667.458 606.085Z" fill="white"/>
    <path d="M658.711 607.221L658.54 607.448C656.964 607.365 655.022 608.123 653.718 609.883C652.332 611.764 652.267 614.3 654.502 615.952C656.616 617.522 659.39 617.247 661.248 614.747C661.357 614.61 661.465 614.437 661.594 614.235L661.881 614.446C660.576 617.233 661.264 619.55 662.865 620.737C664.436 621.905 666.346 621.687 667.555 620.056C668.749 618.432 668.65 616.566 667.745 615.024L667.916 614.797C670.137 617.053 670.591 620.081 668.638 622.71C666.821 625.15 664.047 625.724 662.091 624.269C660.468 623.075 659.864 620.841 660.315 618.592C658.256 620.236 655.127 620.842 652.469 618.869C649.532 616.698 649.412 613.072 651.754 609.907C653.353 607.776 655.944 606.447 658.711 607.221Z" fill="white"/>
    <path d="M564.01 701.402C567.008 707.063 565.915 712.38 561.927 714.475C557.976 716.57 552.962 714.487 549.978 708.818C546.979 703.157 548.073 697.841 552.046 695.753C556.012 693.651 561.011 695.741 564.01 701.402ZM553.326 707.045C556.141 712.38 559.466 715.041 561.623 713.901C563.793 712.753 563.469 708.496 560.654 703.161C557.839 697.826 554.514 695.166 552.343 696.313C550.172 697.461 550.511 701.71 553.326 707.045Z" fill="white"/>
    <path d="M537.252 703.448L537.31 703.584C537.11 704.554 537.265 705.791 537.811 706.994L538.513 708.539L546.023 705.113L546.667 706.523L543.185 723.275L541.704 723.959L536.301 712.135L533.155 713.571L532.925 711.107L535.318 710.021L534.616 708.476C534.07 707.273 533.231 706.346 532.363 705.865L532.306 705.729L537.252 703.448ZM545.626 707.855L539.482 710.661L543.337 719.104L545.626 707.855Z" fill="white"/>
    <path d="M408.453 740.608C408.155 747.007 404.509 751.037 400.001 750.814C395.537 750.604 392.275 746.266 392.574 739.868C392.872 733.47 396.518 729.44 400.99 729.664C405.505 729.864 408.752 734.21 408.453 740.608ZM396.381 740.038C396.093 746.057 397.613 750.051 400.035 750.179C402.486 750.292 404.372 746.45 404.66 740.431C404.948 734.412 403.429 730.417 400.978 730.305C398.541 730.185 396.655 734.026 396.381 740.038Z" fill="white"/>
    <path d="M391.482 732.464L391.189 732.442C390.349 731.18 388.686 730.214 386.792 730.03C383.8 729.719 381.914 731.471 381.639 734.033C381.271 737.523 383.988 740.097 389.163 741.306L384.8 749.433L376.681 748.594L378.105 745.853L385.462 746.598L386.942 743.955C382.32 742.901 377.492 739.725 378.031 734.516C378.44 730.536 381.627 728.144 385.957 728.579C389.066 728.899 390.865 730.572 391.482 732.464Z" fill="white"/>
    <path d="M262.687 700.357C259.353 705.835 254.244 707.629 250.388 705.286C246.563 702.963 245.784 697.6 249.097 692.116C252.41 686.632 257.54 684.843 261.366 687.167C265.221 689.51 266.008 694.887 262.687 700.357ZM252.352 694.088C249.227 699.243 248.64 703.472 250.719 704.745C252.819 706.025 256.307 703.539 259.432 698.384C262.557 693.23 263.144 689.001 261.043 687.721C258.959 686.47 255.477 688.934 252.352 694.088Z" fill="white"/>
    <path d="M247.64 688.371C243.984 693.675 237.624 695.932 230.613 692.156L230.775 691.915C236.281 693.479 240.564 691.907 244.629 686.036C247.375 682.065 247.948 679.336 246.14 678.079C244.58 676.998 242.289 677.766 240.054 681.02C237.981 684.034 237.873 686.594 239.411 687.669C240.043 688.096 240.616 688.352 241.42 688.422L241.222 688.701C240.264 688.755 239.428 688.462 238.486 687.816C235.526 685.771 234.575 682.258 236.921 678.867C239.266 675.476 243.132 675.22 246.514 677.551C249.663 679.732 250.834 683.737 247.64 688.371Z" fill="white"/>
    <path d="M153.3 593.448C147.766 596.675 142.411 595.81 140.146 591.918C137.898 588.054 139.752 582.962 145.286 579.735C150.819 576.507 156.175 577.372 158.423 581.236C160.702 585.12 158.833 590.22 153.3 593.448ZM147.208 583.018C142 586.062 139.475 589.498 140.699 591.607C141.931 593.73 146.178 593.223 151.386 590.179C156.594 587.135 159.119 583.698 157.887 581.575C156.649 579.474 152.415 579.974 147.208 583.018Z" fill="white"/>
    <path d="M152.437 570.994L132.813 570.962L136.353 578.016C137.014 579.323 138.049 580.102 139.694 580.108L139.823 580.371L134.71 581.329L129.461 570.872L129.78 570.711L150.614 567.356L152.437 570.994Z" fill="white"/>
    <path d="M109.145 442.052C102.746 442.017 98.5731 438.547 98.593 434.04C98.6146 429.569 102.821 426.138 109.234 426.164C115.647 426.191 119.805 429.67 119.784 434.14C119.75 438.655 115.566 442.093 109.145 442.052ZM109.217 429.98C103.189 429.941 99.2683 431.626 99.2562 434.058C99.2379 436.512 103.158 438.241 109.178 438.265C115.206 438.304 119.126 436.618 119.145 434.164C119.149 431.718 115.237 430.004 109.217 429.98Z" fill="white"/>
    <path d="M115.349 409.015C118.678 409.23 120.682 412.262 120.416 416.497C120.106 421.316 117.536 423.379 114.769 423.202C112.177 423.038 110.568 420.941 109.584 418.23C107.629 420.823 106.055 421.672 104.062 421.545C100.85 421.339 99.06 418.522 99.289 415.017C99.5179 411.512 101.582 409.212 104.254 409.386C106.656 409.545 107.804 411.585 108.513 413.741C110.828 410.33 112.888 408.853 115.349 409.015ZM102.861 418.416C104.993 418.558 106.352 417.028 108.14 414.305C107.033 412.802 105.904 412.188 104.298 412.085C101.991 411.929 100.047 412.949 99.8964 415.235C99.7602 417.214 101.277 418.319 102.861 418.416ZM116.246 412.334C113.822 412.17 112.443 414.028 110.209 417.319C110.12 417.425 110.054 417.574 109.951 417.688C111.131 419.355 112.774 420.221 114.651 420.34C117.688 420.532 119.617 418.756 119.778 416.39C119.911 414.207 118.56 412.468 116.246 412.334Z" fill="white"/>
    <path d="M144.69 292.407C139.1 289.268 137.15 284.21 139.359 280.28C141.548 276.38 146.887 275.426 152.477 278.565C158.052 281.712 160.017 286.761 157.814 290.669C155.61 294.577 150.279 295.545 144.69 292.407ZM150.608 281.874C145.362 278.915 141.105 278.476 139.928 280.594C138.722 282.728 141.312 286.138 146.558 289.097C151.805 292.057 156.062 292.495 157.259 290.347C158.451 288.221 155.869 284.825 150.608 281.874Z" fill="white"/>
    <path d="M163.871 279.482C165.244 273.933 163.553 269.7 157.557 265.839C153.492 263.222 150.739 262.739 149.563 264.595C148.549 266.173 149.381 268.447 152.709 270.583C155.782 272.565 158.345 272.577 159.387 270.982C159.793 270.344 160.026 269.765 160.046 268.97L160.339 269.16C160.436 270.094 160.158 270.959 159.542 271.921C157.587 274.943 154.124 276.016 150.654 273.792C147.183 271.568 146.819 267.707 149.038 264.256C151.107 261.039 155.089 259.73 159.801 262.766C165.211 266.249 167.665 272.533 164.134 279.651L163.871 279.482Z" fill="white"/>
    <path d="M254.706 187.385L254.634 187.258C254.717 186.278 254.389 185.064 253.687 183.949L247.273 173.776C246.555 172.633 245.762 172.482 245.078 172.924C244.76 173.121 244.449 173.464 244.192 173.87L243.893 173.404L247.234 167.905L247.58 167.691L256.652 182.093C257.354 183.208 258.311 184.013 259.238 184.367L259.309 184.495L254.706 187.385Z" fill="white"/>
    <path d="M257.538 173.612C254.313 168.078 255.179 162.722 259.071 160.456C262.934 158.206 268.024 160.059 271.249 165.593C274.475 171.126 273.608 176.482 269.745 178.732C265.861 181.012 260.763 179.145 257.538 173.612ZM267.967 167.516C264.925 162.308 261.49 159.784 259.381 161.009C257.258 162.241 257.764 166.489 260.806 171.697C263.848 176.904 267.283 179.428 269.406 178.196C271.521 176.949 271.009 172.723 267.967 167.516Z" fill="white"/>
    <path d="M403.977 140.418L403.97 140.273C404.542 139.466 404.882 138.248 404.855 136.939L404.543 124.915C404.514 123.57 403.913 123.032 403.084 123.051C402.699 123.063 402.269 123.193 401.828 123.404L401.815 122.851L407.504 119.835L407.912 119.829L408.365 136.846C408.401 138.169 408.808 139.358 409.428 140.128L409.435 140.273L403.977 140.418Z" fill="white"/>
    <path d="M414.96 140.239L414.952 140.094C415.54 139.315 415.947 138.116 415.956 136.806L416.088 124.775C416.095 123.428 415.522 122.873 414.706 122.848C414.327 122.838 413.889 122.954 413.44 123.151L413.442 122.59L419.236 119.794L419.651 119.803L419.466 136.844C419.443 138.163 419.822 139.367 420.399 140.161L420.406 140.306L414.96 140.239Z" fill="white"/>
    <path d="M536.458 166.572L536.517 166.445C537.375 165.981 538.232 165.051 538.784 163.844L543.833 152.925C544.399 151.71 544.1 150.946 543.348 150.605C542.998 150.447 542.557 150.36 542.078 150.369L542.315 149.862L548.747 149.691L549.119 149.855L541.964 165.318C541.404 166.511 541.254 167.77 541.454 168.721L541.394 168.848L536.458 166.572Z" fill="white"/>
    <path d="M544.521 170.293L544.654 170.031L551.689 167.451C555.022 166.246 557.668 165.147 558.998 162.571C560.215 160.225 559.751 157.875 557.436 156.678C555.622 155.741 553.765 156.022 552.05 157.417L551.789 157.284C553.863 154.306 557.039 153.32 560.115 154.909C563.23 156.532 564.213 159.672 562.743 162.496C561.413 165.072 558.564 166.042 555.67 167L548.901 169.225L554.591 172.178C555.988 172.902 557.463 173.004 558.71 172.004L558.971 172.137L555.132 175.791L544.521 170.293Z" fill="white"/>
</g>



<!-- FIRST CIRCLE -->
<g class="first-circle">
    <path d="M770.334 301.74C776.457 299.589 781.624 301.483 783.149 305.794C784.66 310.075 781.819 314.783 775.697 316.934C769.574 319.086 764.407 317.192 762.895 312.911C761.371 308.6 764.212 303.892 770.334 301.74ZM774.406 313.294C780.174 311.276 783.354 308.322 782.523 306.007C781.695 303.656 777.371 303.354 771.604 305.372C765.836 307.39 762.656 310.344 763.484 312.695C764.314 315.01 768.638 315.311 774.406 313.294Z" fill="white"/>
    <path d="M767.191 324.655L767.334 324.611C768.266 324.947 769.543 324.957 770.829 324.569L782.492 320.998C783.793 320.603 784.161 319.873 783.927 319.077C783.824 318.709 783.566 318.317 783.248 317.952L783.789 317.792L788.287 322.517L788.404 322.915L771.89 327.967C770.604 328.355 769.572 329.083 768.964 329.881L768.821 329.924L767.191 324.655Z" fill="white"/>
    <path d="M790.997 382.7C797.444 381.933 802.075 384.917 802.619 389.45C803.15 393.953 799.348 397.925 792.901 398.692C786.454 399.459 781.824 396.476 781.278 391.979C780.749 387.44 784.55 383.468 790.997 382.7ZM792.441 394.858C798.516 394.142 802.263 391.967 801.965 389.514C801.676 387.04 797.526 385.804 791.451 386.52C785.376 387.236 781.629 389.41 781.934 391.878C782.216 394.337 786.373 395.588 792.441 394.858Z" fill="white"/>
    <path d="M782.7 401.368L782.997 401.349L788.957 406.057C791.779 408.291 794.122 409.995 797.059 409.778C799.72 409.59 801.502 407.933 801.31 405.309C801.159 403.242 799.924 401.781 797.819 401.051L797.799 400.755C801.472 400.958 804.02 403.183 804.279 406.674C804.542 410.217 802.34 412.734 799.122 412.963C796.185 413.18 793.849 411.24 791.465 409.231L785.937 404.571L786.417 411.049C786.529 412.649 787.219 413.967 788.76 414.508L788.779 414.805L783.582 413.425L782.7 401.368Z" fill="white"/>
    <path d="M793.706 462.755C800.183 463.354 804.073 467.246 803.649 471.78C803.234 476.293 798.68 479.387 792.203 478.787C785.726 478.188 781.837 474.296 782.251 469.783C782.684 465.227 787.238 462.134 793.706 462.755ZM792.564 474.942C798.651 475.511 802.77 474.163 802.996 471.719C803.224 469.239 799.426 467.154 793.339 466.585C787.252 466.016 783.133 467.364 782.905 469.844C782.679 472.288 786.492 474.367 792.564 474.942Z" fill="white"/>
    <path d="M785.286 480.132L785.247 480.417C783.803 481.106 782.431 482.714 782.138 484.917C781.815 487.259 782.993 489.55 785.783 489.952C788.434 490.324 790.78 488.73 791.207 485.627C791.24 485.452 791.259 485.246 791.266 485.011L791.625 485.054C791.81 488.164 793.56 489.906 795.545 490.187C797.507 490.459 799.109 489.344 799.385 487.309C799.667 485.289 798.67 483.673 797.123 482.74L797.162 482.455C800.236 483.398 802.105 485.877 801.646 489.156C801.214 492.207 799.015 494.061 796.569 493.708C794.548 493.426 792.928 491.735 792.24 489.503C791.216 491.966 788.703 494.007 785.386 493.544C781.709 493.038 779.845 489.857 780.404 485.891C780.777 483.206 782.442 480.774 785.286 480.132Z" fill="white"/>
    <path d="M777.438 548.808C783.607 550.865 786.52 555.532 785.076 559.858C783.639 564.163 778.501 566.144 772.347 564.081C766.178 562.024 763.265 557.357 764.701 553.052C766.146 548.726 771.284 546.745 777.438 548.808ZM773.56 560.427C779.353 562.358 783.679 561.996 784.452 559.659C785.234 557.3 782.024 554.409 776.21 552.469C770.417 550.537 766.091 550.9 765.309 553.258C764.536 555.596 767.761 558.481 773.56 560.427Z" fill="white"/>
    <path d="M759.296 569.141L759.426 569.193C759.966 570.037 760.953 570.833 762.201 571.321L763.811 571.941L766.835 564.144L768.3 564.719L777.639 579.323L777.046 580.867L764.76 576.121L763.504 579.382L761.585 577.748L762.544 575.259L760.934 574.639C759.686 574.152 758.42 574.084 757.452 574.336L757.323 574.284L759.296 569.141ZM768.487 566.412L766.02 572.788L774.79 576.187L768.487 566.412Z" fill="white"/>
    <path d="M745.374 623.179C750.967 626.486 752.84 631.651 750.525 635.579C748.219 639.485 742.778 640.342 737.185 637.035C731.592 633.729 729.72 628.563 732.026 624.657C734.34 620.729 739.766 619.879 745.374 623.179ZM739.138 633.728C744.396 636.837 748.698 637.381 749.954 635.25C751.225 633.112 748.664 629.602 743.406 626.493C738.148 623.383 733.846 622.84 732.582 624.992C731.32 627.109 733.881 630.618 739.138 633.728Z" fill="white"/>
    <path d="M730.001 634.535L729.838 634.783C728.315 634.951 726.672 636.011 725.624 637.624C723.959 640.181 724.66 642.694 726.849 644.123C729.835 646.072 733.402 644.816 736.9 640.723L742.189 648.423L737.666 655.355L735.853 652.798L739.954 646.512L738.251 643.961C735.147 647.635 730.052 650.512 725.602 647.613C722.196 645.396 721.531 641.416 723.943 637.715C725.657 635.065 728.01 634.239 730.001 634.535Z" fill="white"/>
    <path d="M699.698 687.657C704.496 692.038 705.252 697.484 702.18 700.857C699.117 704.209 693.618 703.926 688.82 699.545C684.021 695.165 683.259 689.703 686.329 686.367C689.401 682.993 694.893 683.261 699.698 687.657ZM691.418 696.697C695.928 700.824 700.031 702.242 701.689 700.422C703.378 698.589 701.596 694.639 697.085 690.512C692.574 686.384 688.472 684.967 686.79 686.815C685.14 688.613 686.907 692.569 691.418 696.697Z" fill="white"/>
    <path d="M684.822 700.216C689.421 704.843 690.49 711.606 685.416 717.878L685.199 717.666C687.78 712.478 687.031 707.925 681.923 702.78C678.481 699.307 675.865 698.222 674.281 699.795C672.908 701.152 673.26 703.563 676.075 706.409C678.688 709.037 681.216 709.622 682.579 708.287C683.136 707.744 683.484 707.219 683.701 706.428L683.952 706.679C683.828 707.646 683.369 708.415 682.553 709.23C679.964 711.806 676.285 712.088 673.352 709.132C670.412 706.161 670.878 702.27 673.835 699.34C676.604 696.598 680.815 696.177 684.822 700.216Z" fill="white"/>
    <path d="M634.036 746.866C637.683 752.241 637.175 757.707 633.398 760.271C629.651 762.823 624.361 761.268 620.714 755.893C617.067 750.519 617.575 745.052 621.337 742.495C625.105 739.952 630.389 741.492 634.036 746.866ZM623.898 753.744C627.335 758.796 630.985 761.124 633.024 759.733C635.078 758.335 634.274 754.074 630.837 749.022C627.4 743.97 623.75 741.642 621.681 743.046C619.657 744.431 620.469 748.67 623.898 753.744Z" fill="white"/>
    <path d="M611.438 749.432L613.137 769.255L619.957 765.05C621.221 764.277 621.923 763.153 621.77 761.498L622.023 761.336L623.443 766.409L613.344 772.625L613.162 772.326L607.93 751.577L611.438 749.432Z" fill="white"/>
    <path d="M565.991 785.362C568.456 791.367 566.816 796.619 562.587 798.337C558.395 800.058 553.55 797.452 551.085 791.447C548.62 785.442 550.26 780.19 554.459 778.485C558.681 776.752 563.526 779.357 565.991 785.362ZM554.656 789.992C556.972 795.649 560.072 798.66 562.349 797.74C564.65 796.793 564.736 792.474 562.42 786.817C560.104 781.16 557.019 778.143 554.696 779.082C552.426 780.017 552.34 784.336 554.656 789.992Z" fill="white"/>
    <path d="M532.753 792.674C531.605 789.492 533.618 786.409 537.67 784.946C542.286 783.295 545.229 784.85 546.186 787.504C547.073 789.992 545.776 792.32 543.663 794.334C546.881 795.109 548.298 796.241 548.968 798.14C550.071 801.216 548.179 803.996 544.828 805.213C541.472 806.415 538.503 805.426 537.584 802.863C536.767 800.579 538.193 798.679 539.901 797.143C535.814 796.346 533.596 795.019 532.753 792.674ZM535.48 790.504C536.31 792.819 538.582 793.353 542.547 794.113C542.692 794.158 542.854 794.16 542.999 794.206C544.071 792.44 544.212 790.552 543.572 788.765C542.525 785.862 540.093 784.788 537.823 785.597C535.741 786.344 534.68 788.302 535.48 790.504ZM546.533 800.489C545.804 798.453 543.842 797.805 540.568 797.234C539.615 798.859 539.509 800.159 540.06 801.697C540.86 803.899 542.586 805.293 544.766 804.523C546.681 803.847 547.093 802.005 546.533 800.489Z" fill="white"/>
    <path d="M488.171 809.996C489.329 816.381 486.653 821.18 482.145 821.996C477.689 822.808 473.477 819.252 472.319 812.867C471.161 806.482 473.837 801.683 478.315 800.88C482.823 800.064 487.013 803.611 488.171 809.996ZM476.132 812.186C477.223 818.205 479.624 821.802 482.05 821.356C484.498 820.919 485.486 816.698 484.395 810.679C483.304 804.659 480.903 801.063 478.44 801.507C476.014 801.953 475.026 806.173 476.132 812.186Z" fill="white"/>
    <path d="M465.604 803.429C460.41 805.99 458.255 810.082 459.19 817.243C459.833 822.092 461.261 824.546 463.464 824.249C465.347 824 466.566 821.866 466.033 817.902C465.549 814.221 463.873 812.232 461.975 812.488C461.208 812.582 460.613 812.783 459.986 813.284L459.94 812.928C460.6 812.251 461.449 811.889 462.602 811.736C466.219 811.265 469.328 813.25 469.865 817.392C470.403 821.534 467.667 824.352 463.559 824.889C459.705 825.39 456.085 823.175 455.349 817.524C454.498 811.061 457.742 805.035 465.578 803.118L465.604 803.429Z" fill="white"/>
    <path d="M406.416 807.073L406.407 807.22C405.792 808.002 405.381 809.217 405.339 810.543L405.054 822.723C405.026 824.078 405.597 824.658 406.43 824.679C406.813 824.694 407.263 824.573 407.717 824.379L407.707 824.939L401.791 827.7L401.378 827.698L401.786 810.45C401.821 809.109 401.464 807.9 400.878 807.075L400.887 806.928L406.416 807.073Z" fill="white"/>
    <path d="M396.077 817.209C395.664 823.692 391.891 827.688 387.338 827.394C382.8 827.095 379.586 822.646 379.999 816.163C380.412 809.68 384.185 805.684 388.701 805.975C393.276 806.277 396.497 810.741 396.077 817.209ZM383.859 816.43C383.461 822.53 384.934 826.595 387.383 826.748C389.87 826.903 391.84 823.051 392.23 816.972C392.612 810.878 391.155 806.807 388.684 806.645C386.228 806.477 384.257 810.329 383.859 816.43Z" fill="white"/>
    <path d="M333.768 798.627L333.737 798.765C332.975 799.414 332.334 800.512 332.05 801.816L329.383 813.706C329.075 815.038 329.545 815.715 330.339 815.895C330.717 815.984 331.176 815.967 331.648 815.855L331.527 816.408L325.181 817.956L324.781 817.859L328.575 801.026C328.859 799.722 328.764 798.455 328.353 797.537L328.384 797.399L333.768 798.627Z" fill="white"/>
    <path d="M322.922 796.115L322.892 796.254C322.123 796.887 321.439 797.967 321.112 799.254L318.081 811.049C317.752 812.372 318.175 813.069 318.976 813.264C319.355 813.353 319.805 813.357 320.29 813.276L320.147 813.82L313.76 815.189L313.36 815.091L317.641 798.391C317.968 797.104 317.904 795.824 317.53 794.909L317.56 794.77L322.922 796.115Z" fill="white"/>
    <path d="M271.446 779.263L271.394 779.392C270.536 779.902 269.718 780.879 269.203 782.103L264.52 793.349C264.003 794.609 264.321 795.351 265.085 795.67C265.437 795.824 265.892 795.88 266.387 795.865L266.164 796.391L259.648 796.829L259.259 796.673L265.901 780.755C266.416 779.531 266.529 778.247 266.283 777.295L266.335 777.165L271.446 779.263Z" fill="white"/>
    <path d="M263.109 775.786L262.99 776.052L255.986 778.992C252.67 780.374 250.043 781.605 248.815 784.262C247.697 786.674 248.281 789.04 250.674 790.15C252.556 791.029 254.433 790.639 256.093 789.159L256.359 789.278C254.395 792.393 251.227 793.532 248.051 792.059C244.816 790.575 243.687 787.439 245.043 784.494C246.271 781.838 249.106 780.715 252.006 779.619L258.752 777.039L252.852 774.312C251.4 773.643 249.911 773.599 248.688 774.677L248.422 774.558L252.143 770.692L263.109 775.786Z" fill="white"/>
    <path d="M209.386 746.744L209.297 746.871C208.368 747.214 207.368 748.018 206.624 749.125L199.901 759.29C199.154 760.434 199.329 761.219 200.032 761.689C200.359 761.908 200.794 762.044 201.276 762.125L200.96 762.6L194.488 761.802L194.14 761.574L203.659 747.185C204.398 746.063 204.736 744.844 204.684 743.844L204.773 743.717L209.386 746.744Z" fill="white"/>
    <path d="M200.11 745.048L199.876 744.88C199.926 743.281 199.126 741.33 197.319 740.042C195.385 738.665 192.816 738.653 191.182 740.946C189.636 743.112 189.964 745.928 192.521 747.755C192.671 747.852 192.833 747.98 193.041 748.088L192.839 748.371C189.983 747.102 187.644 747.833 186.483 749.476C185.331 751.097 185.586 753.031 187.259 754.215C188.931 755.399 190.823 755.253 192.355 754.312L192.589 754.48C190.342 756.767 187.284 757.286 184.577 755.361C182.069 753.566 181.445 750.77 182.863 748.766C184.047 747.095 186.3 746.455 188.579 746.878C186.876 744.829 186.222 741.669 188.155 738.943C190.305 735.928 193.971 735.74 197.238 738.052C199.455 739.631 200.838 742.229 200.11 745.048Z" fill="white"/>
    <path d="M155.073 703.729L154.978 703.841C153.993 704.011 152.865 704.601 151.937 705.571L143.438 714.31C142.494 715.287 142.52 716.1 143.113 716.689C143.392 716.964 143.792 717.187 144.255 717.347L143.854 717.751L137.629 715.772L137.328 715.489L149.358 703.108C150.293 702.153 150.863 701.013 150.995 700.025L151.09 699.913L155.073 703.729Z" fill="white"/>
    <path d="M144.032 692.683L143.93 692.78C142.941 692.898 141.8 693.458 140.837 694.389L139.592 695.584L145.371 701.624L144.236 702.7L127.033 704.93L125.893 703.733L135.424 694.642L132.997 692.114L135.296 691.078L137.145 693.011L138.39 691.816C139.36 690.9 139.973 689.778 140.142 688.792L140.244 688.694L144.032 692.683ZM142.592 702.167L137.85 697.207L131.057 703.694L142.592 702.167Z" fill="white"/>
    <path d="M109.284 650.691L109.16 650.78C108.165 650.758 106.946 651.135 105.853 651.889L95.8638 658.865C94.7469 659.647 94.6255 660.451 95.0949 661.128C95.3198 661.444 95.6638 661.745 96.0922 661.992L95.6377 662.312L89.9081 659.189L89.6702 658.843L103.818 648.979C104.904 648.21 105.695 647.209 106.002 646.253L106.125 646.165L109.284 650.691Z" fill="white"/>
    <path d="M101.632 645.005L101.47 644.752C101.933 643.282 101.648 641.361 100.593 639.734C98.9357 637.163 96.3519 636.781 94.1636 638.2C91.1701 640.125 90.8508 643.898 93.1778 648.744L83.9886 650.433L79.5046 643.481L82.5821 642.882L86.6465 649.189L89.6742 648.683C87.5829 644.346 87.0415 638.521 91.4939 635.65C94.9095 633.456 98.8153 634.456 101.216 638.177C102.921 640.817 102.73 643.299 101.632 645.005Z" fill="white"/>
    <path d="M74.7522 590.96L74.6158 591.019C73.6464 590.806 72.3673 590.959 71.1683 591.507L60.0693 596.52C58.8247 597.088 58.5583 597.847 58.9043 598.613C59.0536 598.961 59.3499 599.318 59.722 599.643L59.2134 599.878L54.1637 595.748L54.0015 595.37L69.728 588.271C70.9422 587.716 71.886 586.864 72.3797 586.008L72.5161 585.95L74.7522 590.96Z" fill="white"/>
    <path d="M63.4214 585.306C57.3764 587.764 50.7376 586.159 46.8812 579.082L47.1539 578.966C50.9635 583.339 55.4493 584.396 62.1458 581.659C66.6779 579.811 68.6716 577.812 67.8413 575.748C67.1126 573.963 64.7561 573.358 61.0486 574.871C57.6137 576.268 56.122 578.393 56.8378 580.147C57.1275 580.865 57.4801 581.396 58.1227 581.891L57.7894 582.034C56.9542 581.549 56.3983 580.837 55.9745 579.764C54.6013 576.391 55.7321 572.88 59.5976 571.317C63.4718 569.733 66.886 571.677 68.4603 575.519C69.9178 579.089 68.6808 583.147 63.4214 585.306Z" fill="white"/>
    <path d="M51.5062 524.935L51.3569 524.963C50.4351 524.569 49.1626 524.486 47.8663 524.807L36.0235 527.666C34.6903 527.985 34.294 528.692 34.4821 529.507C34.5707 529.882 34.7978 530.286 35.1071 530.674L34.5531 530.803L30.352 525.808L30.2503 525.404L47.0298 521.349C48.3262 521.027 49.4128 520.384 50.0493 519.61L50.1986 519.582L51.5062 524.935Z" fill="white"/>
    <path d="M48.853 513.636L29.6463 508.427L31.2496 516.27C31.5478 517.719 32.372 518.764 33.9711 519.192L34.0273 519.49L28.7644 519.088L26.381 507.458L26.7251 507.383L48.0211 509.602L48.853 513.636Z" fill="white"/>
    <path d="M41.1757 457.635L41.035 457.641C40.2107 457.098 38.9751 456.766 37.642 456.834L25.4732 457.467C24.1033 457.533 23.5859 458.167 23.6181 458.995C23.6396 459.38 23.7758 459.823 24.0094 460.243L23.4467 460.269L20.2305 454.602L20.2111 454.181L37.4461 453.281C38.7792 453.213 39.9653 452.759 40.7338 452.126L40.8744 452.12L41.1757 457.635Z" fill="white"/>
    <path d="M35.2023 433.816C38.5869 433.767 40.8518 436.668 40.9154 440.959C40.9874 445.855 38.5565 448.131 35.741 448.17C33.103 448.204 31.3226 446.224 30.0921 443.561C28.3253 446.341 26.7907 447.319 24.7738 447.339C21.5147 447.389 19.4813 444.693 19.4262 441.133C19.371 437.573 21.261 435.081 23.9877 435.044C26.4266 435.005 27.7569 436.981 28.6436 439.092C30.746 435.506 32.7201 433.838 35.2023 433.816ZM23.3443 444.296C25.5019 444.269 26.7662 442.618 28.3555 439.717C27.1117 438.278 25.9237 437.764 24.2899 437.8C21.9548 437.831 20.0609 439.016 20.1013 441.328C20.1375 443.337 21.7407 444.318 23.3443 444.296ZM36.3829 437.074C33.9223 437.104 32.6752 439.089 30.6745 442.578C30.5857 442.705 30.5402 442.85 30.445 442.962C31.7689 444.546 33.5043 445.292 35.4108 445.265C38.4924 445.22 40.3065 443.262 40.264 440.861C40.2301 438.69 38.7179 437.043 36.3829 437.074Z" fill="white"/>
    <path d="M43.7184 387.035L43.5647 387.011C42.853 386.312 41.704 385.764 40.3862 385.575L28.3112 383.874C26.9565 383.683 26.3136 384.191 26.1987 385.01C26.1466 385.391 26.2006 385.852 26.3497 386.325L25.7936 386.241L23.7158 380.052L23.7701 379.634L40.8763 382.033C42.1942 382.222 43.4624 382.002 44.3325 381.523L44.4862 381.547L43.7184 387.035Z" fill="white"/>
    <path d="M45.3088 375.516C44.4299 369.782 41.1978 366.505 34.0741 365.233C29.2594 364.37 26.4979 364.996 26.1098 367.186C25.7781 369.048 27.4504 370.859 31.3888 371.558C35.035 372.203 37.4482 371.226 37.782 369.327C37.9229 368.568 37.9015 367.932 37.6204 367.192L37.971 367.258C38.4165 368.088 38.5028 369.001 38.2946 370.147C37.6616 373.732 34.8195 376.094 30.7059 375.362C26.5923 374.63 24.7301 371.162 25.4585 367.088C26.1348 363.27 29.3407 360.502 34.9452 361.492C41.3678 362.634 46.1272 367.551 45.6074 375.585L45.3088 375.516Z" fill="white"/>
    <path d="M58.9433 319.97L58.6684 319.873L55.0695 313.188C53.3739 310.025 51.8901 307.524 49.1118 306.561C46.5866 305.688 44.2946 306.488 43.4239 308.975C42.7394 310.933 43.2885 312.759 44.9414 314.274L44.8439 314.549C41.5594 312.907 40.1082 309.855 41.2562 306.551C42.4367 303.198 45.4451 301.768 48.4983 302.828C51.2766 303.79 52.6522 306.499 54.0385 309.275L57.2523 315.73L59.3944 309.601C59.9121 308.09 59.8152 306.608 58.6253 305.504L58.7227 305.23L62.9416 308.55L58.9433 319.97Z" fill="white"/>
    <path d="M54.7973 300.458C48.7755 298.034 46.1368 293.213 47.8348 288.976C49.5305 284.775 54.7681 283.11 60.7899 285.534C66.8117 287.959 69.4503 292.779 67.761 296.995C66.0718 301.211 60.8342 302.876 54.7973 300.458ZM59.3756 289.095C53.7065 286.824 49.3805 286.936 48.4558 289.212C47.5288 291.525 50.5662 294.599 56.2418 296.884C61.9109 299.155 66.2369 299.044 67.1703 296.746C68.0886 294.454 65.0296 291.372 59.3756 289.095Z" fill="white"/>
    <path d="M90.7677 248.891L90.519 248.728L88.381 241.437C87.3888 237.991 86.444 235.242 83.9276 233.719C81.6472 232.329 79.2363 232.643 77.8701 234.893C76.7984 236.659 76.9514 238.565 78.2536 240.391L78.0912 240.64C75.2224 238.336 74.4271 235.057 76.2501 232.074C78.0992 229.027 81.3347 228.253 84.0998 229.937C86.6161 231.459 87.3942 234.405 88.1767 237.403L89.9858 244.388L93.3569 238.826C94.184 237.451 94.3814 235.987 93.4556 234.663L93.618 234.414L97.051 238.537L90.7677 248.891Z" fill="white"/>
    <path d="M100.282 233.483L100.161 233.409C99.8169 232.481 99.0122 231.481 97.8958 230.758L87.7031 224.079C86.5585 223.332 85.7578 223.513 85.3031 224.209C85.0996 224.529 84.948 224.97 84.8678 225.452L84.3918 225.136L85.1664 218.66L85.3937 218.312L99.8292 227.782C100.952 228.52 102.172 228.858 103.172 228.807L103.3 228.896L100.282 233.483Z" fill="white"/>
    <path d="M131.462 191.864L131.237 191.673L130.504 184.104C130.176 180.535 129.763 177.648 127.583 175.695C125.599 173.91 123.171 173.765 121.409 175.719C120.025 177.26 119.817 179.158 120.745 181.198L120.554 181.423C118.157 178.632 118.003 175.258 120.349 172.66C122.728 170.013 126.067 169.857 128.471 172.037C130.658 174.004 130.878 177.028 131.078 180.131L131.546 187.331L135.899 182.514C136.966 181.323 137.441 179.92 136.768 178.434L136.967 178.187L139.569 182.88L131.462 191.864Z" fill="white"/>
    <path d="M141.568 180.681L141.352 180.469L140.936 172.889C140.749 169.314 140.456 166.412 138.362 164.369C136.449 162.499 134.034 162.259 132.188 164.141C130.742 165.62 130.46 167.514 131.312 169.586L131.1 169.802C128.82 166.907 128.812 163.542 131.249 161.031C133.741 158.479 137.072 158.471 139.382 160.726C141.483 162.784 141.583 165.822 141.658 168.926L141.823 176.129L146.358 171.485C147.481 170.342 148.014 168.95 147.409 167.453L147.621 167.237L150.032 172.029L141.568 180.681Z" fill="white"/>
    <path d="M191.147 136.696L190.97 136.45L191.918 128.914C192.365 125.355 192.61 122.455 190.906 120.066C189.366 117.894 187.029 117.209 184.871 118.74C183.183 119.946 182.574 121.747 183.028 123.935L182.781 124.113C181.046 120.859 181.649 117.538 184.493 115.515C187.391 113.452 190.672 114.039 192.554 116.674C194.258 119.063 193.807 122.069 193.33 125.139L192.207 132.266L197.501 128.516C198.804 127.583 199.573 126.322 199.253 124.739L199.5 124.562L201.005 129.706L191.147 136.696Z" fill="white"/>
    <path d="M201.782 124.697L202.035 124.535C203.51 125.176 205.616 125.154 207.482 123.944C209.477 122.661 210.439 120.262 208.91 117.905C207.448 115.664 204.715 114.933 202.074 116.635C201.92 116.737 201.751 116.845 201.565 116.996L201.369 116.704C203.587 114.519 203.776 112.074 202.673 110.377C201.598 108.705 199.698 108.245 197.986 109.353C196.274 110.461 195.709 112.279 196.018 114.046L195.764 114.208C194.469 111.269 195.106 108.237 197.901 106.433C200.496 104.751 203.333 105.222 204.68 107.28C205.79 108.991 205.571 111.324 204.339 113.302C206.869 112.472 210.062 113.023 211.882 115.847C213.897 118.962 212.732 122.435 209.362 124.61C207.053 126.081 204.131 126.416 201.782 124.697Z" fill="white"/>
    <path d="M255.467 98.7697L255.312 98.5125L256.958 91.0946C257.754 87.5937 258.255 84.7359 256.791 82.1939C255.461 79.8841 253.192 78.9853 250.904 80.3157C249.105 81.3568 248.327 83.1072 248.59 85.3114L248.333 85.4668C246.922 82.0764 247.816 78.8167 250.85 77.0648C253.932 75.2933 257.161 76.1726 258.77 78.9593C260.234 81.5013 259.515 84.4592 258.746 87.4599L256.957 94.458L262.595 91.2133C263.99 90.4097 264.877 89.2166 264.696 87.6144L264.954 87.459L265.974 92.7231L255.467 98.7697Z" fill="white"/>
    <path d="M274.794 90.3482L274.736 90.2119C274.985 89.2455 274.905 87.9716 274.41 86.7321L273.781 85.1378L266.015 88.2245L265.429 86.7729L269.81 70.012L271.36 69.4033L276.225 81.6385L279.476 80.3563L279.585 82.8715L277.105 83.8601L277.734 85.4544C278.229 86.6939 279.028 87.6785 279.882 88.2089L279.941 88.3452L274.794 90.3482ZM266.533 85.4589L272.907 82.9314L269.437 74.2028L266.533 85.4589Z" fill="white"/>
    <path d="M324.725 74.3407L324.653 74.0487L328.447 67.4644C330.255 64.3625 331.589 61.7857 330.953 58.922C330.376 56.32 328.481 54.7831 325.899 55.3672C323.871 55.822 322.605 57.2592 322.195 59.4409L321.903 59.512C321.573 55.8549 323.403 53.0125 326.822 52.2495C330.293 51.4822 333.11 53.2879 333.811 56.4285C334.446 59.2922 332.874 61.8991 331.241 64.5319L327.437 70.6729L333.789 69.2655C335.36 68.9164 336.564 68.0436 336.872 66.4608L337.164 66.3897L336.561 71.7178L324.725 74.3407Z" fill="white"/>
    <path d="M338.811 68.1395L339.109 68.0835C340.284 69.0683 342.175 69.5499 344.071 69.2053C347.079 68.6539 348.422 66.4318 347.946 63.858C347.305 60.352 343.945 58.6172 338.575 58.8878L340.532 49.774L348.683 48.2967L348.058 51.3584L340.67 52.6893L339.977 55.6731C344.792 55.4064 350.374 57.1407 351.321 62.3619C352.044 66.3524 349.624 69.5728 345.265 70.361C342.175 70.9296 339.953 69.8012 338.811 68.1395Z" fill="white"/>
    <path d="M396.947 64.1752L396.943 63.8725L401.954 58.1649C404.329 55.4656 406.145 53.22 406.084 50.2724C406.02 47.6124 404.468 45.7492 401.837 45.7991C399.76 45.8452 398.244 46.9945 397.398 49.0764L397.095 49.0805C397.481 45.4217 399.832 43.0014 403.329 42.9219C406.884 42.8532 409.273 45.1646 409.348 48.3934C409.418 51.3194 407.351 53.5648 405.238 55.8296L400.304 61.0918L406.803 60.9474C408.4 60.9097 409.751 60.2966 410.379 58.7919L410.682 58.7878L409.051 63.8924L396.947 64.1752Z" fill="white"/>
    <path d="M413.587 55.8609C413.736 49.3473 417.854 43.8963 425.878 43.1714L425.876 43.4591C420.353 45.2109 417.601 48.9133 417.432 56.1341C417.321 61.0193 418.361 63.6563 420.587 63.7077C422.52 63.7416 424.014 61.831 424.11 57.8303C424.189 54.1237 422.844 51.9038 420.942 51.857C420.167 51.8477 419.548 51.9511 418.823 52.3506L418.83 51.9895C419.624 51.417 420.479 51.1949 421.637 51.2195C425.294 51.3045 428.052 53.7265 427.966 57.9197C427.874 62.0977 424.729 64.4634 420.585 64.3716C416.698 64.2951 413.458 61.5419 413.587 55.8609Z" fill="white"/>
    <path d="M471.675 68.6867L471.729 68.3948L477.789 63.7974C480.664 61.637 482.9 59.7853 483.418 56.8943C483.891 54.2736 482.74 52.1318 480.154 51.6606C478.109 51.2806 476.391 52.1227 475.144 53.9816L474.852 53.9273C475.967 50.4226 478.759 48.5302 482.2 49.1557C485.699 49.7919 487.581 52.5528 487.002 55.7206C486.484 58.6116 484.016 60.383 481.473 62.1869L475.586 66.3519L481.984 67.5224C483.562 67.8155 485.008 67.4662 485.921 66.1261L486.213 66.1804L483.589 70.8496L471.675 68.6867Z" fill="white"/>
    <path d="M489.001 71.9753L501.614 56.6044L493.802 54.8555C492.352 54.5257 491.077 54.8556 490.012 56.1351L489.714 56.0656L492.232 51.4417L503.811 54.0348L503.731 54.3915L493.015 72.8932L489.001 71.9753Z" fill="white"/>
    <path d="M541.4 87.0893L541.513 86.8083L548.341 83.4593C551.579 81.896 554.12 80.5052 555.19 77.7725C556.171 75.2927 555.445 72.9696 552.991 72.0119C551.057 71.2621 549.219 71.743 547.635 73.3162L547.353 73.2035C549.131 69.9891 552.23 68.6463 555.485 69.9247C558.804 71.229 560.114 74.2879 558.932 77.3017C557.862 80.0344 555.092 81.3082 552.269 82.5864L545.685 85.5442L551.74 87.9189C553.226 88.5018 554.713 88.4575 555.867 87.3014L556.148 87.414L552.665 91.5009L541.4 87.0893Z" fill="white"/>
    <path d="M571.991 94.1853C570.626 97.2768 567.04 98.111 563.104 96.3715C558.63 94.3786 557.568 91.2312 558.703 88.6499C559.768 86.2416 562.318 85.4563 565.242 85.4607C563.464 82.6912 563.215 80.8983 564.019 79.0499C565.34 76.0665 568.638 75.3553 571.897 76.811C575.149 78.2516 576.617 81.01 575.517 83.5048C574.53 85.7185 572.188 86.1104 569.881 86.0394C572.323 89.4387 573.011 91.9219 571.991 94.1853ZM567.431 79.0243C566.554 80.9938 567.538 82.8305 569.5 85.4855C571.318 84.9592 572.292 84.0949 572.949 82.614C573.895 80.4716 573.612 78.2634 571.496 77.3405C569.655 76.5152 568.079 77.5651 567.431 79.0243ZM568.53 93.8908C569.52 91.6403 568.255 89.6908 565.916 86.4084C565.843 86.2786 565.739 86.1617 565.665 86.0319C563.677 86.5776 562.274 87.8222 561.499 89.569C560.247 92.3794 561.268 94.8455 563.462 95.8246C565.47 96.7042 567.578 96.018 568.53 93.8908Z" fill="white"/>
    <path d="M609.213 120.32L609.376 120.071L616.732 118.163C620.204 117.27 622.993 116.418 624.593 113.96C626.055 111.723 625.807 109.303 623.595 107.865C621.854 106.728 619.949 106.844 618.09 108.069L617.841 107.906C620.229 105.112 623.54 104.431 626.47 106.332C629.449 108.265 630.134 111.538 628.372 114.244C626.772 116.702 623.807 117.396 620.783 118.079L613.734 119.659L619.189 123.186C620.533 124.063 621.995 124.298 623.355 123.412L623.603 123.574L619.37 126.871L609.213 120.32Z" fill="white"/>
    <path d="M624.731 130.473C630.287 132.147 634.638 130.628 638.855 124.74C641.704 120.763 642.326 117.989 640.504 116.707C638.96 115.612 636.613 116.328 634.286 119.598C632.136 122.613 631.99 125.202 633.563 126.321C634.186 126.771 634.769 127.042 635.563 127.097L635.361 127.38C634.413 127.427 633.546 127.117 632.611 126.441C629.643 124.324 628.724 120.757 631.155 117.353C633.587 113.949 637.504 113.761 640.89 116.184C644.064 118.446 645.181 122.519 641.88 127.156C638.095 132.464 631.609 134.646 624.568 130.722L624.731 130.473Z" fill="white"/>
    <path d="M671.258 163.684L671.475 163.896C671.167 165.479 671.644 167.514 673.228 169.077C674.909 170.741 677.46 171.174 679.432 169.166C681.309 167.271 681.44 164.438 679.201 162.224C679.075 162.098 678.922 161.949 678.738 161.813L678.989 161.562C681.598 163.259 684.033 162.917 685.447 161.489C686.845 160.067 686.893 158.129 685.435 156.692C683.977 155.255 682.096 155.092 680.417 155.774L680.201 155.562C682.794 153.665 685.888 153.65 688.246 155.974C690.444 158.134 690.599 161.006 688.878 162.763C687.441 164.22 685.106 164.501 682.923 163.715C684.285 166.017 684.427 169.235 682.063 171.625C679.463 174.259 675.817 173.865 672.963 171.053C671.047 169.132 670.089 166.352 671.258 163.684Z" fill="white"/>
    <path d="M687.882 170.731C692.661 166.323 698.15 166.037 701.252 169.387C704.332 172.729 703.582 178.173 698.811 182.56C694.031 186.968 688.543 187.254 685.469 183.927C682.367 180.577 683.117 175.132 687.882 170.731ZM696.202 179.734C700.7 175.589 702.448 171.635 700.776 169.824C699.09 167.982 694.995 169.428 690.506 173.551C686.008 177.695 684.26 181.649 685.939 183.476C687.618 185.302 691.697 183.863 696.202 179.734Z" fill="white"/>
    <path d="M721.832 222.953L721.994 223.206C721.368 224.674 721.413 226.787 722.625 228.652C723.925 230.641 726.335 231.581 728.679 230.023C730.9 228.555 731.63 225.824 729.895 223.197C729.794 223.043 729.686 222.875 729.534 222.689L729.826 222.492C732.029 224.704 734.478 224.857 736.16 223.762C737.827 222.673 738.271 220.781 737.161 219.07C736.037 217.365 734.223 216.814 732.44 217.129L732.278 216.875C735.206 215.552 738.255 216.183 740.07 218.955C741.764 221.528 741.33 224.365 739.278 225.726C737.572 226.849 735.229 226.65 733.255 225.434C734.103 227.956 733.574 231.156 730.771 232.981C727.682 235.018 724.177 233.865 721.99 230.518C720.478 228.244 720.12 225.316 721.832 222.953Z" fill="white"/>
    <path d="M728.405 239.886L728.535 239.813C729.526 239.909 730.777 239.607 731.911 238.907L742.32 232.576C743.485 231.864 743.665 231.07 743.234 230.358C743.039 230.029 742.704 229.707 742.284 229.438L742.767 229.142L748.291 232.622L748.514 232.975L733.763 241.932C732.622 242.617 731.782 243.585 731.41 244.515L731.28 244.588L728.405 239.886Z" fill="white"/>
</g>



<mask id="path-118-inside-1_459:2691" fill="white">
<path fill-rule="evenodd" clip-rule="evenodd" d="M412.557 868.84C517.998 868.84 614.661 831.246 689.882 768.726C567.448 708.278 483.23 582.139 483.23 436.325C483.23 289.421 568.711 162.488 692.633 102.58C617.026 38.68 519.288 0.16037 412.557 0.16037C306.284 0.16037 208.929 38.3495 133.457 101.757C258.304 161.32 344.573 288.745 344.573 436.325C344.573 582.809 259.58 709.436 136.232 769.555C211.308 831.578 307.582 868.84 412.557 868.84ZM392.589 29.8306C380.3 29.8306 370.337 39.7935 370.337 52.0833C370.337 64.3731 380.3 74.336 392.589 74.336H432.126C444.415 74.336 454.378 64.3731 454.378 52.0833C454.378 39.7935 444.415 29.8306 432.126 29.8306H392.589ZM370.337 130.889C370.337 118.6 380.3 108.637 392.59 108.637H432.126C444.415 108.637 454.378 118.6 454.378 130.889C454.378 143.179 444.415 153.142 432.126 153.142H392.59C380.3 153.142 370.337 143.179 370.337 130.889ZM392.59 186.109C380.3 186.109 370.337 196.072 370.337 208.362C370.337 220.652 380.3 230.614 392.59 230.614H432.126C444.415 230.614 454.378 220.652 454.378 208.362C454.378 196.072 444.415 186.109 432.126 186.109H392.59Z"/>
</mask>
<path fill-rule="evenodd" clip-rule="evenodd" d="M412.557 868.84C517.998 868.84 614.661 831.246 689.882 768.726C567.448 708.278 483.23 582.139 483.23 436.325C483.23 289.421 568.711 162.488 692.633 102.58C617.026 38.68 519.288 0.16037 412.557 0.16037C306.284 0.16037 208.929 38.3495 133.457 101.757C258.304 161.32 344.573 288.745 344.573 436.325C344.573 582.809 259.58 709.436 136.232 769.555C211.308 831.578 307.582 868.84 412.557 868.84ZM392.589 29.8306C380.3 29.8306 370.337 39.7935 370.337 52.0833C370.337 64.3731 380.3 74.336 392.589 74.336H432.126C444.415 74.336 454.378 64.3731 454.378 52.0833C454.378 39.7935 444.415 29.8306 432.126 29.8306H392.589ZM370.337 130.889C370.337 118.6 380.3 108.637 392.59 108.637H432.126C444.415 108.637 454.378 118.6 454.378 130.889C454.378 143.179 444.415 153.142 432.126 153.142H392.59C380.3 153.142 370.337 143.179 370.337 130.889ZM392.59 186.109C380.3 186.109 370.337 196.072 370.337 208.362C370.337 220.652 380.3 230.614 392.59 230.614H432.126C444.415 230.614 454.378 220.652 454.378 208.362C454.378 196.072 444.415 186.109 432.126 186.109H392.59Z" fill="#8C0B00"/>
<path fill-rule="evenodd" clip-rule="evenodd" d="M412.557 868.84C517.998 868.84 614.661 831.246 689.882 768.726C567.448 708.278 483.23 582.139 483.23 436.325C483.23 289.421 568.711 162.488 692.633 102.58C617.026 38.68 519.288 0.16037 412.557 0.16037C306.284 0.16037 208.929 38.3495 133.457 101.757C258.304 161.32 344.573 288.745 344.573 436.325C344.573 582.809 259.58 709.436 136.232 769.555C211.308 831.578 307.582 868.84 412.557 868.84ZM392.589 29.8306C380.3 29.8306 370.337 39.7935 370.337 52.0833C370.337 64.3731 380.3 74.336 392.589 74.336H432.126C444.415 74.336 454.378 64.3731 454.378 52.0833C454.378 39.7935 444.415 29.8306 432.126 29.8306H392.589ZM370.337 130.889C370.337 118.6 380.3 108.637 392.59 108.637H432.126C444.415 108.637 454.378 118.6 454.378 130.889C454.378 143.179 444.415 153.142 432.126 153.142H392.59C380.3 153.142 370.337 143.179 370.337 130.889ZM392.59 186.109C380.3 186.109 370.337 196.072 370.337 208.362C370.337 220.652 380.3 230.614 392.59 230.614H432.126C444.415 230.614 454.378 220.652 454.378 208.362C454.378 196.072 444.415 186.109 432.126 186.109H392.59Z" fill="url(#pattern21)" fill-opacity="0.1"/>
<path d="M689.882 768.726L690.521 769.496L691.705 768.511L690.324 767.83L689.882 768.726ZM692.633 102.58L693.068 103.48L694.454 102.81L693.278 101.816L692.633 102.58ZM133.457 101.757L132.814 100.991L131.625 101.99L133.027 102.659L133.457 101.757ZM136.232 769.555L135.794 768.656L134.398 769.337L135.595 770.326L136.232 769.555ZM689.242 767.957C614.195 830.333 517.756 867.84 412.557 867.84V869.84C518.24 869.84 615.128 832.158 690.521 769.496L689.242 767.957ZM482.23 436.325C482.23 582.534 566.677 709.012 689.439 769.623L690.324 767.83C568.219 707.543 484.23 581.744 484.23 436.325H482.23ZM692.198 101.679C567.944 161.749 482.23 289.023 482.23 436.325H484.23C484.23 289.819 569.479 163.228 693.068 103.48L692.198 101.679ZM412.557 1.16037C519.043 1.16037 616.554 39.5906 691.987 103.343L693.278 101.816C617.497 37.7694 519.533 -0.83963 412.557 -0.83963V1.16037ZM134.101 102.522C209.399 39.2608 306.528 1.16037 412.557 1.16037V-0.83963C306.04 -0.83963 208.459 37.4381 132.814 100.991L134.101 102.522ZM345.573 436.325C345.573 288.345 259.069 160.578 133.888 100.854L133.027 102.659C257.538 162.063 343.573 289.145 343.573 436.325H345.573ZM136.671 770.454C260.349 710.174 345.573 583.206 345.573 436.325H343.573C343.573 582.412 258.811 708.698 135.794 768.656L136.671 770.454ZM412.557 867.84C307.823 867.84 211.773 830.664 136.869 768.784L135.595 770.326C210.844 832.491 307.341 869.84 412.557 869.84V867.84ZM371.337 52.0833C371.337 40.3458 380.852 30.8306 392.589 30.8306V28.8306C379.747 28.8306 369.337 39.2412 369.337 52.0833H371.337ZM392.589 73.336C380.852 73.336 371.337 63.8208 371.337 52.0833H369.337C369.337 64.9254 379.747 75.336 392.589 75.336V73.336ZM432.126 73.336H392.589V75.336H432.126V73.336ZM453.378 52.0833C453.378 63.8208 443.863 73.336 432.126 73.336V75.336C444.968 75.336 455.378 64.9254 455.378 52.0833H453.378ZM432.126 30.8306C443.863 30.8306 453.378 40.3458 453.378 52.0833H455.378C455.378 39.2412 444.968 28.8306 432.126 28.8306V30.8306ZM392.589 30.8306H432.126V28.8306H392.589V30.8306ZM392.59 107.637C379.747 107.637 369.337 118.047 369.337 130.889H371.337C371.337 119.152 380.852 109.637 392.59 109.637V107.637ZM432.126 107.637H392.59V109.637H432.126V107.637ZM455.378 130.889C455.378 118.047 444.968 107.637 432.126 107.637V109.637C443.863 109.637 453.378 119.152 453.378 130.889H455.378ZM432.126 154.142C444.968 154.142 455.378 143.732 455.378 130.889H453.378C453.378 142.627 443.863 152.142 432.126 152.142V154.142ZM392.59 154.142H432.126V152.142H392.59V154.142ZM369.337 130.889C369.337 143.731 379.747 154.142 392.59 154.142V152.142C380.852 152.142 371.337 142.627 371.337 130.889H369.337ZM371.337 208.362C371.337 196.624 380.852 187.109 392.59 187.109V185.109C379.747 185.109 369.337 195.52 369.337 208.362H371.337ZM392.59 229.614C380.852 229.614 371.337 220.099 371.337 208.362H369.337C369.337 221.204 379.747 231.614 392.59 231.614V229.614ZM432.126 229.614H392.59V231.614H432.126V229.614ZM453.378 208.362C453.378 220.099 443.863 229.614 432.126 229.614V231.614C444.968 231.614 455.378 221.204 455.378 208.362H453.378ZM432.126 187.109C443.863 187.109 453.378 196.624 453.378 208.362H455.378C455.378 195.52 444.968 185.109 432.126 185.109V187.109ZM392.59 187.109H432.126V185.109H392.59V187.109Z" fill="white" mask="url(#path-118-inside-1_459:2691)"/>
</g>
<defs>
<pattern id="pattern0" patternContentUnits="objectBoundingBox" width="1" height="1">
<use xlink:href="#image0_459:2691" transform="translate(-0.250227) scale(0.000366322)"/>
</pattern>
<pattern id="pattern1" patternContentUnits="objectBoundingBox" width="0.267024" height="0.267107">
<use xlink:href="#image1_459:2691" transform="scale(0.00121375)"/>
</pattern>
<pattern id="pattern2" patternContentUnits="objectBoundingBox" width="0.267024" height="0.267107">
<use xlink:href="#image2_459:2691" transform="scale(0.00121375)"/>
</pattern>
<pattern id="pattern3" patternContentUnits="objectBoundingBox" width="1" height="1">
<use xlink:href="#image0_459:2691" transform="translate(-0.250227) scale(0.000366322)"/>
</pattern>
<pattern id="pattern4" patternContentUnits="objectBoundingBox" width="0.313409" height="0.313505">
<use xlink:href="#image1_459:2691" transform="scale(0.00142459)"/>
</pattern>
<pattern id="pattern5" patternContentUnits="objectBoundingBox" width="0.313409" height="0.313505">
<use xlink:href="#image2_459:2691" transform="scale(0.00142459)"/>
</pattern>
<pattern id="pattern6" patternContentUnits="objectBoundingBox" width="1" height="1">
<use xlink:href="#image0_459:2691" transform="translate(-0.250227) scale(0.000366322)"/>
</pattern>
<pattern id="pattern7" patternContentUnits="objectBoundingBox" width="0.325639" height="0.32574">
<use xlink:href="#image1_459:2691" transform="scale(0.00148018)"/>
</pattern>
<pattern id="pattern8" patternContentUnits="objectBoundingBox" width="0.325639" height="0.32574">
<use xlink:href="#image2_459:2691" transform="scale(0.00148018)"/>
</pattern>
<pattern id="pattern9" patternContentUnits="objectBoundingBox" width="1" height="1">
<use xlink:href="#image0_459:2691" transform="translate(-0.250227) scale(0.000366322)"/>
</pattern>
<pattern id="pattern10" patternContentUnits="objectBoundingBox" width="0.397358" height="0.39748">
<use xlink:href="#image1_459:2691" transform="scale(0.00180617)"/>
</pattern>
<pattern id="pattern11" patternContentUnits="objectBoundingBox" width="0.397358" height="0.39748">
<use xlink:href="#image2_459:2691" transform="scale(0.00180617)"/>
</pattern>
<pattern id="pattern12" patternContentUnits="objectBoundingBox" width="1" height="1">
<use xlink:href="#image0_459:2691" transform="translate(-0.250227) scale(0.000366322)"/>
</pattern>
<pattern id="pattern13" patternContentUnits="objectBoundingBox" width="0.417225" height="0.417354">
<use xlink:href="#image1_459:2691" transform="scale(0.00189648)"/>
</pattern>
<pattern id="pattern14" patternContentUnits="objectBoundingBox" width="0.417225" height="0.417354">
<use xlink:href="#image2_459:2691" transform="scale(0.00189648)"/>
</pattern>
<pattern id="pattern15" patternContentUnits="objectBoundingBox" width="1" height="1">
<use xlink:href="#image0_459:2691" transform="translate(-0.250227) scale(0.000366322)"/>
</pattern>
<pattern id="pattern16" patternContentUnits="objectBoundingBox" width="0.542732" height="0.542899">
<use xlink:href="#image1_459:2691" transform="scale(0.00246696)"/>
</pattern>
<pattern id="pattern17" patternContentUnits="objectBoundingBox" width="0.542732" height="0.542899">
<use xlink:href="#image2_459:2691" transform="scale(0.00246696)"/>
</pattern>
<pattern id="pattern18" patternContentUnits="objectBoundingBox" width="1" height="1">
<use xlink:href="#image0_459:2691" transform="translate(-0.250227) scale(0.000366322)"/>
</pattern>
<pattern id="pattern19" patternContentUnits="objectBoundingBox" width="0.580487" height="0.580666">
<use xlink:href="#image1_459:2691" transform="scale(0.00263858)"/>
</pattern>
<pattern id="pattern20" patternContentUnits="objectBoundingBox" width="0.580487" height="0.580666">
<use xlink:href="#image2_459:2691" transform="scale(0.00263858)"/>
</pattern>
<pattern id="pattern21" patternContentUnits="objectBoundingBox" width="0.393436" height="0.253258">
<use xlink:href="#image2_459:2691" transform="scale(0.00178835 0.00115117)"/>
</pattern>
<clipPath id="clip0_459:2691">
<rect width="824" height="869" fill="white"/>
</clipPath>
</defs>
</svg>