<svg width="6000" height="6000" viewBox="0 0 424 363" fill="none" xmlns="http://www.w3.org/2000/svg">
<g>
<path fill-rule="evenodd" clip-rule="evenodd" d="M142.552 211.097L142.478 211.671L142.366 214.396L142.453 214.714L142.639 215.031L143.05 215.532L143.286 215.948L143.473 216.62L143.51 217.048L143.535 218.331L143.51 218.612L143.436 218.893L143.311 219.101L143.137 219.272L142.938 219.394L142.714 219.504L142.453 219.577L140.637 219.614L140.376 219.712L139.878 220.103L139.505 220.481L138.883 221.263L138.137 222.583L137.814 223.353L137.726 223.597L137.677 223.879L137.652 224.184L137.764 224.477L138 224.746L138.547 225.003L138.945 225.1L139.281 225.125L140.065 224.99L140.301 225.052L140.45 225.259L140.5 225.956L140.6 226.225L141.284 226.677L141.483 226.921L141.557 227.3L141.644 228.217L141.781 228.473L141.98 228.718L142.44 228.95L142.801 229.06L145.861 229.231L146.147 229.292L146.396 229.438L147.888 231.186L148.075 231.504L148.697 232.958L148.784 233.483L148.747 233.85L148.548 233.972L148.336 234.045L147.926 234.094L146.122 233.886L145.562 233.96L145.102 234.168L144.891 234.29L144.717 234.449L144.443 234.864L144.194 235.316L143.883 236.037L143.535 237.1L143.448 237.308L143.249 237.589L143.112 237.711L142.503 238.017L142.366 238.224V238.591L142.465 239.092L142.851 239.935L144.754 243.1L144.941 243.565L144.99 243.833L145.003 244.127L145.04 244.395L145.127 244.725L145.463 245.605L145.413 245.898L145.289 246.118L144.169 246.986L144.02 247.169L143.908 247.389L143.921 247.719L144.082 248.11L145.363 249.98L145.538 250.127L145.737 250.2L146.048 250.09L146.433 249.711L146.57 249.516L146.881 249.137L147.217 248.807L147.416 248.697L147.64 248.611L149.132 248.624L149.257 248.562L149.393 248.44L149.48 248.208L149.543 247.927L149.667 246.974L149.729 246.668L149.816 246.4L149.965 246.204L150.177 246.094L151.483 245.837L151.856 245.923L152.329 246.143L153.162 246.729L154.306 247.243L154.505 247.487L154.642 247.951L154.704 248.953L154.754 249.222L154.916 249.454L155.177 249.674L155.712 249.894L156.06 249.931H156.384L157.801 249.418L158.038 249.369L158.324 249.54L158.61 249.882L159.692 251.947L160.687 253.499L160.899 253.731L161.309 253.988L165.799 255.393L167.329 256.261L167.827 256.444L168.063 256.469L168.262 256.383L168.448 256.236L168.598 256.053L169.157 255.247L169.307 255.088L169.506 255.014L169.705 255.076L171.123 256.029L171.297 256.224L171.409 256.469L171.421 256.884L171.322 257.141L171.085 257.617L171.073 257.923L171.147 258.289L172.59 260.599L172.951 260.929L173.287 261.124L174.804 261.43H177.143L177.416 261.503L177.665 261.686L178.1 262.322L178.585 263.177L178.66 263.495L178.71 263.886L178.685 264.57L178.623 264.986L178.536 265.328L178.411 265.548L178.237 265.707L178.001 265.792L172.74 266.037L172.491 266.122L172.329 266.281L172.205 266.513L171.894 267.601L171.881 267.906L171.956 268.2L172.851 269.018L172.988 269.214L173.075 269.458L173.013 269.8L172.864 270.02L172.006 270.863L172.242 271.389L172.851 272.195L174.779 274.175L176.533 275.544L176.769 275.861L177.043 276.497L177.13 276.924L177.143 277.291L177.093 277.572L177.006 277.829L176.906 278.073L176.782 278.293L176.011 279.185L175.899 279.381L175.886 279.588L176.546 280.114L182.23 283.548L182.479 284.11V284.537L182.578 285.063L182.877 285.808L183.15 286.114L183.436 286.236L185.775 286.297L186.036 286.395L186.26 286.517L186.446 286.676L186.596 286.847L186.757 287.177L187.267 288.497L187.516 288.888L187.777 289.156L189.008 289.67L193.399 292.37L193.735 292.688L193.996 293.079L194.108 293.274L194.17 293.47L194.195 293.727L194.158 294.008L193.984 294.582L193.834 294.9L193.536 295.376L193.424 295.596L193.337 295.853L193.287 296.171L193.324 296.525L193.424 297.124L193.449 297.722L193.374 299.604L193.461 300.496L193.548 304.028L193.598 304.504L193.698 304.724L193.834 304.908L194.693 305.714L195.277 306.411L196.372 307.303L196.521 307.486L196.658 307.669L196.77 307.865L196.807 308.158L196.757 308.549L196.509 309.221L196.322 309.588L196.148 309.869L193.511 313.242L193.424 313.547L193.399 313.926L193.499 314.512L193.785 315.392L193.797 315.759L193.785 316.211L193.548 317.506L193.2 318.704L192.989 319.168L192.864 319.376L192.591 319.755L192.504 319.95V320.17L192.678 320.439L193.014 320.842L194.369 322.125L194.643 322.48L194.867 322.883L194.954 323.323L194.991 323.946L194.917 326.048L194.817 326.805L194.431 327.844L194.208 328.345L193.984 328.675L193.772 328.785L193.225 328.846L192.79 329.946L192.914 335.323L192.926 335.714V335.738H192.914L191.359 335.701L190.538 336.129L189.307 337.473L188.337 337.938L187.416 338.011L184.792 337.571L183.026 338.133L182.056 338.243L181.459 337.681L181.72 336.496L182.367 334.993L182.503 333.771L181.197 333.453L180.115 333.587L179.232 333.49L178.585 332.879L178.225 331.51L178.25 329.628L178.362 328.125L178.088 327.025L176.894 326.341L175.078 325.95L171.16 325.803L166.682 327.343L163.759 326.867L155.376 323.201L145.612 322.907L144.99 322.577L144.443 321.832L144.344 321.148L144.48 320.5L144.468 319.999L143.933 319.73L133.622 319.303L132.291 318.728L129.43 316.199L128.099 315.905L125.015 316.003L115.562 314.231L111.818 314.977L105.773 314.879L97.1163 314.732L89.6286 312.728L87.6261 312.789L85.6111 313.437L81.631 315.502L69.1681 317.494L68.2476 317.457L65.5237 316.798L54.4912 317.653L53.5459 318.007L52.5882 318.985L50.9712 321.355L50.2871 322.724L49.2299 327.319L47.9861 329.054L42.9611 332.463L36.3316 338.341L34.553 338.634L33.2968 337.461L32.053 335.97L30.2992 335.274L29.1922 335.164L26.0578 334.235L25.013 334.211L20.697 335.323L20.1622 335.616L19.702 336.092L19.1672 337.009L19.1174 337.571L19.3786 338.133L20.5851 341.506L20.6846 342.178L20.4856 343.253L20.1 343.449L19.6896 343.143L19.5154 342.215L18.9184 341.848L18.2094 341.591L17.6622 340.492L17.9607 340.528L18.2592 340.492L17.289 338.842L16.9034 337.864L16.7542 336.862L16.9905 334.968L16.9283 334.284L16.4184 333.746V333.221L16.8164 333.172L17.09 333.001L17.6622 332.304L17.4383 331.999L17.1646 331.522L17.0278 331.07L17.202 330.875L17.6124 330.679L17.5129 330.239L17.2144 329.75L17.0527 329.384L17.3015 327.759L17.4756 327.013L17.6622 326.5L18.4084 325.645L19.3413 325.082L20.1995 324.252L20.6846 322.614L19.8761 321.527L19.1796 320.243L19.6771 319.669L19.8513 318.129L20.3861 317.836L20.3612 317.518L20.3363 317.433H20.2493L20.0751 317.36L20.3737 316.565L20.3985 314.28L20.6846 312.973L21.5304 311.018L22.115 310.113L22.8115 309.6L22.3015 308.39L21.6672 305.714L21.3065 304.834L21.2568 304.016L21.0826 303.197L20.5353 302.818L20.1249 302.635L19.8513 302.195L19.6274 301.608L19.3413 301.058L18.5079 300.57L16.3935 300.631L15.5353 300.362L14.3039 297.93L14.478 297.686L14.6024 296.83L14.4407 296.305L13.6944 297.014L13.3959 296.672L12.9606 296.305L12.7865 295.999L12.177 296.72L11.7541 296.647L11.3561 296.232L10.8088 295.999L10.162 296.232L10.0376 296.122L10.361 295.462V295.022L9.42819 294.924L6.67938 293.91L6.09479 293.323L5.4107 293.592L2.22657 292.737L1.21908 292.114L1.57979 290.843L1.43053 289.914L0.945448 289.205L0.622059 288.936L0.29867 288.668L0.149414 288.631L2.21413 284.488L3.03504 283.242L4.81368 281.091L10.2118 272.904L14.1173 269.703L18.0477 267.442L25.4608 265.365L31.344 261.405L33.1102 259.255L33.7197 256.188L33.6326 254.025L34.4286 253.866L40.3243 254.342L40.7969 254.171L41.2198 253.927L42.5507 252.79L43.5581 252.179L43.9686 252.106L44.2671 252.155L44.4412 252.314L44.5656 252.509L44.7646 252.949L45.0134 253.365L45.3741 253.585L45.9338 253.792L47.7995 254.11L48.2722 254.098L50.113 253.426L50.4737 253.401L50.6976 253.45L50.7971 253.56L50.8593 253.756L50.8841 254.025L50.9712 254.293L51.1702 254.526L51.4065 254.562L51.6304 254.489L51.8294 254.379L52.016 254.22L52.2896 254.049L53.3842 253.707L53.8071 253.682L54.1429 253.744L54.3668 253.866L56.3569 255.259L56.73 255.638L56.9415 255.809L57.9365 256.298L59.0684 256.481L60.1629 256.42L61.1455 256.139L61.4565 255.968L61.6679 255.809L61.7674 255.638L61.8296 255.479L61.8794 255.259L61.9042 254.99L61.8669 254.416L61.755 253.878L61.5684 253.426L61.2077 252.815L61.1331 252.607L61.1455 252.387L61.4813 251.74L61.8421 250.713L61.9664 250.493L62.1157 250.31L63.061 249.601L63.1729 249.406L63.2227 249.137L63.1854 248.88L63.1107 248.636L62.9988 248.428L62.5261 247.903L62.4018 247.719L62.3769 247.512L62.4764 247.34L63.3968 246.277L63.5336 246.07L63.8321 245.776L64.2799 245.434L65.2998 244.896L65.76 244.579L66.0585 244.273L66.1332 244.017L66.1456 243.736L66.0959 243.479L65.9342 243.308L65.6854 243.21L64.4913 243.039L64.255 242.929L64.0685 242.782L64.0063 242.575L64.0685 242.343L64.2053 242.159L64.3794 241.988L66.5312 240.778L67.1407 240.558L67.576 240.522L70.3248 241.903L72.7005 242.477L74.1557 242.44L74.6035 242.33L74.9144 242.171L75.0512 241.976L75.1756 241.744L75.4741 240.913L75.6731 240.595L76.0587 240.167L76.3945 240.021L76.7428 239.972L77.8747 240.253L78.3473 240.461L78.7329 240.766L79.0438 241.121L79.1682 241.316L79.3921 241.744L79.5787 242.22L79.7155 242.709L79.7652 242.966L79.7777 243.235V243.503L79.7279 243.772L79.5911 244.298L79.5662 244.53L79.6658 244.701L79.815 244.823L81.6807 245.593L82.2155 245.666L82.5016 245.581L82.7131 245.41L82.825 245.19L83.1733 244.444L83.3474 244.188L83.6459 243.907L83.9196 243.858L84.1683 243.907L84.3549 244.029L84.4295 244.2L84.4046 244.432L83.7703 246.583L83.7081 246.852L83.6832 247.12L83.7081 247.365L83.9693 247.731L84.0066 247.988L83.9817 248.257L83.9071 248.538L83.8698 248.819L83.8449 249.088L83.9942 249.332L84.2927 249.516L84.8648 249.687L85.1882 249.638L85.437 249.516L85.6236 249.332L85.8474 249.173L87.6261 248.477L88.136 248.416L88.646 248.452L89.2928 248.636L89.7032 248.66L90.0142 248.624L90.2256 248.501L90.3749 248.318L91.0963 247.756L92.0913 247.377L92.6262 247.292L92.9869 247.353L93.0739 247.585L93.161 248.135L93.2729 248.342L93.4222 248.526L93.8327 248.795L94.5168 249.1L95.2009 249.259L95.574 249.222L95.8352 249.112L96.0342 248.966L96.1959 248.819L96.3327 248.624L96.3825 248.367L96.3949 248.086L96.3327 247.829L96.1835 247.634L95.4496 247.328L95.2755 247.157L95.1635 246.949L95.0889 246.705L95.0516 246.461L95.064 246.204L95.1511 245.996L95.3252 245.825L95.6859 245.544L95.7979 245.361L95.7854 245.141L95.6859 244.933L94.9894 244.298L94.8526 244.102L94.7531 243.882L94.6909 243.638L94.6785 243.332L94.7904 242.99L95.0267 242.624L95.6486 242.208L95.9969 242.147L96.37 242.22L96.7432 242.379L97.6511 242.465L98.3352 242.281L99.4671 241.805L99.8402 241.414L100.002 241.084V240.803L100.064 240.534L100.164 240.302L100.3 240.094L100.786 239.556L101.059 239.165L101.569 238.286L102.029 237.626L102.303 237.32L102.49 237.174L104.778 235.829L105.077 235.451L105.201 235.218L106.296 232.09L107.714 229.426L108.087 228.375L108.124 228.094L108.149 227.789L108.124 227.52L108.087 227.251L108 227.007L107.776 226.579L107.651 226.371L107.191 225.834L107.005 225.687L106.768 225.565L105.873 225.382L105.674 225.235L105.587 225.003L105.611 224.734L105.723 224.477L105.898 224.245L106.83 223.39L107.577 222.864L107.937 222.547L108.161 222.241L108.211 221.972V221.691L108.161 221.435L108.037 221.215L107.863 221.056L107.017 220.518L106.855 220.347L106.743 220.139L106.731 219.87L107.005 218.673L107.129 218.331L107.39 217.927L107.689 217.781L109.02 217.634L109.318 217.5L109.529 217.316L109.629 217.084L109.691 216.791L109.927 214.604L110.015 214.115L110.064 213.944L110.238 213.492L111.52 211.317L111.731 210.84L111.818 210.583L111.98 210.253L112.216 209.875L112.763 209.288L113.124 209.032L113.447 208.897L114.007 208.983L114.268 209.08L114.617 209.141L115.077 209.129L116.47 208.812L116.893 208.787L117.154 208.873L117.378 208.983L117.962 209.435L118.273 209.496L118.696 209.471L119.418 209.3L119.865 209.276L120.214 209.325L120.413 209.484L120.574 209.655L120.711 209.85L120.885 210.009L121.097 210.144L121.333 210.241L127.589 210.754L128.522 210.51L129.505 210.437L131.868 211.011L135.662 211.219L136.756 211.561L137.689 212.025L137.963 212.111L139.12 212.013L142.552 211.097Z" fill="white"/>
<path fill-rule="evenodd" clip-rule="evenodd" d="M363.627 228.901L363.764 229.646L363.863 230.44L363.714 231.174L363.291 231.65L362.196 231.858L361.749 232.066L359.535 235.548L358.54 236.563L361.898 239.263L362.632 240.644L363.826 244.224L364.796 245.703L366.127 246.986L367.582 247.927L368.9 248.379L369.983 248.526L370.331 249.088L370.43 250.004L370.828 251.214L371.463 252.057L371.997 252.436L372.458 252.986L372.843 254.391L372.881 257.434L371.886 258.839L368.9 260.501V260.513L369.398 261.613L371.363 264.24L372.682 267.136L373.266 268.016L374.871 269.397L375.468 270.155L375.269 270.876L374.672 271.022L373.055 270.643L372.396 270.692L372.582 270.937L373.129 271.829L372.346 272.159L371.997 272.745L372.109 273.43L372.669 274.126L373.664 274.835L373.726 276.595L373.453 278.721L373.44 280.541L373.764 281.324L374.224 281.935L374.547 282.704L374.572 284L374.323 284.965L373.851 285.833L373.291 286.554L372.744 287.067L374.062 288.998L374.796 289.804L375.592 290.391L376.351 290.659L377.893 290.928L378.602 291.332L378.142 291.918L377.831 292.822L377.719 293.861L377.843 294.851L378.167 295.596L378.577 296.024L380.804 297.551L381.401 298.553L381.587 299.959L381.488 302.048L376.413 302.317L368.639 300.838L364.572 300.851L361.089 302.268L360.194 303.429L359.51 304.847L358.776 306.032L357.744 306.472L356.674 306.069L354.646 304.358L353.564 303.747L351.86 303.539L345.778 303.893L344.684 304.236L343.987 304.993L344.248 306.191L344.024 306.545L343.9 306.887L343.8 307.229L343.651 307.584L344.945 307.755L345.38 308.696L344.982 309.612L343.825 309.698L343.527 309.295L343.278 309.185L343.017 309.295L342.656 309.576L342.308 310.016L342.221 310.455L342.246 310.81L342.233 311.042L341.786 311.653L341.288 312.178L340.741 312.618L340.106 313.009L338.85 313.486L338.825 313.743L338.95 314.17L339.186 314.464V314.952L338.589 315.771L338.191 316.211L337.805 316.394L336.487 316.272L336.126 316.394L335.965 316.846L335.94 317.506L335.815 318.105L334.907 318.582L334.621 319.046L334.41 319.51L334.161 319.73L334.037 319.975L333.079 321.209L332.793 321.722L332.594 321.93L332.606 322.199L332.942 322.871L332.979 323.97L332.183 324.765L331.201 325.412L330.653 326.023L331.537 326.463L331.897 326.5V327.025L331.4 327.551L331.263 328.37L331.201 329.237L330.952 329.909L330.467 330.129L329.086 330.178L328.527 330.349L328.788 331.29L328.265 332.781L328.527 333.746L328.228 334.04L327.867 334.565L327.631 334.748L327.755 335.017L327.93 335.701L327.357 335.946L326.089 337.107V337.62L326.947 338.353L327.32 338.585V339.013L326.972 339.111L326.798 339.233L326.648 339.367L326.412 339.538V339.978L326.922 340.638L328.402 341.054L329.136 341.408L328.8 342.19L328.576 342.52L328.203 342.838L328.738 343.241L329.198 343.705L329.397 344.231L329.136 344.793L329.36 345.636L329.733 346.162L330.181 346.479L330.653 346.663V347.188L330.056 347.078L329.559 347.237L329.223 347.738L329.136 348.618L329.31 349.449L329.646 349.62L330.119 349.644L330.653 350.047L330.852 350.512L331.288 352.479L331.512 352.858L331.823 353.261L331.872 353.628L331.288 353.86L331.549 355.84L330.318 357.11L328.962 358.076L328.838 359.102L328.041 360.471L327.93 360.605L327.867 362.267L327.842 362.34L327.656 362.732L327.171 362.854L326.835 362.194L326.337 361.644L325.778 361.277L325.181 361.131L324.559 361.204L323.862 360.984L322.88 359.518L322.221 358.907L321.574 358.748L320.255 358.76L319.584 358.491L318.987 357.966L317.631 356.243L317.307 355.51L317.432 355.436L317.793 353.982L317.88 353.432V352.699L317.83 352.149L317.705 351.685L317.444 351.208L316.872 350.683L314.633 349.608L314.011 348.96L312.345 346.711L311.101 345.807L309.832 345.453L303.626 345.624L302.606 345.917L299.919 347.31L299.359 347.347L298.65 346.87L298.19 346.834L297.631 347.225L296.884 348.569L296.436 349.058L295.64 349.265L291.623 348.593L291.063 347.836L290.665 346.773L289.931 345.502L289.173 344.988L288.202 344.842L287.17 345.001L286.299 345.367L285.379 346.186L284.757 347.102L284.085 347.897L283.066 348.312L281.909 348.434L281.312 348.74L280.864 349.571L280.217 351.269L279.571 352.406L278.687 352.418L276.747 351.624L275.727 351.954L274.558 352.956L273.998 353.445L273.078 353.762L272.058 353.188L271.511 351.929L271.138 350.414L270.64 349.058L269.732 348.007L268.998 347.469L268.7 346.675L269.11 344.866L268.936 343.033L268.426 341.885L266.946 339.673L266.013 337.131L265.453 336.264L264.384 335.604L262.605 335.176L261.697 335.213L260.826 335.518L259.943 336.374L258.886 338.598L258.04 339.502L256.884 339.942L254.147 339.966L252.841 340.235L251.436 340.98L250.018 342.08L248.774 343.583L247.903 345.502L247.779 346.687L247.878 349.351L247.667 350.377L246.858 351.269L246.398 350.548L246.075 349.241L245.764 348.386L245.192 348.324L244.607 348.703L243.973 348.984L243.239 348.63L242.804 347.897L242.53 346.907L241.834 342.997L241.722 341.567L241.324 340.614L240.179 340.162L236.199 339.318L235.005 339.343L233.848 339.734L231.647 341.213L230.49 342.312L229.93 342.606L229.346 342.386L229.097 341.824L228.624 339.893L228.338 339.147L227.779 338.549L226.51 337.767L225.975 337.241L225.602 336.447L225.565 335.811L225.589 335.213L225.415 334.504L224.769 333.771L223.861 333.71L222.866 334.186L221.92 335.042L221.05 336.349L219.607 339.074L218.55 340.027L217.691 340.333L213.35 340.321L212.542 340.113L211.709 339.673L209.034 336.801L208.077 336.288L207.057 336.459L206.236 337.217L205.651 338.402L205.378 339.807L205.403 340.699L205.514 341.457L205.552 342.227L205.34 343.156L205.116 343.608L203.039 346.369L202.579 346.809L201.87 346.907L201.248 346.638L200.527 346.076L199.93 345.428L199.743 345.05L199.656 344.866L201.124 341.347L201.472 339.575L200.912 338.121L200.216 337.73L197.716 337.644L192.927 335.738V335.714L192.915 335.323L192.79 329.946L193.226 328.846L193.773 328.785L193.984 328.675L194.208 328.345L194.432 327.844L194.818 326.805L194.917 326.048L194.992 323.946L194.955 323.323L194.868 322.883L194.644 322.48L194.37 322.125L193.014 320.842L192.678 320.439L192.504 320.17V319.95L192.591 319.755L192.865 319.376L192.989 319.168L193.201 318.704L193.549 317.506L193.785 316.211L193.798 315.759L193.785 315.392L193.499 314.512L193.4 313.926L193.425 313.547L193.512 313.242L196.149 309.869L196.323 309.588L196.509 309.221L196.758 308.549L196.808 308.158L196.771 307.865L196.659 307.669L196.522 307.486L196.373 307.303L195.278 306.411L194.693 305.714L193.835 304.908L193.698 304.724L193.599 304.504L193.549 304.028L193.462 300.496L193.375 299.604L193.45 297.722L193.425 297.124L193.325 296.525L193.288 296.171L193.338 295.853L193.425 295.596L193.537 295.376L193.835 294.9L193.984 294.582L194.159 294.008L194.196 293.727L194.171 293.47L194.109 293.274L193.997 293.079L193.736 292.688L193.4 292.37L189.009 289.67L187.778 289.156L187.517 288.888L187.268 288.497L186.758 287.177L186.596 286.847L186.447 286.676L186.26 286.517L186.037 286.395L185.775 286.297L183.437 286.236L183.151 286.114L182.877 285.808L182.579 285.063L182.479 284.537V284.11L182.23 283.548L185.054 279.588L185.551 278.379L185.278 277.706L185.129 277.23L185.029 276.717L184.992 276.411L184.979 276.045L185.041 275.531L185.203 275.287L185.452 275.165L186.683 275.104L187.007 274.994L187.168 274.774L187.417 273.833L187.741 272.855L188.039 272.476L188.362 272.293L189.519 272.354L189.718 272.476L189.843 272.684L189.917 272.916L190.004 273.381L190.079 273.491L190.178 273.478L193.213 270.912L193.611 270.778L193.86 270.827L194.519 272.085L194.606 272.305L194.83 272.758L194.955 272.929L195.116 273.039L195.203 272.892L195.477 272.134L195.838 271.487L196.149 271.254L196.46 271.181L196.708 271.279L196.845 271.45L196.907 271.707V272L196.795 273.686V274.456L196.808 274.737L196.858 274.994L196.957 275.214L197.081 275.409L197.218 275.568L198.686 276.729L200.95 277.926L201.211 278L201.497 278.049L205.005 277.951L206.447 278.269L211.373 277.816L211.945 277.572L212.094 277.364L212.331 277.181L212.89 276.888L213.077 276.729L213.189 276.509L213.226 276.252L213.214 275.984L213.102 274.896L213.039 274.652L212.965 274.419L212.542 273.637L212.517 273.503L212.592 273.246L212.791 272.929L213.301 272.501L213.661 272.318L213.997 272.232L217.803 273.063L218.276 273.283L218.438 273.405L218.587 273.564L218.612 273.613L218.86 274.309L219.258 275.165L219.632 275.776L219.98 275.922L220.502 275.996L229.657 274.981L232.48 272.538L232.617 272.342L232.704 272.11L232.716 271.853L232.692 271.303L232.43 269.165L232.343 267.76L232.418 265.365L232.505 264.411L232.555 264.106L232.804 263.752L233.214 263.385L234.184 262.823L234.595 262.505L234.744 262.224L234.619 262.041L234.557 261.796L234.495 261.625L235.179 260.758L235.353 260.672L238.139 260.403L240.304 260.745L240.639 260.721L240.95 260.599L241.286 260.306L241.51 260.061L241.784 259.866L242.107 259.756L242.729 259.792L243.973 260.134L244.259 260.122L244.557 260.012L244.881 259.707L245.229 259.487L245.664 259.328L247.779 259.304L248.127 259.181L248.525 258.803L248.948 258.277L249.197 258.143L249.558 258.069L250.652 258.118L251.038 258.008L251.373 257.703L251.56 257.422L251.697 257.128L251.759 256.86V256.591L251.684 256.359L251.523 256.175L251.299 256.041L250.192 255.711L249.98 255.577L249.831 255.442L249.732 255.295L249.682 255.198V255.063L249.732 254.868L249.868 254.721L250.067 254.562L250.876 254.122L257.132 252.155L257.369 251.703L257.468 251.434L257.518 251.141L257.568 250.236L257.505 247.328L257.53 247.047L257.742 246.803L258.152 246.705L262.568 246.583L262.854 246.448L263.103 246.033L263.202 245.691L263.277 245.373L263.438 245.104L263.724 244.909L264.595 244.518L264.819 244.31L265.391 243.503L266.448 241.768L266.772 241.414L266.958 241.255L267.356 241.157L267.929 241.108L269.769 241.255L274.123 242.55L274.272 242.672L274.309 242.795L274.297 243.039L274.185 243.601L274.172 243.87L274.309 244.004L274.57 244.053L276.274 243.332L276.498 243.076L276.598 242.782L276.573 242.526L276.449 242.33L276.1 242.013L276.013 241.829L276.063 241.622L276.2 241.438L276.473 241.328L276.834 241.292L277.481 241.438L277.817 241.597L278.041 241.793L278.6 242.844L278.737 243.039L278.961 243.149L279.272 243.161L280.964 242.184L281.312 241.89L281.635 241.316L281.822 241.145L282.071 241.023L283.003 240.791L287.755 240.852L288.165 240.949L288.476 241.072L288.638 241.243L289.023 241.548L289.26 241.67L289.521 241.768H289.869L290.242 241.683L290.74 241.389L291.001 241.133L291.188 240.888L291.71 239.764L291.747 239.618L291.772 239.398L291.685 239.19L291.523 239.019L289.695 238.029L289.322 237.748L289.16 237.589L288.849 237.186L288.513 236.844L287.22 236.049L287.058 235.903L287.071 235.683L287.17 235.499L288.066 234.302L288.178 234.058L288.277 233.801L288.302 233.52L288.29 233.251L288.252 232.982L288.19 232.738L288.078 232.53L287.904 232.396L287.431 232.273L287.245 232.139L287.133 231.931L286.859 230.954L286.809 230.709L286.772 230.489L286.834 230.282L286.921 230.184L288.277 229.561L288.489 229.28L288.526 229.035L288.389 228.852L287.879 228.388L287.854 228.229L288.29 228.155L292.096 228.522L292.344 228.302L292.494 228.07L292.581 227.838L292.531 227.642L292.369 227.483L291.635 227.117L291.461 226.958L291.349 226.762L291.461 226.494L291.722 226.237L292.295 225.87L292.531 225.54L292.68 225.198L292.829 224.013L292.767 223.781L292.643 223.573L291.934 222.913L291.785 222.742L291.71 222.559L291.897 222.412L292.307 222.388L293.215 222.571L293.688 222.583L294.023 222.375L294.073 222.131L294.048 221.862L293.912 221.373L293.14 219.602L292.966 219.125L292.73 218.135L292.407 217.194L292.344 216.95L292.245 216.437L292.195 215.875L292.22 215.581L292.319 214.628L292.382 214.335L292.494 214.078L292.63 213.871L293.327 213.211L293.874 212.343L294.036 212.172L294.223 212.025L294.446 211.915L294.77 211.903L295.168 211.976L295.864 212.38L296.2 212.661L296.573 213.113L296.772 213.235L297.021 213.26L297.307 213.113L297.718 212.783L297.979 212.734L298.277 212.832L298.65 213.211L298.762 213.516L298.75 213.797L298.899 213.993L299.285 214.139L300.33 214.103L300.815 213.956L301.15 213.773L301.3 213.565L301.81 213.04L301.996 212.905L302.444 212.71L302.73 212.722L303.053 212.844L303.464 213.223L303.862 213.761L304.21 213.993L305.964 214.616L306.474 214.885L306.772 215.166L306.81 215.728L306.835 215.997L306.959 216.204L307.295 216.327L308.738 216.424L309.285 216.547L309.72 216.864L309.894 217.133L310.093 217.622L310.74 219.797L310.927 220.237L311.225 220.42L311.673 220.567L313.8 220.542L314.26 220.518L314.633 219.834L315.305 219.614L316.959 219.577L319.223 218.612L320.044 218.587L319.882 217.976L319.795 217.378L319.745 216.449L320.044 216.314L320.653 216.229L320.84 216.082L320.989 215.887L321.114 215.642L321.201 215.374L321.325 215.154L321.499 215.019L321.798 214.995L322.954 215.105L323.39 215.08L323.713 214.983L324.124 214.726L324.571 214.543L324.87 214.506L329.683 215.777L330.392 216.302L330.691 216.901L331.039 217.121L331.599 217.316L332.855 217.549L333.9 217.573L334.136 217.463L334.323 217.329L334.472 217.121L334.659 216.583L334.795 216.339L334.969 216.156L335.181 216.021L335.504 216.058L335.927 216.241L336.624 216.705L337.096 216.889L337.656 216.877L338.266 216.705L341.524 217.268L341.947 217.231L342.047 217.023L342.109 216.486L342.171 216.217L342.258 215.948L342.383 215.703L342.532 215.508L342.706 215.349L342.917 215.239L343.166 215.178L343.452 215.154L347.171 215.557L347.358 215.618L347.482 215.74L347.582 216.033L347.631 216.278L347.756 217.17L347.818 217.402L347.992 217.683L348.602 218.49L348.701 218.868L348.751 219.186L348.738 219.443L348.751 219.712L348.776 219.98L348.825 220.225L348.913 220.42L349.124 220.616L349.447 220.762L350.082 220.909L350.442 221.092L350.679 221.41L350.766 221.691L350.99 222.021L351.325 222.375L352.097 222.95L352.296 223.292L352.333 223.597L352.233 223.842L352.146 224.123L352.134 224.404L352.146 224.673L352.196 224.929L352.258 225.174L352.345 225.406L352.42 225.638L352.445 225.883L352.383 226.127L352.271 226.359L352.134 226.567L351.612 227.056L351.487 227.251L351.45 227.459L351.512 227.667L351.636 227.862L351.798 228.033L352.072 228.155L352.432 228.216L354.336 227.715L354.634 227.728L354.945 227.813L355.331 228.07L355.542 228.302L355.928 228.95L356.214 229.328L356.711 229.854L356.885 229.952H357.084L357.271 229.683L357.52 229.145L357.656 228.937L357.831 228.754L358.03 228.632L358.291 228.595L358.577 228.644L358.95 228.901L359.137 229.133L359.423 229.573L359.609 229.72L360.729 229.658L363.614 228.901H363.627Z" fill="white"/>
<path fill-rule="evenodd" clip-rule="evenodd" d="M355.528 130.568V130.58L356.858 130.959L357.58 132.462L358.612 136.299L359.197 137.215L359.744 137.802L360.217 138.498L360.54 139.696L360.851 144.083L361.324 146.185L361.983 147.309L368.898 152.722L370.043 153.663L371.125 154.152L373.438 154.739L377.157 156.791L378.538 157.085L379.769 157.121L380.254 157.366L380.764 157.952L381.1 158.795L381.399 159.883L381.784 160.751L382.332 160.958L383.438 160.201L383.675 160.115L384.06 160.384L384.123 160.641L384.11 160.983L385.13 164.918L384.906 165.492L384.819 166.042L384.807 166.592L384.744 167.154L384.235 168.791L383.513 173.044L382.73 174.901L381.013 177.699L380.603 179.52L382.493 179.557L386.312 180.828L395.64 178.433L396.635 178.628L399.247 180.498L404.807 182.025L406.387 183.162L407.78 185.056L408.414 185.447L410.628 185.349L411.536 185.483L412.407 186.009L413.24 187.096L413.563 187.634L413.675 188.196L413.563 188.746L413.24 189.272L409.944 190.97L409.633 191.263L409.583 191.85L409.72 193.133L410.18 195.161L410.976 196.677L412.021 197.801L413.24 198.583L415.466 199.622L416.511 200.404L417.208 201.736V201.748L417.506 202.212L417.842 202.347L418.203 202.188L418.563 201.748L419.347 201.614L420.118 201.736L420.765 202.102L420.653 202.713L420.392 203.471L420.616 204.277L421.126 204.436L422.469 203.96L423.029 203.972L423.837 205.622L423.763 206.245L423.178 210.962L423.75 213.259L422.879 213.919L422.171 213.858L421.499 213.528L420.753 213.357L417.656 214.029L417.805 214.261L418.178 214.945L418.364 215.202L417.17 215.898L415.765 216.167L414.359 216.021L413.24 215.434L412.108 215.776L411.76 216.632L412.158 217.426L413.178 217.634L412.742 219.051L412.145 220.42L410.715 222.766L409.919 223.621L409.185 223.988L407.581 224.513L406.138 225.796L405.018 227.385L403.812 228.558L401.498 228.509L401.262 228.778L401.2 229.169L401.101 229.462L401.088 229.646L401.113 229.988L401.063 230.33L400.852 230.538L400.69 230.525L400.292 230.415L398.688 230.623L397.543 231.503L397.133 231.723L395.603 231.662L392.369 230.354L391.075 230.501L389.919 231.088L388.861 231.198L387.817 230.941L385.528 229.609L384.956 229.475L383.364 229.633L382.904 229.462L382.195 228.338L381.722 225.332L381.125 224.073L380.341 223.634L378.389 223.609L377.518 223.438L374.819 222.387L373.911 222.314L373.028 222.57L371.349 223.462L370.291 223.524L368.165 223.096H366.05L364.371 224.403L363.55 227.898L363.6 228.815L363.625 228.9H363.612L360.727 229.658L359.607 229.719L359.421 229.572L359.135 229.132L358.948 228.9L358.575 228.644L358.289 228.595L358.028 228.631L357.829 228.754L357.654 228.937L357.518 229.145L357.269 229.682L357.082 229.951H356.883L356.709 229.853L356.212 229.328L355.926 228.949L355.54 228.301L355.329 228.069L354.943 227.813L354.632 227.727L354.334 227.715L352.43 228.216L352.07 228.155L351.796 228.033L351.634 227.862L351.51 227.666L351.448 227.458L351.485 227.251L351.61 227.055L352.132 226.566L352.269 226.359L352.381 226.126L352.443 225.882L352.418 225.638L352.343 225.405L352.256 225.173L352.194 224.929L352.144 224.672L352.132 224.403L352.144 224.122L352.231 223.841L352.331 223.597L352.294 223.291L352.095 222.949L351.323 222.375L350.988 222.021L350.764 221.691L350.677 221.41L350.44 221.092L350.08 220.909L349.445 220.762L349.122 220.615L348.911 220.42L348.823 220.224L348.774 219.98L348.749 219.711L348.736 219.442L348.749 219.186L348.699 218.868L348.6 218.489L347.99 217.682L347.816 217.401L347.754 217.169L347.629 216.277L347.58 216.033L347.48 215.74L347.356 215.617L347.169 215.556L343.45 215.153L343.164 215.177L342.915 215.239L342.704 215.349L342.53 215.507L342.381 215.703L342.256 215.947L342.169 216.216L342.107 216.485L342.045 217.023L341.945 217.23L341.522 217.267L338.264 216.705L337.654 216.876L337.094 216.888L336.622 216.705L335.925 216.241L335.502 216.057L335.179 216.021L334.967 216.155L334.793 216.338L334.657 216.583L334.47 217.12L334.321 217.328L334.134 217.463L333.898 217.573L332.853 217.548L331.597 217.316L331.037 217.12L330.689 216.9L330.39 216.302L329.681 215.776L324.868 214.505L324.569 214.542L324.122 214.725L323.711 214.982L323.388 215.08L322.952 215.104L321.796 214.994L321.497 215.019L321.323 215.153L321.199 215.373L321.112 215.642L320.987 215.886L320.838 216.082L320.651 216.228L320.042 216.314L319.743 216.448L319.793 217.377L319.88 217.976L320.042 218.587L319.221 218.611L316.957 219.577L315.303 219.613L314.631 219.833L314.258 220.517L313.798 220.542L311.671 220.566L311.223 220.42L310.925 220.236L310.738 219.797L310.091 217.621L309.892 217.133L309.718 216.864L309.283 216.546L308.736 216.424L307.293 216.326L306.957 216.204L306.833 215.996L306.808 215.727L306.77 215.165L306.472 214.884L305.962 214.615L304.208 213.992L303.86 213.76L303.462 213.222L303.051 212.843L302.728 212.721L302.442 212.709L301.994 212.905L301.808 213.039L301.298 213.564L301.148 213.772L300.813 213.955L300.328 214.102L299.283 214.139L298.897 213.992L298.748 213.797L298.76 213.516L298.648 213.21L298.275 212.831L297.977 212.733L297.716 212.782L297.305 213.112L297.019 213.259L296.77 213.235L296.571 213.112L296.198 212.66L295.862 212.379L295.166 211.976L294.768 211.903L294.444 211.915L294.221 212.025L294.034 212.171L293.872 212.342L293.325 213.21L292.628 213.87L292.492 214.078L292.38 214.334L292.317 214.628L292.218 215.581L292.193 215.874L292.243 216.436L292.342 216.949L292.405 217.194L292.728 218.135L292.964 219.124L293.138 219.601L293.91 221.373L294.046 221.862L294.071 222.13L294.021 222.375L293.686 222.583L293.213 222.57L292.305 222.387L291.895 222.412L291.708 222.558L291.783 222.741L291.932 222.913L292.641 223.572L292.765 223.78L292.827 224.012L292.678 225.198L292.529 225.54L292.293 225.87L291.72 226.236L291.459 226.493L291.347 226.762L291.459 226.957L291.633 227.116L292.367 227.483L292.529 227.642L292.579 227.837L292.492 228.069L292.342 228.301L292.094 228.521L288.288 228.155L287.852 228.228L287.877 228.387L288.387 228.851L288.524 229.035L288.487 229.279L288.275 229.56L286.919 230.183L286.832 230.281L286.77 230.489L286.807 230.709L286.857 230.953L287.131 231.931L287.243 232.138L287.429 232.273L287.902 232.395L288.076 232.529L288.188 232.737L288.25 232.982L288.288 233.25L288.3 233.519L288.275 233.8L288.176 234.057L288.064 234.301L287.168 235.499L287.069 235.682L287.056 235.902L287.218 236.049L288.511 236.843L288.847 237.185L289.158 237.588L289.32 237.747L289.693 238.028L291.521 239.018L291.683 239.189L291.77 239.397L291.745 239.617L291.708 239.764L291.186 240.888L290.999 241.132L290.738 241.389L290.24 241.682L289.867 241.768H289.519L289.258 241.67L289.021 241.548L288.636 241.242L288.474 241.071L288.163 240.949L287.753 240.851L283.001 240.79L282.069 241.022L281.82 241.144L281.633 241.316L281.31 241.89L280.962 242.183L279.27 243.161L278.959 243.148L278.735 243.038L278.598 242.843L278.039 241.792L277.815 241.597L277.479 241.438L276.832 241.291L276.471 241.328L276.198 241.438L276.061 241.621L276.011 241.829L276.098 242.012L276.447 242.33L276.571 242.525L276.596 242.782L276.496 243.075L276.272 243.332L274.568 244.053L274.307 244.004L274.17 243.869L274.183 243.601L274.295 243.038L274.307 242.794L274.27 242.672L274.121 242.55L269.767 241.254L267.927 241.108L267.354 241.157L266.956 241.254L266.77 241.413L266.446 241.768L265.389 243.503L264.817 244.309L264.593 244.517L263.722 244.908L263.436 245.104L263.275 245.372L263.2 245.69L263.101 246.032L262.852 246.448L262.566 246.582L258.15 246.704L257.74 246.802L257.528 247.047L257.503 247.328L257.566 250.236L257.516 251.14L257.466 251.433L257.367 251.702L257.13 252.154L250.874 254.122L250.066 254.562L249.866 254.721L249.73 254.867L249.68 255.063V255.197L249.73 255.295L249.829 255.442L249.978 255.576L250.19 255.71L251.297 256.04L251.521 256.175L251.682 256.358L251.757 256.59V256.859L251.695 257.128L251.558 257.421L251.372 257.702L251.036 258.008L250.65 258.118L249.556 258.069L249.195 258.142L248.946 258.277L248.523 258.802L248.125 259.181L247.777 259.303L245.662 259.327L245.227 259.486L244.879 259.706L244.555 260.012L244.257 260.122L243.971 260.134L242.727 259.792L242.105 259.755L241.782 259.865L241.508 260.061L241.284 260.305L240.948 260.598L240.637 260.72L240.302 260.745L238.137 260.403L235.351 260.672L232.789 258.301L228.436 255.564L227.777 254.953L227.49 254.525L232.69 249.319L233.647 247.841L233.772 247.621L233.971 247.12L234.045 246.839L234.282 245.592L234.356 245.311L234.58 244.835L235.874 243.417L236.048 243.185L236.21 242.892L236.384 242.415L236.396 242.073L236.321 241.804L236.16 241.633L234.879 240.753L234.68 240.521L234.655 240.301L234.729 240.081L235.152 239.47L235.525 238.786L236.297 236.696L236.421 236.501L236.583 236.391L236.757 236.367L238.187 236.538L238.411 236.464V236.318L238.336 236.122L238.088 235.719L237.988 235.499L237.876 235.23L237.789 234.9L237.702 234.411V234.057L237.752 233.813L238.2 232.004L238.249 231.54L238.224 231.198L237.317 228.827L237.217 228.497L237.13 227.972L237.267 227.666L237.752 227.043V226.811L237.615 226.615L237.391 226.505L237.118 226.456L236.321 226.542L235.874 226.725L235.326 227.177L234.879 227.385L233.237 227.581L232.901 227.202L232.565 226.493L232.105 224.513L231.769 223.744L231.421 223.291L229.866 223.096L229.617 223.133L229.431 223.279L229.294 223.487L229.194 223.744L228.921 224.562L228.809 224.77L228.672 224.904L228.486 224.88L227.13 224.122L226.607 223.927L225.028 223.719L224.704 223.609L224.369 223.401L223.523 221.923L223.212 221.629L222.926 221.434L221.98 221.018L220.14 220.579L219.754 220.334L219.58 219.931L219.294 218.77L219.182 218.452L218.485 217.133L218.498 216.815L218.61 216.595L219.928 215.935L220.413 215.788L221.247 215.715L221.545 215.764L222.229 216.118L222.64 216.412L222.975 216.754L224.132 218.245L224.294 218.33L224.505 218.281L224.729 217.976L225.003 217.89L225.301 217.829L230.451 218.171L230.724 218.135L230.936 218.025L231.073 217.817L231.185 217.56L231.272 217.304L231.396 217.059L231.57 216.9L231.794 216.803L233.983 216.509L234.244 216.387L234.481 216.204L234.68 215.776L234.692 215.471L234.617 215.214L234.244 214.591L233.983 213.931L233.734 213.613L233.473 213.406L231.098 212.465L230.849 212.294L230.637 212.025L230.588 211.744L230.625 211.475L230.712 211.206L230.811 210.998L231.993 209.752L232.13 209.544L232.229 209.288L232.316 208.994L232.404 208.554L232.478 206.318L232.354 204.681L232.391 203.532L232.826 202.652L233.361 201.785L233.809 201.186L234.493 200.502L234.692 200.379L234.916 200.282L235.463 200.208L236.06 200.233L236.968 200.44L237.205 200.453L237.428 200.367L237.739 199.988L237.901 199.829L238.113 199.707L239.58 199.206L239.817 199.072L240.053 198.852L240.103 198.62L239.991 198.436L239.73 198.339L239.083 198.168L238.809 198.021L238.822 197.874L238.971 197.764L240.762 197.337L240.998 197.227L241.21 197.043L241.396 196.774L241.595 196.31L241.645 195.956L241.62 195.662L241.409 195.137L241.309 194.783L241.185 194.184L241.222 193.805L241.322 193.5L241.458 193.267L241.645 193.047L241.919 192.852L242.217 192.766L242.516 192.791L242.988 193.023L243.834 193.573L244.829 194.025L248.834 194.783L249.108 194.734L249.344 194.648L249.916 194.208L250.165 194.135L250.439 194.123L250.737 194.184L250.973 194.294L251.16 194.453L251.471 194.819L251.695 195.223L251.844 195.357H252.043L252.628 194.722L252.814 194.612L253.038 194.599L253.225 194.709L253.324 194.929L253.337 195.198L253.287 195.516L253.138 195.846L252.901 196.249L252.814 196.53L252.839 196.787L253.399 197.557L254.195 199.341L254.332 199.524L254.506 199.683L254.767 199.744L256.347 199.829L256.633 199.781L256.894 199.658L256.919 199.463L256.906 199.243L256.571 197.984L256.546 197.679L256.571 197.337L256.645 196.909L256.658 196.555L256.633 196.212L256.571 195.944L256.521 195.577L256.695 195.443L256.931 195.357L260.924 195.015L261.21 194.893L261.508 194.685L261.894 194.257L262.056 193.891L262.13 193.561L262.093 193.28L262.031 193.023L261.62 192.094L261.546 191.777L261.521 191.3L261.608 190.982L261.757 190.75L263.486 189.015L263.884 188.746L264.096 188.661L264.344 188.612L264.593 188.673L265.078 188.881L265.936 189.052L266.148 189.174L266.31 189.357L266.446 189.553L266.621 189.724L266.844 189.858L267.417 189.993L267.703 190.005L268.213 189.895L271.633 188.025L272.379 187.414L272.802 186.864L273.337 186.009L273.685 185.557L273.859 185.386L274.071 185.263L274.307 185.202L274.568 185.178L274.83 185.239L275.016 185.373L275.178 185.557L275.452 185.972L275.613 186.156L275.825 186.278L276.098 186.302L276.409 186.119L276.571 185.801L276.695 185.312L276.857 185.044L277.068 184.872L277.628 184.604L277.976 184.323L278.113 184.066L278.076 183.858L277.864 183.724L277.267 183.565L277.006 183.455L276.795 183.296L276.658 183.064L276.621 182.734L276.72 182.514L276.894 182.343L278.3 181.756L278.934 181.39L279.494 180.803L280.004 180.143L280.203 179.74L280.265 179.422L280.078 179.288L279.27 179.141L279.071 178.995L278.748 178.64L278.549 178.494L278.312 178.42L278.051 178.433L277.317 178.604L277.056 178.543L276.882 178.396L276.571 178.029L276.384 177.883L276.136 177.785L275.253 177.724L274.991 177.651L274.867 177.516L274.942 177.382L275.116 177.26L276.098 176.746L276.459 176.453L276.621 176.16L276.695 175.854L276.683 175.573L276.608 175.365L276.422 175.292L276.21 175.341L275.364 175.818L275.128 175.866L274.904 175.818L274.743 175.561L274.78 175.341L274.904 175.146L275.315 174.767L275.899 174.07L275.974 173.801L275.874 173.594L274.867 173.093L274.668 172.873L274.606 172.433L274.743 172.103L275.041 171.638L275.091 171.357L275.004 171.137L274.904 170.966L274.854 170.807L274.842 170.661L274.917 169.549L274.904 167.765L274.83 167.215L274.705 166.714L274.369 166.066L274.096 165.663L273.971 165.406L273.884 165.101L273.897 164.588L273.922 164.355L274.009 164.123L274.444 163.243L274.606 163.024L274.792 162.852L275.439 162.51L275.8 162.18L276.235 161.557L277.081 160.751L277.442 160.286L277.578 159.944L277.628 159.614L277.603 159.345L277.554 159.077L277.491 158.832L277.392 158.6L277.255 158.392L276.894 158.026L276.745 157.806L276.683 157.451L276.758 157.182L276.907 156.999L277.156 156.877L277.442 156.791L277.74 156.608L277.852 156.352L277.914 156.058L277.952 153.321L277.852 152.05L277.939 151.818L278.113 151.659L279.046 151.085L279.357 150.779L279.407 150.535L279.32 150.339L279.133 150.181L278.996 149.973L278.934 149.716L278.922 148.824L278.822 148.592L278.611 148.458L277.715 148.201L277.491 148.03L277.379 147.847L277.267 147.162L279.021 145.928L279.593 145.317L279.718 145.073L280.153 143.875L280.352 143.655L280.601 143.509L281.397 143.399L282.628 143.032L282.815 142.775L283.113 141.92L283.511 141.187L283.822 140.894L284.133 140.747L284.743 140.735L285.365 140.869L287.952 141.981L288.574 142.067L289.867 141.786L290.514 141.847L294.482 141.236L295.527 140.894L295.713 140.747L295.85 140.576L295.9 140.393L295.775 140.234L295.153 139.794L295.029 139.586L295.079 139.305L295.327 138.951L295.601 138.828L295.887 138.816L297.591 139.366L297.815 139.488L297.964 139.684L298.014 139.928L297.927 140.454L297.952 140.686L298.064 140.881L298.648 141.346L298.785 141.541L298.835 141.749L298.711 142.213L298.748 142.445L299.059 142.604L299.581 142.714L301.31 142.8L301.658 142.934L301.733 143.166L301.658 143.716L301.907 143.961L302.442 144.132L303.736 144.193L304.333 144.132L304.743 143.985L304.88 143.765L304.979 143.509L305.042 143.227V142.946L305.004 142.69L304.917 142.445L304.818 142.225L304.693 142.006L304.519 141.541L304.457 141.285L304.308 140.197L304.382 139.904L304.594 139.61L306.086 138.706L306.422 138.327L306.671 137.863L306.746 137.606L306.808 137.399L306.87 137.142L307.032 136.849L307.33 136.47L307.616 136.348L307.94 136.336L308.188 136.446L308.375 136.58L308.412 136.788L308.325 136.971L307.977 137.264L307.927 137.46L308.014 137.643L309.619 138.584L310.179 139.171L310.539 139.342L310.825 139.317L311.049 139.219L311.198 139.024L311.285 138.743L311.385 138.059L311.497 137.692L311.696 137.606L312.766 137.839L313.587 137.875L314.034 137.814L314.383 137.704L316.522 136.226L316.833 136.164L316.982 136.287L316.92 136.519L316.46 137.521L316.348 137.79L316.111 138.303L315.85 138.755L314.731 140.099L314.594 140.307L314.519 140.527L314.582 140.747L314.681 140.955L314.843 141.113L315.029 141.211L317.554 141.786L318.313 141.737L319.221 141.333L320.44 140.502L320.614 140.331L320.751 140.124L320.85 139.892L320.888 139.329L320.937 139.048L321.186 138.718L321.447 138.645L321.709 138.694L321.908 138.841L322.082 139.012L322.318 139.439L323.039 140.955L323.114 141.077L323.711 141.737L324.482 142.384L325.129 142.714L325.801 142.885H326.199L326.51 142.824L327.878 142.164L328.089 142.03L328.462 141.7L328.798 141.346L328.935 141.113L329.035 140.857L329.296 139.965L329.395 139.696L329.532 139.464L329.694 139.268L330.278 138.816L330.428 138.621L330.527 138.401L330.502 138.169L330.39 137.961L329.47 137.093L329.321 136.91L329.246 136.678L329.271 136.397L329.37 136.14L329.644 135.908L330.079 135.7L332.02 135.077L332.231 134.894L332.38 134.661L332.467 134.112L332.642 133.794L332.94 133.562L333.736 133.122L334.221 132.975L334.632 132.926L334.918 133L336.647 133.867L338.873 134.283L341.858 134.356L342.779 134.246L343.015 134.136L343.201 134.002L343.313 133.806L343.338 133.574L343.289 133.342L343.226 133.097L343.239 132.804L343.376 132.499L343.848 132.108L344.321 131.961L344.706 131.936L344.968 132.034L346.124 132.743L347.679 133.232L348.562 133.745L348.998 134.087L349.271 134.234L349.707 134.332L349.93 134.222L350.067 134.014L350.055 133.757L350.03 133.501L349.955 133.244L349.794 132.78L349.744 132.547L349.781 132.315L350.018 132.108L350.391 131.936L351.523 131.594L351.846 131.46L352.829 130.641L353.177 130.519L353.575 130.495L354.557 130.69L355.254 130.666L355.528 130.568Z" fill="white"/>
<path fill-rule="evenodd" clip-rule="evenodd" d="M221.148 1.28277L222.043 2.61472L225.116 5.95072L226.496 7.857L227.392 8.76126L228.337 9.06675L229.332 8.48021L230.8 6.21955L231.832 5.48637L238.399 4.77762L240.924 5.19309L241.658 5.49859L242.069 5.92628L242.802 7.27045L244.345 9.47001L244.73 10.2643L245.141 12.085L245.39 13.9424L245.875 15.5188L247.006 16.533L250.414 17.4862L251.397 17.2418L251.484 15.4332L252.666 14.2235L255.439 13.0015H255.452L258.039 11.3396L260.253 10.5087L262.828 10.582L265.34 11.4618L267.442 13.0015L268.823 14.0891L275.626 15.9709L276.435 16.4597L277.206 17.2173L278.027 18.2927L278.45 19.0136L278.599 19.6368L278.425 20.1379L278.126 20.2112L277.766 20.1745L277.405 20.3334L276.982 20.6511L276.609 20.8099L276.273 21.0788L275.925 21.7386L275.776 22.4107L275.552 24.3048L275.39 25.1113L274.333 27.7141L274.134 28.9483L274.445 30.5613L275.005 31.6977L277.206 33.5307L279.333 36.659L280.216 37.1355L281.423 36.8056L284.855 32.7364L289.234 30.2192L290.415 29.9748L293.475 30.7446L294.619 30.1458L296.361 26.9687L297.455 25.5634L299.147 24.5858L300.925 24.1948L302.716 24.3048L307.953 26.2355L309.11 25.8567L311.1 23.9504L312.12 23.4372L312.891 23.6571L314.396 25.0135L315.242 25.5634L324.035 28.4351L324.408 28.8872L324.433 29.5593L324.16 30.1825L324.048 30.8301L324.558 31.5022L328.5 33.3963L328.961 33.7629L329.297 34.2639L329.471 35.2415L329.334 35.938L329.122 36.5612V37.2944L329.682 38.3575L330.578 38.9685L331.585 39.2007L333.389 39.054L333.998 39.3718L334.433 40.1294L334.856 41.3391L336.15 43.832L337.419 44.0519L338.899 43.221L340.827 42.5489L342.543 43.3676L343.463 45.115L343.725 45.5916L344.023 48.451L343.128 51.1638L343.787 51.616L344.011 51.6893L343.737 52.6668L342.58 53.5589L342.319 54.8297L342.667 56.2228L343.389 57.1882L343.973 58.2024L343.961 59.7176L343.414 60.6219L340.74 62.5282L339.21 64.6789L338.588 66.1208L338.463 67.5505L338.899 68.5159L339.657 69.1757L341.237 70.0067L341.809 70.9232L342.555 73.7459L343.177 74.6869L345.242 76.2754L345.802 76.9475L345.864 77.253L345.677 77.9495L345.764 78.3283L345.914 78.4505L346.361 78.5972L346.473 78.7072L346.672 79.1104L346.871 79.367L346.946 79.7458L346.722 80.5523L346.374 81.0656L346.262 81.6032L346.386 82.1776L346.722 82.7641L347.332 84.2305L347.866 86.1001L347.842 87.5787L346.722 87.9086L344.633 87.371L343.737 87.4565L343.439 88.373L343.899 89.6194L344.546 90.4503L344.757 91.3546L343.924 92.821L343.128 93.3953L340.429 93.933L339.371 94.7883L339.483 95.5704L339.931 96.7191L339.869 98.6131L339.197 99.8229L338.177 100.862L337.307 102.218L337.058 104.332L337.419 105.53L338.103 106.031L339.931 106.666L346.722 111.603L347.381 112.788L347.543 114.181L348.513 114.01L352.245 114.413L353.289 116.515L355.031 117.933L353.775 120.841L351.561 124.372L350.454 127.647L351.735 128.613L355.031 129.541L355.528 130.568L355.255 130.666L354.558 130.69L353.576 130.494L353.178 130.519L352.829 130.641L351.847 131.46L351.523 131.594L350.391 131.936L350.018 132.107L349.782 132.315L349.745 132.547L349.794 132.78L349.956 133.244L350.031 133.501L350.056 133.757L350.068 134.014L349.931 134.221L349.707 134.331L349.272 134.234L348.998 134.087L348.563 133.745L347.68 133.232L346.125 132.743L344.968 132.034L344.707 131.936L344.322 131.961L343.849 132.107L343.376 132.499L343.24 132.804L343.227 133.097L343.289 133.342L343.339 133.574L343.314 133.806L343.202 134.002L343.016 134.136L342.779 134.246L341.859 134.356L338.874 134.283L336.647 133.867L334.918 133L334.632 132.926L334.222 132.975L333.737 133.122L332.941 133.562L332.642 133.794L332.468 134.112L332.381 134.661L332.232 134.894L332.02 135.077L330.08 135.7L329.645 135.908L329.371 136.14L329.272 136.397L329.247 136.678L329.321 136.91L329.471 137.093L330.391 137.961L330.503 138.168L330.528 138.401L330.428 138.621L330.279 138.816L329.695 139.268L329.533 139.464L329.396 139.696L329.297 139.965L329.035 140.857L328.936 141.113L328.799 141.346L328.463 141.7L328.09 142.03L327.879 142.164L326.51 142.824L326.199 142.885H325.801L325.13 142.714L324.483 142.384L323.712 141.737L323.115 141.077L323.04 140.955L322.319 139.439L322.082 139.012L321.908 138.841L321.709 138.694L321.448 138.645L321.187 138.718L320.938 139.048L320.888 139.329L320.851 139.891L320.752 140.124L320.615 140.331L320.441 140.502L319.222 141.333L318.314 141.737L317.555 141.786L315.03 141.211L314.844 141.113L314.682 140.955L314.582 140.747L314.52 140.527L314.595 140.307L314.732 140.099L315.851 138.755L316.112 138.303L316.349 137.79L316.46 137.521L316.921 136.519L316.983 136.287L316.834 136.164L316.523 136.226L314.383 137.704L314.035 137.814L313.587 137.875L312.766 137.839L311.697 137.606L311.498 137.692L311.386 138.059L311.286 138.743L311.199 139.024L311.05 139.219L310.826 139.317L310.54 139.342L310.179 139.171L309.62 138.584L308.015 137.643L307.928 137.46L307.978 137.264L308.326 136.971L308.413 136.788L308.376 136.58L308.189 136.445L307.94 136.336L307.617 136.348L307.331 136.47L307.032 136.849L306.871 137.142L306.809 137.399L306.746 137.606L306.672 137.863L306.423 138.327L306.087 138.706L304.595 139.61L304.383 139.904L304.309 140.197L304.458 141.285L304.52 141.541L304.694 142.005L304.818 142.225L304.918 142.445L305.005 142.69L305.042 142.946V143.227L304.98 143.509L304.881 143.765L304.744 143.985L304.333 144.132L303.736 144.193L302.443 144.132L301.908 143.961L301.659 143.716L301.734 143.166L301.659 142.934L301.311 142.8L299.582 142.714L299.06 142.604L298.749 142.445L298.711 142.213L298.836 141.749L298.786 141.541L298.649 141.346L298.065 140.881L297.953 140.686L297.928 140.454L298.015 139.928L297.965 139.684L297.816 139.488L297.592 139.366L295.888 138.816L295.602 138.828L295.328 138.951L295.079 139.305L295.03 139.586L295.154 139.794L295.776 140.234L295.9 140.392L295.851 140.576L295.714 140.747L295.527 140.893L294.482 141.236L290.515 141.847L289.868 141.786L288.574 142.067L287.952 141.981L285.365 140.869L284.743 140.735L284.134 140.747L283.823 140.893L283.512 141.187L283.114 141.92L282.816 142.775L282.629 143.032L281.398 143.399L280.602 143.509L280.353 143.655L280.154 143.875L279.719 145.073L279.594 145.317L279.022 145.928L277.268 147.162L275.888 147.627L275.614 147.602L275.266 147.48L275.067 147.236L274.805 146.845L274.681 146.527L274.656 146.197L274.768 144.608L274.805 144.315L274.905 144.058L275.029 143.826L275.179 143.631L276.497 142.543L276.696 142.323L276.87 142.03L277.057 141.553V141.236L276.995 140.979L276.099 139.562L275.801 139.268L275.577 139.122L275.154 138.706V138.523L275.191 138.425L275.514 138.144L275.689 137.887L275.825 137.557L275.962 137.02L276.111 136.714L276.31 136.531L276.559 136.458L276.858 135.688L277.144 134.319L277.741 128.038L277.84 127.782L278.077 127.317L278.251 127.085L278.587 126.719L278.748 126.474L278.922 126.169L279.121 125.704L279.134 125.362L279.047 125.106L278.413 124.287L278.263 123.994L278.276 123.749L278.363 123.517L279.022 122.772L280.527 121.415L280.701 121.122V120.706L280.415 119.106L280.141 118.666L279.868 118.372L279.296 118.226L279.047 118.25L278.898 118.397L278.86 118.641L278.885 119.521L278.86 119.839L278.798 120.132L278.686 120.377L278.537 120.584L278.338 120.731L278.102 120.829L277.828 120.853L276.597 120.596L275.514 120.181L274.917 120.071L274.631 120.095L274.159 120.291L273.736 120.548L272.592 121.452L272.38 121.537L272.119 121.501L271.198 121.024L270.688 120.914L269.196 120.89L268.972 120.804L268.91 120.584L268.885 120.291L268.935 119.656L268.922 119.13L268.86 118.458L268.599 117.199L268.313 116.723L268.002 116.478L267.728 116.515L267.467 116.588L266.559 117.016L265.552 117.322H265.253L264.967 117.26L264.718 117.065L264.656 116.808L264.681 116.576L264.83 116.368L265.178 116.026L265.29 115.819L265.141 115.77L264.917 115.782L263.947 116.136L263.076 116.601L262.902 116.784L262.753 116.967L262.106 118.153L261.932 118.348L261.746 118.495L261.547 118.605L260.738 118.812H259.519L253.773 117.774L253.524 117.81L253.337 117.945L253.213 118.165L253.026 119.008L252.877 119.533L252.902 119.778L253.002 119.998L253.748 120.951L253.847 121.159L253.798 121.403L253.711 121.647L253.325 122.356L253.176 122.552L252.977 122.698L252.479 122.845L251.845 122.93L251.434 122.869L251.285 122.637L251.248 122.356L251.26 122.014L251.198 121.684L251.099 121.317L250.837 121.159L250.526 121.073L248.599 120.829L248.312 120.853L248.076 120.951L247.579 121.513L247.392 121.66L247.181 121.782L246.932 121.843L246.671 121.831L244.021 120.878L243.71 120.596L243.499 120.328L243.288 119.57L243.25 119.289V119.008L243.288 118.702L243.375 118.434L244.009 117.248L244.034 116.869L243.922 116.417L243.387 115.537L243.026 115.244L242.778 115.195L242.591 115.342L241.658 116.54L241.459 116.723L241.223 116.845L240.924 116.894L240.75 116.747L240.663 116.527L240.539 115.99L240.452 115.696L240.327 115.403L240.116 115.036L239.879 114.963L239.618 114.975L236.098 116.051L235.887 116.185L235.738 116.393L235.626 116.637L235.165 118.055L235.054 118.299L234.842 118.849L234.78 119.155L233.387 122.967L233.213 123.236L232.802 123.358L231.994 123.309L230.29 122.429L229.966 122.136L229.78 121.66L229.718 121.403L229.618 121.097L229.344 120.731L228.834 120.181L227.317 119.301L226.981 118.935L226.695 118.544L226.359 117.884L226.285 117.639L226.098 117.285L225.849 116.869L225.24 116.21L224.929 115.965L224.618 115.819L223.387 115.733L221.198 116.136L220.24 116.503L219.245 117.212L219.071 117.395L218.772 117.529L218.374 117.59L216.322 117.041L216.048 117.016L211.197 118.446L210.501 118.531L210.327 118.36L210.227 118.116L210.202 117.823L210.19 117.175L210.165 116.845L210.016 116.503L209.792 116.307L209.232 116.1L208.959 116.038L208.697 116.063L208.498 116.173L207.715 117.175L207.541 117.358L207.031 117.432L206.259 117.383L203.735 116.637L203.448 116.344L203.312 115.99L203.013 115.525L201.919 114.621L201.545 114.218L201.396 113.815L201.346 113.472L201.172 113.057L200.513 112.336L200.289 111.908L200.227 111.566L200.451 111.077L200.662 110.552L200.812 109.941L200.874 109.635L200.886 109.342L200.637 108.963L200.152 108.511L197.864 107.045L193.573 106.348L193.249 106.141L193.137 105.847L193.187 105.53L193.411 104.625L193.473 104.332L193.461 104.051L193.399 103.807L193.237 103.574L189.792 100.715L189.667 100.556L189.394 100.043L188.995 99.493L188.573 99.0775L188.237 98.9308L187.901 98.8698L185.5 99.1141L184.605 99.053L184.356 98.882L184.232 98.6376L184.194 98.3443L184.17 97.7455L184.132 97.4645L184.07 97.1956L183.983 96.9512L183.759 96.4991L182.951 95.2283L182.602 94.825L181.446 93.8963L181.284 93.6764L181.271 93.4686L181.359 93.2486L182.528 91.5379L182.627 91.2935L182.665 91.0369L182.54 90.6947L182.266 90.3404L181.669 89.7782L181.271 89.5705L180.936 89.5094L178.51 90.096L175.314 89.1917L174.903 89.1673L173.498 90.2426L173.386 90.4503V90.6947L173.435 90.9513L173.647 91.7212L173.697 92.0022L173.709 92.2833L173.672 92.5521L173.547 92.7599L173.348 92.8821L172.838 93.0531L169.468 93.2486L167.714 93.0776L167.391 92.9309L167.167 92.7354L166.893 92.2466L166.321 91.4646L165.96 91.2813L165.624 91.1835L161.109 91.9411L160.637 92.1367L159.281 93.2242L158.709 93.4931L158.224 93.5786L157.938 93.5053L157.739 93.3342L157.49 92.7965L157.254 92.4422L156.744 91.9289L156.371 91.6967L155.985 91.5746L154.629 91.4768L153.634 91.5623L153.224 91.6601L153.124 91.7456L152.925 92.1244L152.689 92.4422L152.291 92.7354L151.831 92.9065L151.196 92.9432L150.761 92.7965L150.413 92.5643L149.99 92.1855L149.579 92.0511L147.154 92.1978L145.885 92.0022L144.965 91.6723L143.298 90.7803L142.85 90.6459L142.539 90.6947L142.266 90.8536L142.054 91.1346L141.918 91.5012L141.893 91.8556L141.93 92.1855L142.029 92.4788L142.079 92.6988L142.054 92.8943L141.905 93.1142L141.743 93.2731L141.296 93.6275L140.612 93.1631L140.151 93.2609L139.728 93.4442L138.771 94.4217L138.485 94.605L138.161 94.715L137.813 94.5928L137.477 94.2873L137.092 93.4197L136.868 92.0389L136.843 91.6112L136.495 91.2324L136.233 91.0491L133.534 90.0104L133.397 89.8271L134.181 88.654L135.81 85.147L136.022 84.4993L136.109 83.5828L136.059 81.701L136.184 80.8334L137.577 78.6583L139.579 78.3161L144.492 79.5748L144.865 79.5625L145.301 79.4281L145.574 79.1348L145.835 78.6827L146.209 78.3039L146.843 78.2306L151.52 80.3079L152.502 80.1246L153.186 79.0249L153.684 76.8009L153.958 74.6869L154.281 73.8803L154.99 72.915L156.259 71.6808L156.943 71.2775L158.659 70.8254L159.803 70.5199L160.873 69.7256L161.358 68.4914L160.96 67.1961L159.94 66.4263L152.577 65.1554L149.903 65.8642L149.144 65.8275L146.507 64.8499L145.811 64.3734L145.612 63.5791L146.035 62.1494L147.092 60.2187L147.403 59.4855L147.987 56.626L148.373 55.7829L149.94 54.2065L150.089 53.3145L149.256 51.7015L149.443 49.8563L150.313 48.451L151.395 47.2046L152.266 45.8604L152.689 44.1619L152.801 42.1334L152.627 40.0561L152.216 38.2353L153.149 36.6101L154.231 36.0235L155.425 36.1457L157.788 37.0744L158.808 37.0011L162.341 35.2048L163.224 34.1784L165.774 29.5837L168.323 26.4921L169.281 25.8934L169.356 25.8567L175.115 25.1235L176.918 25.4168L177.876 25.9422L180.637 28.264L181.856 28.9239L182.727 28.5695L184.791 26.5777L185.699 25.5145L186.806 26.7854L188.199 27.6041L189.655 28.0318L195.239 28.545L196.483 28.3862L196.869 27.1887L197.254 25.539L197.565 21.8364L198.797 18.4026L203.212 15.531L204.655 12.9893L204.842 11.1197L206.235 9.70218L209.257 7.41709L209.792 6.37841L210.177 5.42527L210.613 4.56988L211.309 3.86114L211.869 3.56786L213.697 3.18905L215.6 2.27257L216.807 1.41719L217.566 0.879517L219.469 0.146332L221.148 1.28277Z" fill="white"/>
<path fill-rule="evenodd" clip-rule="evenodd" d="M141.296 93.6277L140.923 94.0188L140.114 94.4465L139.952 94.5931L139.865 94.8253L139.915 95.1063L140.487 96.145L140.786 96.9515L140.885 97.6114L140.798 99.1511L140.823 99.6765L141.109 100.3L141.383 100.74L141.806 101.216L142.291 101.619L142.826 101.974L143.348 102.218L143.796 102.34L144.443 102.402L144.704 102.548L145.686 103.721L148.062 107.326L148.311 107.558L148.609 107.742L149.517 108.12L149.754 108.255L149.878 108.438L149.99 108.915L150.015 109.416L149.791 110.515L149.754 110.98L149.866 111.579L150.015 111.982L150.575 113.106L150.997 114.157L151.196 114.56L151.42 114.915L151.594 115.281L151.719 115.684L151.843 116.295L152.017 116.625L152.229 116.833L153.075 117.114L153.858 117.603L154.144 117.652L154.493 117.566L155.587 117.016L155.799 117.004L155.873 117.297L155.861 117.872L155.687 119.13L155.799 119.949L155.973 120.45L156.122 120.78L156.11 121.098L155.848 121.513L155.575 121.623H155.276L155.027 121.55L154.791 121.538L154.642 121.733L154.517 122.112L154.468 124.128L154.393 124.556L154.157 124.751L153.858 124.727L153.498 124.568L152.154 123.652L151.98 123.615L151.856 123.639L151.794 123.762L151.806 123.957L152.005 124.568L152.042 124.788L152.067 125.558L152.179 125.949L152.378 126.352L152.813 127.061L152.963 127.574L153.075 128.295L153.012 129.468L152.888 130.214L152.627 130.739L152.403 130.984L151.582 131.57L151.42 131.766L151.296 131.998L150.786 133.77L148.037 140.955L147.191 142.751L146.644 143.619L144.903 145.391L144.455 146.026L144.306 146.185L144.107 146.332L143.87 146.429L138.945 147.358L136.831 146.955L136.209 146.967L135.462 147.211L132.888 149.448L132.664 149.558L132.415 149.631L132.117 149.668L130.873 149.545L130.636 149.594L130.487 149.765L130.35 149.985L129.629 152.124L129.218 153.932L129.206 154.225L129.256 154.507L129.517 154.727L129.778 154.885L131.022 155.447L131.258 155.484L131.432 155.411L131.544 155.191L131.768 154.335L131.88 154.091L132.029 153.932L132.216 153.859L132.427 153.908L133.398 154.36L133.609 154.519L133.771 154.751L133.733 155.215L133.51 156.266L133.36 158.796L133.373 159.407L133.485 159.847L133.659 160.372L134.144 161.313L134.517 161.643L134.865 161.79L137.676 161.386L137.9 161.276L138.087 161.117L138.186 160.885L138.211 160.555L138.174 160.128L138.398 159.908L138.659 159.859L140.649 160.115L140.91 160.238L141.084 160.739L141.582 163.097L141.893 163.684L142.179 164.001L144.816 164.087L145.04 164.466L145.114 165.138L144.89 166.812L144.691 167.496L144.443 167.924L142.851 168.29L142.639 168.4L142.453 168.571L142.316 168.767L142.079 169.256L141.607 170.576L141.383 171.064L141.122 171.504L140.972 171.688L140.612 172.005L140.189 172.274L139.716 172.494L136.694 173.398L135.848 173.899L135.674 174.07L135.537 174.266L135.45 174.645L135.388 175.146L135.35 176.539L135.425 176.966L135.699 177.309L136.221 177.663L139.268 178.909L139.467 179.08L139.592 179.288L139.492 179.667L139.38 179.948L139.244 180.217L139.107 180.425L138.92 180.596L138.684 180.693L137.739 180.669L137.452 180.718L137.266 181.023L137.179 181.561V182.685L137.067 183.687L137.079 184.005L137.303 184.396L137.477 184.665L137.826 185.056L138.41 185.508L138.883 185.752L140.425 185.936L140.661 186.058L140.836 186.205L140.935 186.51L140.985 186.926L140.923 187.695L140.91 188.233L140.972 188.746L141.196 189.296L141.433 189.577L141.681 189.761L144.492 190.579L146.346 191.581L146.507 191.752L146.657 191.948L146.893 192.376L146.968 192.669L147.042 193.023L147.191 194.282L147.254 194.538L147.428 194.991L148.112 196.041L148.336 196.445L148.647 197.3L148.609 197.752L148.448 198.4L147.838 199.707L147.701 200.502L147.726 200.929L147.925 201.064L148.087 201.088H148.311L149.318 200.881L149.58 200.905L149.779 200.99L149.928 201.1L150.002 201.174L150.052 201.247L150.102 201.443L150.152 201.724L150.177 202.151L150.152 202.518L149.89 204.827V205.426L149.978 205.976L150.114 206.465L150.276 206.954L150.475 207.406L150.736 207.809L151.022 208.163L150.662 208.42L142.552 211.096L139.119 212.013L137.962 212.11L137.689 212.025L136.756 211.561L135.661 211.218L131.868 211.011L129.505 210.436L128.522 210.51L127.589 210.754L121.333 210.241L121.096 210.143L120.885 210.009L120.711 209.85L120.574 209.654L120.412 209.483L120.213 209.324L119.865 209.275L119.417 209.3L118.696 209.471L118.273 209.495L117.962 209.434L117.377 208.982L117.154 208.872L116.892 208.787L116.469 208.811L115.076 209.129L114.616 209.141L114.268 209.08L114.007 208.982L113.447 208.897L113.124 209.031L112.763 209.288L112.216 209.874L111.979 210.253L111.818 210.583L111.731 210.84L111.519 211.316L110.238 213.491L110.064 213.943L110.014 214.115L109.927 214.603L109.691 216.791L109.629 217.084L109.529 217.316L109.318 217.499L109.019 217.634L107.688 217.78L107.39 217.927L107.129 218.33L107.004 218.672L106.731 219.87L106.743 220.139L106.855 220.347L107.017 220.518L107.862 221.055L108.037 221.214L108.161 221.434L108.211 221.691V221.972L108.161 222.241L107.937 222.546L107.576 222.864L106.83 223.389L105.897 224.245L105.723 224.477L105.611 224.733L105.586 225.002L105.673 225.234L105.872 225.381L106.768 225.564L107.004 225.687L107.191 225.833L107.651 226.371L107.775 226.579L107.999 227.006L108.086 227.251L108.124 227.52L108.148 227.788L108.124 228.094L108.086 228.375L107.713 229.426L106.295 232.09L105.201 235.218L105.076 235.45L104.778 235.829L102.489 237.173L102.303 237.32L102.029 237.625L101.569 238.285L101.059 239.165L100.785 239.556L100.3 240.094L100.163 240.301L100.064 240.534L100.002 240.802V241.083L99.8398 241.413L99.4667 241.804L98.3348 242.281L97.6508 242.464L96.7428 242.379L96.3696 242.22L95.9965 242.147L95.6482 242.208L95.0263 242.623L94.79 242.99L94.6781 243.332L94.6905 243.637L94.7527 243.882L94.8522 244.102L94.989 244.297L95.6855 244.933L95.7851 245.14L95.7975 245.36L95.6855 245.544L95.3248 245.825L95.1507 245.996L95.0636 246.204L95.0512 246.46L95.0885 246.705L95.1632 246.949L95.2751 247.157L95.4492 247.328L96.1831 247.633L96.3323 247.829L96.3945 248.085L96.3821 248.366L96.3323 248.623L96.1955 248.819L96.0338 248.965L95.8348 249.112L95.5736 249.222L95.2005 249.259L94.5164 249.1L93.8323 248.794L93.4218 248.525L93.2726 248.342L93.1606 248.134L93.0736 247.584L92.9865 247.352L92.6258 247.291L92.091 247.377L91.0959 247.755L90.3745 248.318L90.2253 248.501L90.0138 248.623L89.7029 248.66L89.2924 248.635L88.6456 248.452L88.1357 248.415L87.6257 248.476L85.8471 249.173L85.6232 249.332L85.4366 249.515L85.1878 249.637L84.8645 249.686L84.2923 249.515L83.9938 249.332L83.8445 249.087L83.8694 248.819L83.9067 248.538L83.9814 248.257L84.0062 247.988L83.9689 247.731L83.7077 247.364L83.6828 247.12L83.7077 246.851L83.7699 246.582L84.4043 244.432L84.4291 244.2L84.3545 244.028L84.1679 243.906L83.9192 243.857L83.6455 243.906L83.347 244.187L83.1729 244.444L82.8246 245.189L82.7127 245.409L82.5012 245.58L82.2152 245.666L81.6803 245.593L79.8146 244.823L79.6654 244.701L79.5659 244.529L79.5907 244.297L79.7276 243.772L79.7773 243.503V243.234L79.7649 242.965L79.7151 242.709L79.5783 242.22L79.3917 241.743L79.1678 241.316L79.0435 241.12L78.7325 240.766L78.3469 240.46L77.8743 240.253L76.7424 239.972L76.3942 240.02L76.0583 240.167L75.6728 240.595L75.4737 240.912L75.1752 241.743L75.0509 241.976L74.914 242.171L74.6031 242.33L74.1553 242.44L72.7001 242.477L70.3244 241.902L67.5756 240.521L67.1403 240.558L66.5308 240.778L64.379 241.988L64.2049 242.159L64.0681 242.342L64.0059 242.574L64.0681 242.782L64.2546 242.929L64.491 243.039L65.685 243.21L65.9338 243.308L66.0955 243.479L66.1452 243.735L66.1328 244.016L66.0582 244.273L65.7596 244.578L65.2994 244.896L64.2795 245.434L63.8317 245.776L63.5332 246.069L63.3964 246.277L62.476 247.34L62.3765 247.511L62.4014 247.719L62.5258 247.902L62.9984 248.428L63.1103 248.635L63.185 248.88L63.2223 249.136L63.1725 249.405L63.0606 249.601L62.1153 250.309L61.966 250.493L61.8417 250.713L61.481 251.739L61.1451 252.387L61.1327 252.607L61.2073 252.814L61.568 253.425L61.7546 253.878L61.8665 254.415L61.9039 254.99L61.879 255.258L61.8292 255.478L61.767 255.637L61.6675 255.808L61.4561 255.967L61.1451 256.138L60.1625 256.419L59.068 256.48L57.9361 256.297L56.9411 255.808L56.7296 255.637L56.3565 255.258L54.3664 253.865L54.1425 253.743L53.8067 253.682L53.3838 253.706L52.2893 254.049L52.0156 254.22L51.829 254.379L51.63 254.489L51.4062 254.562L51.1698 254.525L50.9708 254.293L50.8838 254.024L50.8589 253.755L50.7967 253.56L50.6972 253.45L50.4733 253.401L50.1126 253.425L48.2718 254.098L47.7991 254.11L45.9334 253.792L45.3737 253.584L45.013 253.364L44.7642 252.949L44.5652 252.509L44.4409 252.313L44.2667 252.155L43.9682 252.106L43.5578 252.179L42.5503 252.79L41.2194 253.926L40.7965 254.171L40.3239 254.342L34.4282 253.865L33.6322 254.024L33.2591 245.275L33.1471 244.725L32.9606 244.358L32.8113 243.931L32.774 243.161L32.8984 242.587L33.3834 241.609L33.5203 241.169L33.4954 240.583L33.1222 238.566V238.114L33.2218 237.234L33.1471 236.684L32.6372 235.609L31.2939 233.911L30.9207 232.676L30.9829 231.271L31.4058 230.269L31.9406 229.389L32.3387 228.351L32.4382 226.591L31.9779 225.711L31.2068 225.125L30.4232 224.269L29.8884 223.145L29.5525 222.082L29.1172 221.055L28.3212 220.004L27.5376 217.927L25.7589 211.035L24.8634 208.726L22.7738 204.436L19.0175 193.035L17.9603 187.903L17.8608 183.394H17.8483V183.382L16.7787 181.83L16.306 180.315L15.8956 176.392L15.4478 174.535L14.8632 172.824L14.403 171.015L14.3408 168.853L15.8707 169.244L19.8633 171.626L20.622 171.895L21.3061 171.834L23.4952 170.905L26.2689 170.514L27.0401 169.965L27.7241 169.696L28.0227 169.757L28.8187 170.221L29.2043 170.331L29.5401 170.27L32.9357 168.352L33.5949 168.217L34.2914 168.51L35.5974 169.341L36.3313 169.512L39.1671 169.476L40.4856 169.109L43.2219 167.655L44.6772 167.398L46.0702 167.875L47.314 169.366L48.0852 171.492L48.5578 172.201L49.4161 172.36L50.9086 172.299L52.3141 172.714L53.9186 172.726L55.5231 171.932L60.5979 167.435L62.8367 166.164L65.6726 165.614L66.7298 164.808L66.8915 164.783L67.0532 164.82L67.2149 164.918L67.787 166.372L68.4463 167.007L69.2547 167.068L72.1279 166.604L72.9115 166.189L73.4837 164.918V164.906H73.4961L73.5832 162.877L73.1852 161.472L72.5881 160.201L72.0657 158.6L71.8543 157.464L71.9413 157.207L72.215 157.183L72.613 156.694L73.4339 156.181L73.4588 155.9L73.409 155.399V154.836L73.5956 154.372L74.8892 153.59L75.113 153.456L77.1653 153.236L79.2052 153.517L82.7127 154.861L84.6903 154.543L86.6307 153.309L88.4466 151.305L89.1805 149.753L90.0884 146.234L90.6481 145.256L91.4442 145.134L94.2552 146.124L97.8995 145.928L98.9816 145.232L100.76 142.641L101.88 142.116L102.439 142.25L102.725 142.531L102.949 142.959L106.071 147.162L105.698 147.444L104.653 147.358L103.745 147.871L103.646 148.617L104.716 149.179L104.964 149.814L104.641 150.376L103.372 150.804L103.049 151.329L103.385 152.661L104.392 153.602L105.586 154.189L109.517 154.824L110.487 154.8L110.947 154.531L111.644 153.566L112.129 153.346L113.795 153.566L114.318 153.492L115.338 152.735L115.698 151.562L115.736 148.164L115.872 147.822L116.395 147.126L116.507 146.796L116.382 146.344L116.171 146.185L115.935 146.087L115.748 145.843L115.462 145.024L115.114 144.352L114.716 143.802L114.293 143.338L114.081 143.289L113.584 143.46L113.397 143.411L113.236 143.142L112.763 141.81L112.626 141.089L112.365 140.466L111.768 140.124L111.096 140.295L108.435 141.676L106.519 141.798L105.549 141.431L104.952 140.466L105.002 138.584L105.847 136.971L107.875 134.552L108.671 132.926L108.833 131.485L108.808 129.92L108.994 127.965L109.479 126.438L110.163 125.534L112.875 123.945L113.721 123.09L114.343 121.929L114.566 120.426L114.318 118.972L113.211 116.308L112.912 114.817L112.974 113.864L113.161 113.118L113.397 112.422L113.571 111.627L113.634 110.845L113.484 106.984L113.621 105.982L114.094 105.298L115.064 104.442L115.499 104.234L115.798 104.222L116.022 104.076L116.221 103.44L116.196 102.817L115.81 101.302L115.748 100.63L116.208 99.1999L117.091 98.2957L118.124 97.5136L119.057 96.4383L119.33 95.6562L119.417 94.9719L119.579 94.4098L120.101 93.9699L121.768 93.2611L122.577 93.2856L124.194 93.6522L125.014 93.6766L130.4 92.5891L132.005 91.6848L132.664 90.9516L133.398 89.8274L133.534 90.0107L136.234 91.0494L136.495 91.2327L136.843 91.6115L136.868 92.0392L137.092 93.42L137.477 94.2876L137.813 94.5931L138.161 94.7153L138.485 94.6053L138.771 94.422L139.729 93.4444L140.152 93.2611L140.612 93.1634L141.296 93.6277Z" fill="white"/>
<path fill-rule="evenodd" clip-rule="evenodd" d="M277.269 147.162L277.381 147.847L277.493 148.03L277.717 148.201L278.613 148.458L278.824 148.592L278.924 148.824L278.936 149.716L278.998 149.973L279.135 150.181L279.322 150.339L279.409 150.535L279.359 150.779L279.048 151.085L278.115 151.659L277.941 151.818L277.854 152.05L277.954 153.321L277.916 156.058L277.854 156.351L277.742 156.608L277.444 156.791L277.157 156.877L276.909 156.999L276.759 157.182L276.685 157.451L276.747 157.806L276.896 158.026L277.257 158.392L277.394 158.6L277.493 158.832L277.555 159.076L277.605 159.345L277.63 159.614L277.58 159.944L277.444 160.286L277.083 160.751L276.237 161.557L275.802 162.18L275.441 162.51L274.794 162.852L274.608 163.023L274.446 163.243L274.011 164.123L273.924 164.355L273.899 164.588L273.886 165.101L273.973 165.406L274.098 165.663L274.371 166.066L274.707 166.714L274.832 167.215L274.906 167.765L274.919 169.549L274.844 170.661L274.856 170.807L274.906 170.966L275.006 171.137L275.093 171.357L275.043 171.638L274.745 172.103L274.608 172.433L274.67 172.873L274.869 173.093L275.876 173.594L275.976 173.801L275.901 174.07L275.317 174.767L274.906 175.145L274.782 175.341L274.745 175.561L274.906 175.818L275.13 175.866L275.366 175.818L276.212 175.341L276.424 175.292L276.61 175.365L276.685 175.573L276.697 175.854L276.623 176.16L276.461 176.453L276.1 176.746L275.118 177.259L274.944 177.382L274.869 177.516L274.993 177.651L275.254 177.724L276.138 177.785L276.386 177.883L276.573 178.029L276.884 178.396L277.058 178.543L277.319 178.604L278.053 178.433L278.314 178.42L278.551 178.494L278.75 178.64L279.073 178.995L279.272 179.141L280.08 179.288L280.267 179.422L280.205 179.74L280.006 180.143L279.496 180.803L278.936 181.39L278.302 181.756L276.896 182.343L276.722 182.514L276.623 182.734L276.66 183.064L276.797 183.296L277.008 183.455L277.269 183.565L277.866 183.724L278.078 183.858L278.115 184.066L277.978 184.323L277.63 184.604L277.07 184.872L276.859 185.043L276.697 185.312L276.573 185.801L276.411 186.119L276.1 186.302L275.827 186.278L275.615 186.155L275.453 185.972L275.18 185.557L275.018 185.373L274.832 185.239L274.57 185.178L274.309 185.202L274.073 185.263L273.861 185.386L273.687 185.557L273.339 186.009L272.804 186.864L272.381 187.414L271.635 188.025L268.215 189.895L267.705 190.005L267.419 189.992L266.846 189.858L266.622 189.724L266.448 189.553L266.312 189.357L266.15 189.174L265.938 189.052L265.08 188.88L264.595 188.673L264.346 188.612L264.098 188.661L263.886 188.746L263.488 189.015L261.759 190.75L261.61 190.982L261.523 191.3L261.548 191.777L261.622 192.094L262.033 193.023L262.095 193.28L262.132 193.561L262.058 193.891L261.896 194.257L261.51 194.685L261.212 194.893L260.926 195.015L256.933 195.357L256.697 195.442L256.523 195.577L256.573 195.944L256.635 196.212L256.66 196.554L256.647 196.909L256.573 197.337L256.548 197.679L256.573 197.984L256.908 199.243L256.921 199.463L256.896 199.658L256.635 199.781L256.349 199.829L254.769 199.744L254.508 199.683L254.334 199.524L254.197 199.341L253.401 197.557L252.841 196.787L252.816 196.53L252.903 196.249L253.14 195.846L253.289 195.516L253.339 195.198L253.326 194.929L253.227 194.709L253.04 194.599L252.816 194.612L252.63 194.722L252.045 195.357H251.846L251.697 195.223L251.473 194.819L251.162 194.453L250.975 194.294L250.739 194.184L250.441 194.123L250.167 194.135L249.918 194.208L249.346 194.648L249.11 194.734L248.836 194.783L244.831 194.025L243.836 193.573L242.99 193.023L242.518 192.791L242.219 192.766L241.921 192.852L241.647 193.047L241.46 193.267L241.324 193.5L241.224 193.805L241.187 194.184L241.311 194.783L241.411 195.137L241.622 195.662L241.647 195.956L241.597 196.31L241.398 196.774L241.212 197.043L241 197.227L240.764 197.337L238.973 197.764L238.823 197.874L238.811 198.021L239.085 198.167L239.731 198.339L239.993 198.436L240.105 198.62L240.055 198.852L239.818 199.072L239.582 199.206L238.114 199.707L237.903 199.829L237.741 199.988L237.43 200.367L237.207 200.453L236.97 200.44L236.062 200.233L235.465 200.196L234.918 200.282L234.694 200.379L234.495 200.501L233.811 201.186L233.363 201.785L232.828 202.652L232.393 203.532L232.356 204.681L232.48 206.318L232.405 208.554L232.318 208.994L232.231 209.287L232.132 209.544L231.995 209.752L230.813 210.998L230.714 211.206L230.627 211.475L230.589 211.744L230.639 212.025L230.851 212.294L231.099 212.465L233.475 213.406L233.736 213.613L233.985 213.931L234.246 214.591L234.619 215.214L234.694 215.471L234.682 215.776L234.483 216.204L234.246 216.387L233.985 216.509L231.796 216.803L231.572 216.9L231.398 217.059L231.274 217.304L231.187 217.56L231.075 217.817L230.938 218.025L230.726 218.135L230.453 218.171L225.303 217.829L225.005 217.89L224.731 217.976L224.507 218.281L224.296 218.33L224.134 218.245L222.977 216.754L222.642 216.412L222.231 216.118L221.547 215.764L221.249 215.715L220.415 215.788L219.93 215.935L218.612 216.595L218.5 216.815L218.487 217.133L219.184 218.452L219.296 218.77L219.582 219.931L219.756 220.334L220.142 220.579L221.982 221.018L222.928 221.434L223.214 221.629L223.525 221.923L224.37 223.401L224.706 223.609L225.03 223.719L226.609 223.927L227.132 224.122L228.487 224.88L228.674 224.904L228.811 224.77L228.923 224.562L229.196 223.743L229.296 223.487L229.433 223.279L229.619 223.132L229.868 223.096L231.423 223.291L231.771 223.743L232.107 224.513L232.567 226.493L232.903 227.202L233.239 227.58L234.881 227.385L235.328 227.177L235.876 226.725L236.323 226.542L237.119 226.456L237.393 226.505L237.617 226.615L237.754 226.811V227.043L237.269 227.666L237.132 227.971L237.219 228.497L237.318 228.827L238.226 231.197L238.251 231.54L238.202 232.004L237.754 233.813L237.704 234.057V234.411L237.791 234.9L237.878 235.23L237.99 235.499L238.09 235.719L238.338 236.122L238.413 236.318V236.464L238.189 236.538L236.759 236.366L236.585 236.391L236.423 236.501L236.299 236.696L235.527 238.786L235.154 239.47L234.731 240.081L234.657 240.301L234.682 240.521L234.881 240.753L236.162 241.633L236.323 241.804L236.398 242.073L236.386 242.415L236.211 242.892L236.05 243.185L235.876 243.417L234.582 244.835L234.358 245.311L234.284 245.592L234.047 246.839L233.973 247.12L233.774 247.621L233.649 247.841L232.692 249.319L227.492 254.525L227.778 254.953L228.438 255.564L232.791 258.301L235.353 260.672L235.179 260.757L234.495 261.625L234.557 261.796L234.619 262.04L234.744 262.223L234.595 262.505L234.184 262.822L233.214 263.384L232.803 263.751L232.555 264.105L232.505 264.411L232.418 265.364L232.343 267.759L232.43 269.164L232.692 271.303L232.716 271.853L232.704 272.109L232.617 272.341L232.48 272.537L229.657 274.981L220.502 275.995L219.967 275.922L219.632 275.775L219.258 275.164L218.86 274.309L218.612 273.612L218.587 273.563L218.438 273.405L218.276 273.282L217.803 273.062L213.997 272.231L213.661 272.317L213.301 272.5L212.791 272.928L212.592 273.246L212.517 273.502L212.542 273.637L212.965 274.419L213.039 274.651L213.102 274.895L213.214 275.983L213.226 276.252L213.189 276.508L213.077 276.728L212.89 276.887L212.33 277.18L212.094 277.364L211.945 277.571L211.373 277.816L206.447 278.268L205.004 277.95L201.497 278.048L201.211 277.999L200.95 277.926L198.686 276.728L197.218 275.567L197.081 275.409L196.957 275.213L196.858 274.993L196.808 274.736L196.795 274.455V273.686L196.907 271.999V271.706L196.845 271.449L196.708 271.278L196.459 271.181L196.149 271.254L195.838 271.486L195.477 272.134L195.203 272.891L195.116 273.038L194.955 272.928L194.83 272.757L194.606 272.305L194.519 272.085L193.86 270.826L193.611 270.777L193.213 270.912L190.178 273.478L190.079 273.49L190.004 273.38L189.917 272.916L189.842 272.684L189.718 272.476L189.519 272.354L188.362 272.293L188.039 272.476L187.74 272.855L187.417 273.832L187.168 274.773L187.007 274.993L186.683 275.103L185.452 275.164L185.203 275.286L185.041 275.531L184.979 276.044L184.992 276.411L185.029 276.716L185.128 277.229L185.278 277.706L185.551 278.378L185.054 279.588L182.23 283.547L176.546 280.113L175.887 279.588L175.899 279.38L176.011 279.184L176.783 278.292L176.907 278.072L177.006 277.828L177.093 277.571L177.143 277.29L177.131 276.924L177.044 276.496L176.77 275.861L176.534 275.543L174.78 274.174L172.852 272.195L172.243 271.388L172.006 270.863L172.865 270.02L173.014 269.8L173.076 269.458L172.989 269.213L172.852 269.018L171.957 268.199L171.882 267.906L171.894 267.6L172.205 266.513L172.33 266.28L172.491 266.122L172.74 266.036L178.001 265.792L178.238 265.706L178.412 265.547L178.536 265.327L178.623 264.985L178.686 264.57L178.71 263.885L178.661 263.494L178.586 263.177L178.101 262.321L177.666 261.686L177.417 261.502L177.143 261.429H174.805L173.287 261.124L172.952 260.928L172.591 260.598L171.148 258.289L171.073 257.922L171.086 257.617L171.322 257.14L171.422 256.883L171.409 256.468L171.297 256.224L171.123 256.028L169.705 255.075L169.506 255.014L169.307 255.087L169.158 255.246L168.598 256.052L168.449 256.236L168.262 256.382L168.063 256.468L167.827 256.443L167.33 256.26L165.8 255.393L161.31 253.987L160.899 253.731L160.688 253.499L159.693 251.947L158.611 249.882L158.324 249.539L158.038 249.368L157.802 249.417L156.384 249.93H156.061L155.712 249.894L155.178 249.674L154.916 249.454L154.755 249.222L154.705 248.953L154.643 247.951L154.506 247.486L154.307 247.242L153.163 246.729L152.329 246.142L151.857 245.922L151.484 245.837L150.178 246.093L149.966 246.203L149.817 246.399L149.73 246.668L149.668 246.973L149.543 247.926L149.481 248.207L149.394 248.44L149.257 248.562L149.133 248.623L147.64 248.611L147.416 248.696L147.217 248.806L146.881 249.136L146.571 249.515L146.434 249.71L146.048 250.089L145.737 250.199L145.538 250.126L145.364 249.979L144.083 248.11L143.921 247.719L143.909 247.389L144.021 247.169L144.17 246.985L145.289 246.118L145.414 245.898L145.464 245.605L145.128 244.725L145.041 244.395L145.003 244.126L144.991 243.833L144.941 243.564L144.755 243.1L142.852 239.935L142.466 239.091L142.366 238.59V238.224L142.503 238.016L143.113 237.711L143.25 237.588L143.449 237.307L143.536 237.1L143.884 236.037L144.195 235.316L144.444 234.863L144.717 234.448L144.891 234.289L145.103 234.167L145.563 233.959L146.123 233.886L147.926 234.094L148.337 234.045L148.548 233.971L148.747 233.849L148.785 233.483L148.697 232.957L148.076 231.503L147.889 231.185L146.396 229.438L146.148 229.291L145.862 229.23L142.802 229.059L142.441 228.949L141.981 228.717L141.782 228.472L141.645 228.216L141.558 227.299L141.483 226.921L141.284 226.676L140.6 226.224L140.501 225.955L140.451 225.259L140.302 225.051L140.065 224.99L139.282 225.124L138.946 225.1L138.548 225.002L138.001 224.745L137.764 224.477L137.652 224.183L137.677 223.878L137.727 223.597L137.814 223.352L138.138 222.583L138.884 221.263L139.506 220.481L139.879 220.102L140.376 219.711L140.638 219.613L142.454 219.577L142.715 219.503L142.939 219.393L143.138 219.271L143.312 219.1L143.436 218.892L143.511 218.611L143.536 218.33L143.511 217.047L143.473 216.619L143.287 215.947L143.051 215.532L142.64 215.031L142.454 214.713L142.366 214.395L142.478 211.67L142.553 211.096L150.663 208.42L151.023 208.163L150.737 207.809L150.476 207.406L150.277 206.953L150.115 206.465L149.979 205.976L149.891 205.426V204.827L150.153 202.518L150.178 202.151L150.153 201.723L150.103 201.442L150.053 201.247L150.003 201.174L149.929 201.1L149.78 200.99L149.581 200.905L149.319 200.88L148.312 201.088H148.088L147.926 201.064L147.727 200.929L147.702 200.501L147.839 199.707L148.449 198.4L148.61 197.752L148.648 197.3L148.337 196.445L148.113 196.041L147.429 194.99L147.255 194.538L147.192 194.282L147.043 193.023L146.969 192.669L146.894 192.375L146.658 191.948L146.508 191.752L146.347 191.581L144.493 190.579L141.682 189.76L141.434 189.577L141.197 189.296L140.973 188.746L140.911 188.233L140.924 187.695L140.986 186.925L140.936 186.51L140.837 186.204L140.662 186.058L140.426 185.936L138.884 185.752L138.411 185.508L137.827 185.056L137.478 184.665L137.304 184.396L137.08 184.005L137.068 183.687L137.18 182.685V181.561L137.267 181.023L137.453 180.718L137.74 180.669L138.685 180.693L138.921 180.595L139.108 180.424L139.245 180.217L139.381 179.948L139.493 179.667L139.593 179.288L139.468 179.08L139.269 178.909L136.222 177.663L135.7 177.308L135.426 176.966L135.351 176.539L135.389 175.145L135.451 174.644L135.538 174.266L135.675 174.07L135.849 173.899L136.695 173.398L139.717 172.494L140.19 172.274L140.613 172.005L140.973 171.687L141.123 171.504L141.384 171.064L141.608 170.575L142.08 169.256L142.317 168.767L142.454 168.571L142.64 168.4L142.852 168.29L144.444 167.924L144.692 167.496L144.891 166.812L145.115 165.138L145.041 164.465L144.817 164.087L142.18 164.001L141.894 163.683L141.583 163.097L141.085 160.738L140.911 160.237L140.65 160.115L138.66 159.859L138.399 159.907L138.175 160.127L138.212 160.555L138.187 160.885L138.088 161.117L137.901 161.276L137.677 161.386L134.866 161.789L134.518 161.643L134.145 161.313L133.66 160.372L133.486 159.846L133.374 159.406L133.361 158.795L133.511 156.266L133.734 155.215L133.772 154.751L133.61 154.519L133.399 154.36L132.428 153.908L132.217 153.859L132.03 153.932L131.881 154.091L131.769 154.335L131.545 155.191L131.433 155.411L131.259 155.484L131.023 155.447L129.779 154.885L129.518 154.726L129.257 154.506L129.207 154.225L129.219 153.932L129.63 152.123L130.351 149.985L130.488 149.765L130.637 149.594L130.874 149.545L132.118 149.667L132.416 149.631L132.665 149.557L132.889 149.447L135.463 147.211L136.21 146.967L136.832 146.955L138.946 147.358L143.871 146.429L144.108 146.331L144.307 146.185L144.456 146.026L144.904 145.39L146.645 143.619L147.192 142.751L148.038 140.955L150.787 133.769L151.297 131.998L151.421 131.765L151.583 131.57L152.404 130.983L152.628 130.739L152.889 130.213L153.013 129.468L153.076 128.295L152.964 127.574L152.814 127.061L152.379 126.352L152.18 125.949L152.068 125.558L152.043 124.788L152.006 124.568L151.807 123.957L151.795 123.761L151.857 123.639L151.981 123.615L152.155 123.651L153.499 124.568L153.859 124.727L154.158 124.751L154.394 124.556L154.469 124.128L154.518 122.112L154.643 121.733L154.792 121.537L155.028 121.55L155.277 121.623H155.576L155.849 121.513L156.111 121.098L156.123 120.78L155.974 120.45L155.8 119.949L155.688 119.13L155.862 117.871L155.874 117.297L155.8 117.004L155.588 117.016L154.494 117.566L154.145 117.652L153.859 117.603L153.076 117.114L152.23 116.833L152.018 116.625L151.844 116.295L151.72 115.684L151.595 115.281L151.421 114.914L151.197 114.56L150.998 114.157L150.576 113.106L150.016 111.982L149.867 111.578L149.755 110.98L149.792 110.515L150.016 109.415L149.991 108.914L149.879 108.438L149.755 108.255L149.518 108.12L148.61 107.741L148.312 107.558L148.063 107.326L145.687 103.721L144.705 102.548L144.444 102.401L143.797 102.34L143.349 102.218L142.827 101.974L142.292 101.619L141.807 101.216L141.384 100.739L141.11 100.299L140.824 99.6763L140.799 99.1508L140.886 97.6111L140.787 96.9513L140.488 96.1448L139.916 95.1061L139.866 94.825L139.953 94.5929L140.115 94.4462L140.924 94.0185L141.297 93.6275L141.745 93.2731L141.906 93.1143L142.056 92.8943L142.08 92.6988L142.031 92.4788L141.931 92.1856L141.894 91.8556L141.919 91.5013L142.056 91.1347L142.267 90.8536L142.541 90.6948L142.852 90.6459L143.299 90.7803L144.966 91.6723L145.886 92.0023L147.155 92.1978L149.581 92.0512L149.991 92.1856L150.414 92.5644L150.762 92.7966L151.197 92.9432L151.832 92.9065L152.292 92.7355L152.69 92.4422L152.926 92.1245L153.125 91.7457L153.225 91.6601L153.635 91.5624L154.63 91.4768L155.986 91.5746L156.372 91.6968L156.745 91.929L157.255 92.4422L157.491 92.7966L157.74 93.3342L157.939 93.5053L158.225 93.5786L158.71 93.4931L159.282 93.2243L160.638 92.1367L161.111 91.9412L165.626 91.1836L165.961 91.2813L166.322 91.4646L166.894 92.2467L167.168 92.7355L167.392 92.931L167.715 93.0776L169.469 93.2487L172.84 93.0532L173.35 92.8821L173.549 92.7599L173.673 92.5522L173.71 92.2833L173.698 92.0023L173.648 91.7212L173.437 90.9514L173.387 90.6948V90.4504L173.499 90.2426L174.904 89.1673L175.315 89.1917L178.511 90.096L180.937 89.5094L181.273 89.5706L181.671 89.7783L182.268 90.3404L182.541 90.6948L182.666 91.0369L182.628 91.2935L182.529 91.5379L181.36 93.2487L181.273 93.4686L181.285 93.6764L181.447 93.8963L182.604 94.825L182.952 95.2283L183.76 96.4991L183.984 96.9513L184.071 97.1957L184.133 97.4645L184.171 97.7456L184.196 98.3443L184.233 98.6376L184.357 98.882L184.606 99.0531L185.502 99.1142L187.902 98.8698L188.238 98.9309L188.574 99.0775L188.997 99.493L189.395 100.043L189.668 100.556L189.793 100.715L193.238 103.574L193.4 103.807L193.462 104.051L193.474 104.332L193.412 104.625L193.188 105.53L193.139 105.847L193.25 106.141L193.574 106.348L197.865 107.045L200.154 108.511L200.639 108.963L200.887 109.342L200.875 109.635L200.813 109.941L200.664 110.552L200.452 111.077L200.228 111.566L200.29 111.908L200.514 112.336L201.174 113.057L201.348 113.472L201.397 113.815L201.547 114.218L201.92 114.621L203.014 115.525L203.313 115.99L203.45 116.344L203.736 116.637L206.261 117.383L207.032 117.432L207.542 117.358L207.716 117.175L208.5 116.173L208.699 116.063L208.96 116.039L209.233 116.1L209.793 116.307L210.017 116.503L210.166 116.845L210.191 117.175L210.204 117.823L210.228 118.116L210.328 118.36L210.502 118.531L211.199 118.446L216.049 117.016L216.323 117.041L218.375 117.59L218.773 117.529L219.072 117.395L219.246 117.212L220.241 116.503L221.199 116.136L223.388 115.733L224.619 115.819L224.93 115.965L225.241 116.21L225.851 116.869L226.099 117.285L226.286 117.639L226.361 117.884L226.696 118.544L226.982 118.935L227.318 119.301L228.836 120.181L229.346 120.731L229.619 121.098L229.719 121.403L229.781 121.66L229.968 122.136L230.291 122.429L231.995 123.309L232.803 123.358L233.214 123.236L233.388 122.967L234.781 119.155L234.843 118.849L235.055 118.299L235.167 118.055L235.627 116.637L235.739 116.393L235.888 116.185L236.1 116.051L239.619 114.975L239.881 114.963L240.117 115.037L240.328 115.403L240.453 115.696L240.54 115.99L240.664 116.527L240.751 116.747L240.925 116.894L241.224 116.845L241.46 116.723L241.659 116.54L242.592 115.342L242.779 115.195L243.028 115.244L243.388 115.538L243.923 116.417L244.035 116.869L244.01 117.248L243.376 118.434L243.289 118.702L243.251 119.008V119.289L243.289 119.57L243.5 120.328L243.712 120.597L244.023 120.878L246.672 121.831L246.933 121.843L247.182 121.782L247.393 121.66L247.58 121.513L248.077 120.951L248.314 120.853L248.6 120.829L250.528 121.073L250.839 121.159L251.1 121.317L251.199 121.684L251.261 122.014L251.249 122.356L251.286 122.637L251.436 122.869L251.846 122.93L252.48 122.845L252.978 122.698L253.177 122.552L253.326 122.356L253.712 121.647L253.799 121.403L253.849 121.159L253.749 120.951L253.003 119.998L252.903 119.778L252.878 119.533L253.028 119.008L253.214 118.165L253.339 117.945L253.525 117.81L253.774 117.774L259.52 118.812H260.739L261.548 118.605L261.747 118.495L261.933 118.348L262.107 118.153L262.754 116.967L262.903 116.784L263.078 116.601L263.948 116.136L264.918 115.782L265.142 115.77L265.292 115.819L265.18 116.026L264.831 116.368L264.682 116.576L264.657 116.808L264.719 117.065L264.968 117.261L265.254 117.322H265.553L266.56 117.016L267.468 116.588L267.729 116.515L268.003 116.478L268.314 116.723L268.6 117.199L268.861 118.458L268.924 119.13L268.936 119.656L268.886 120.291L268.911 120.584L268.973 120.804L269.197 120.89L270.69 120.914L271.2 121.024L272.12 121.501L272.381 121.537L272.593 121.452L273.737 120.548L274.16 120.291L274.633 120.095L274.919 120.071L275.516 120.181L276.598 120.597L277.829 120.853L278.103 120.829L278.339 120.731L278.538 120.584L278.687 120.377L278.799 120.132L278.861 119.839L278.886 119.521L278.861 118.641L278.899 118.397L279.048 118.25L279.297 118.226L279.869 118.373L280.143 118.666L280.416 119.106L280.702 120.706V121.122L280.528 121.415L279.023 122.772L278.364 123.517L278.277 123.749L278.264 123.994L278.414 124.287L279.048 125.106L279.135 125.362L279.123 125.704L278.924 126.169L278.75 126.474L278.588 126.719L278.252 127.085L278.078 127.317L277.842 127.782L277.73 128.038L277.145 134.319L276.859 135.688L276.56 136.458L276.312 136.531L276.113 136.714L275.963 137.02L275.827 137.558L275.69 137.887L275.516 138.144L275.192 138.425L275.155 138.523V138.706L275.578 139.122L275.802 139.268L276.1 139.562L276.996 140.979L277.058 141.236V141.553L276.871 142.03L276.697 142.323L276.498 142.543L275.18 143.631L275.031 143.826L274.906 144.058L274.807 144.315L274.769 144.608L274.657 146.197L274.682 146.527L274.807 146.845L275.068 147.236L275.267 147.48L275.615 147.602L275.889 147.627L277.269 147.162Z" fill="white"/>
</g>
</svg>
