<svg width="248" height="248" viewBox="0 0 248 248" fill="none" xmlns="http://www.w3.org/2000/svg">
    <g opacity="0.04">
        <path d="M124.126 86.9531L153.59 57.4896L124.126 28.0261L94.6625 57.4896L124.126 86.9531Z" fill="white"/>
        <path d="M57.6151 94.5387L87.0786 124.002L57.6151 153.466L28.1516 124.002L57.6151 94.5387Z" fill="white"/>
        <path d="M190.639 94.5387L220.102 124.002L190.639 153.466L161.175 124.002L190.639 94.5387Z" fill="white"/>
        <path d="M153.59 190.513L124.126 219.977L94.6625 190.513L124.126 161.05L153.59 190.513Z" fill="white"/>
        <path d="M153.59 124.002L124.127 94.5387L94.6634 124.002L124.127 153.466L153.59 124.002Z" fill="white"/>
        <path fill-rule="evenodd" clip-rule="evenodd" d="M66.3669 57.6325L123.999 0L181.632 57.6325L147.966 91.2989L156.701 100.034L190.367 66.3669L248 123.999L190.367 181.632L156.701 147.965L147.965 156.701L181.632 190.367L123.999 248L66.3669 190.367L99.068 157.666L90.3331 148.931L57.6325 181.632L0 123.999L57.6325 66.3669L90.3331 99.0675L99.0675 90.3331L66.3669 57.6325ZM160.859 57.4896L124.126 20.7567L87.3931 57.4896L120.65 90.7463L90.871 120.525L57.6151 87.2693L20.8822 124.002L57.6151 160.735L90.871 127.479L120.649 157.257L87.3931 190.513L124.126 227.246L160.859 190.513L127.604 157.258L157.383 127.479L190.639 160.735L227.372 124.002L190.639 87.2693L157.383 120.525L127.603 90.7455L160.859 57.4896Z" fill="white"/>
    </g>
</svg>
