<svg width="1068" height="1063" viewBox="0 0 1068 1063" fill="none" xmlns="http://www.w3.org/2000/svg">
<g opacity="0.04">
<path d="M0 258.51H228.903L474.92 502.817H233.95L0 258.51Z" fill="black"/>
<path d="M0 794.227H228.903L474.92 549.921H233.95L0 794.227Z" fill="black"/>
<path d="M262.685 836.959V1063L511.024 817.347V590.667L262.685 836.959Z" fill="black"/>
<path d="M262.685 226.041V0L511.024 245.653V472.332L262.685 226.041Z" fill="black"/>
<path d="M802.228 836.959V1063L553.889 817.347L553.889 590.667L802.228 836.959Z" fill="black"/>
<path d="M802.228 226.041V0L553.889 245.653L553.889 472.332L802.228 226.041Z" fill="black"/>
<path d="M1068 258.51H839.097L593.08 502.817H834.05L1068 258.51Z" fill="black"/>
<path d="M1068 794.227H839.097L593.08 549.921H834.05L1068 794.227Z" fill="black"/>
</g>
</svg>
