<svg width="248" height="248" viewBox="0 0 248 248" fill="none" xmlns="http://www.w3.org/2000/svg">
<path d="M0 60.311H53.1535L110.281 117.308H54.3255L0 60.311Z" fill="none" stroke="#ffffff"/>
<path d="M0 185.295H53.1535L110.281 128.298H54.3255L0 185.295Z" fill="none" stroke="#ffffff"/>
<path d="M60.998 195.264V248L118.665 190.689V137.804L60.998 195.264Z" fill="none" stroke="#ffffff"/>
<path d="M60.998 52.7358V0L118.665 57.3113V110.196L60.998 52.7358Z" fill="none" stroke="#ffffff"/>
<path d="M186.285 195.264V248L128.618 190.689V137.804L186.285 195.264Z" fill="none" stroke="#ffffff"/>
<path d="M186.285 52.7358V0L128.618 57.3113V110.196L186.285 52.7358Z" fill="none" stroke="#ffffff"/>
<path d="M248 60.311H194.847L137.719 117.308H193.674L248 60.311Z" fill="none" stroke="#ffffff"/>
<path d="M248 185.295H194.847L137.719 128.298H193.674L248 185.295Z" fill="none" stroke="#ffffff"/>
</svg>
