<svg width="774" height="720" viewBox="0 0 774 720" fill="none" xmlns="http://www.w3.org/2000/svg">
<g opacity="0.04">
<path d="M255.502 1.90211L358.093 104.494L386.995 75.5918L284.404 -27L255.502 1.90211Z" fill="black"/>
<path d="M272.926 189.662L170.335 87.0702L199.237 58.1681L301.827 160.76L272.926 189.662Z" fill="black"/>
<path d="M526.845 360.001L386.991 220.145L247.136 360.001L386.991 499.856L526.845 360.001Z" fill="black"/>
<path fill-rule="evenodd" clip-rule="evenodd" d="M386.995 75.5918L415.902 104.492L642.506 331.098L671.408 360L642.506 388.903L415.902 615.509L387 644.411L358.098 615.509L131.494 388.903L102.592 360L131.494 331.098L358.093 104.494L386.995 75.5918ZM387 133.394L613.604 360L387 586.607L160.396 360L387 133.394Z" fill="black"/>
<path d="M102.592 360L0 257.406L28.9019 228.504L131.494 331.098L102.592 360Z" fill="black"/>
<path d="M85.1673 172.238L187.758 274.83L216.66 245.928L114.069 143.336L85.1673 172.238Z" fill="black"/>
<path d="M671.408 360L774 257.406L745.098 228.504L642.506 331.098L671.408 360Z" fill="black"/>
<path d="M688.833 172.238L586.242 274.83L557.34 245.928L659.931 143.336L688.833 172.238Z" fill="black"/>
<path d="M501.074 189.662L603.665 87.0702L574.763 58.1681L472.173 160.76L501.074 189.662Z" fill="black"/>
<path d="M518.498 1.90211L415.902 104.492L386.995 75.5918L489.596 -27L518.498 1.90211Z" fill="black"/>
<path d="M102.592 360L0 462.594L28.9019 491.496L131.494 388.903L102.592 360Z" fill="black"/>
<path d="M85.1673 547.762L187.758 445.17L216.66 474.072L114.069 576.664L85.1673 547.762Z" fill="black"/>
<path d="M272.926 530.338L170.335 632.93L199.237 661.832L301.827 559.24L272.926 530.338Z" fill="black"/>
<path d="M255.502 718.098L358.098 615.509L387 644.411L284.404 747L255.502 718.098Z" fill="black"/>
<path d="M671.408 360L774 462.594L745.098 491.496L642.506 388.903L671.408 360Z" fill="black"/>
<path d="M688.833 547.762L586.242 445.17L557.34 474.072L659.931 576.664L688.833 547.762Z" fill="black"/>
<path d="M501.074 530.338L603.665 632.93L574.763 661.832L472.173 559.24L501.074 530.338Z" fill="black"/>
<path d="M518.498 718.098L415.902 615.509L387 644.411L489.596 747L518.498 718.098Z" fill="black"/>
</g>
</svg>
